<svg width="36" height="36" viewBox="0 0 36 36" fill="none" xmlns="http://www.w3.org/2000/svg"><path d="M18 35.46c9.643 0 17.46-7.817 17.46-17.46S27.643.54 18 .54.54 8.357.54 18 8.357 35.46 18 35.46z" fill="url(#paint0_linear)"/><path d="M25.641 24.957l-5.904-14.274c-.333-.738-.828-1.098-1.48-1.098h-.522c-.653 0-1.148.36-1.48 1.098l-2.57 6.219H11.74a1.065 1.065 0 00-1.058 1.057v.014a1.07 1.07 0 001.058 1.058h1.044l-2.453 5.926c-.045.13-.072.265-.072.405 0 .333.104.594.288.797.185.202.45.301.783.301.22-.005.432-.072.608-.203.189-.13.32-.319.423-.535l2.7-6.696h1.872a1.065 1.065 0 001.057-1.058v-.026a1.068 1.068 0 00-1.057-1.058h-1l2.062-5.135 5.616 13.969c.103.215.234.404.423.535.175.13.391.198.607.203.333 0 .594-.1.783-.302.19-.203.288-.463.288-.796a.944.944 0 00-.072-.401z" fill="#fff"/><defs><linearGradient id="paint0_linear" x1="31.018" y1="7.046" x2="5.037" y2="28.906" gradientUnits="userSpaceOnUse"><stop stop-color="#B6509E"/><stop offset="1" stop-color="#2EBAC6"/></linearGradient></defs></svg>