<svg width="36" height="36" viewBox="0 0 36 36" fill="none" xmlns="http://www.w3.org/2000/svg"><path d="M17.985 35.39c9.613 0 17.406-7.792 17.406-17.405C35.39 8.373 27.598.58 17.985.58 8.373.58.58 8.373.58 17.985c0 9.613 7.793 17.406 17.405 17.406z" fill="#F2E3EE"/><path d="M17.985 35.971c9.934 0 17.986-8.052 17.986-17.985C35.971 8.051 27.919 0 17.986 0 8.051 0 0 8.052 0 17.985c0 9.934 8.052 17.986 17.985 17.986z" fill="#D9327C"/><path fill-rule="evenodd" clip-rule="evenodd" d="M17.29 9.486c-.146.116-.32.319-.436.696-.116.377-.754 2.234-1.566 4.554h5.424c-.812-2.32-1.45-4.177-1.566-4.554-.116-.377-.29-.58-.435-.696-.145-.116-.348-.203-.726-.203-.377 0-.55.087-.696.203zm-8.007 5.25h3.684c.9-2.64 1.682-4.844 1.798-5.25.232-.697.61-1.306 1.19-1.74.58-.436 1.276-.64 2.001-.64.726 0 1.422.175 2.002.64.58.434.957 1.043 1.19 1.74.145.406.899 2.581 1.798 5.25h3.742a1.102 1.102 0 110 2.205H9.282c-.608 0-1.073-.493-1.073-1.102 0-.61.494-1.103 1.074-1.103zm0 4.352c-.61 0-1.074.493-1.074 1.102 0 .61.494 1.102 1.074 1.102h1.45l-.58 1.683-.58 1.682-.232.639a1.1 1.1 0 00.667 1.392 1.1 1.1 0 001.392-.667l.232-.639.58-1.682c.233-.696.523-1.508.842-2.408h9.921c.29.87.58 1.712.841 2.408l.58 1.683.232.638c.204.58.813.87 1.393.667.58-.203.87-.812.667-1.392l-.232-.639-.58-1.682-.58-1.683h1.45a1.102 1.102 0 100-2.204H9.283zm16.332 6.527l1.015-.348-1.015.348zm0 0l-1.015.348 1.015-.348zm-15.23 0l1.015.348-1.015-.348zm0 0l-1.015-.348 1.015.348z" fill="#fff"/></svg>