<svg width="36" height="36" viewBox="0 0 36 36" fill="none" xmlns="http://www.w3.org/2000/svg"><path d="M18 36c9.941 0 18-8.059 18-18S27.941 0 18 0 0 8.059 0 18s8.059 18 18 18z" fill="url(#paint0_linear)" fill-opacity=".05"/><path d="M32.063 16.808c.123-2.594-1.688-4.315-3.736-5.496L27 19.125a1.925 1.925 0 011.536.461 1.34 1.34 0 01.1 1.8c1.283-.213 3.28-1.445 3.427-4.578z" fill="url(#paint1_linear)"/><path fill-rule="evenodd" clip-rule="evenodd" d="M14.625 7.723L13.05 6.131c2.385-.292 8.68.079 14.771 3.898.056.341.056.689 0 1.03l.512.259a5.949 5.949 0 01.664 4.567c-.529 2.115-1.434 3.049-1.84 3.24-.815 0-2.204.473-2.654 2.565-.45 2.092-1.317 2.548-1.688 2.514l-9 .107-5.94-3.498-.855-7.24 1.688-2.25 3.014-2.464 2.15-.877.753-.259zm10.637 2.965c-.254.269-.55.495-.878.669-2.311-.495-3.15-1.688-3.15-1.688 1.966-.058 3.911.42 5.625 1.384a10.38 10.38 0 00-1.597-.366z" fill="url(#paint2_linear)"/><path fill-rule="evenodd" clip-rule="evenodd" d="M24.424 21.69a12.47 12.47 0 01-5.49 1.232c-5.676 0-10.272-3.567-10.272-7.96 0-3.25 2.51-6.04 6.104-7.278-6.84.393-12.342 5.889-12.342 12.673 0 7.83 6.98 14.299 15.576 14.299a16.808 16.808 0 0014.591-8.714c-3.853.867-8.404-.782-8.167-4.252z" fill="url(#paint3_linear)"/><defs><linearGradient id="paint0_linear" x1="18" y1="12.594" x2="18" y2="36.472" gradientUnits="userSpaceOnUse"><stop stop-color="#01E8F8"/><stop offset="1" stop-color="#01E8F8" stop-opacity="0"/></linearGradient><linearGradient id="paint1_linear" x1="29.194" y1="13.596" x2="29.992" y2="23.141" gradientUnits="userSpaceOnUse"><stop stop-color="#01E8F7"/><stop offset="1" stop-color="#00C2FF"/></linearGradient><linearGradient id="paint2_linear" x1="13.472" y1="8.466" x2="22.742" y2="23.181" gradientUnits="userSpaceOnUse"><stop stop-color="#01E8F7"/><stop offset="1" stop-color="#00B3EC"/></linearGradient><linearGradient id="paint3_linear" x1="926.436" y1="1053.11" x2="961.894" y2="-85.916" gradientUnits="userSpaceOnUse"><stop stop-color="#01E8F7"/><stop offset="1" stop-color="#00C2FF"/></linearGradient></defs></svg>