<svg width="36" height="36" viewBox="0 0 36 36" fill="none" xmlns="http://www.w3.org/2000/svg"><path fill-rule="evenodd" clip-rule="evenodd" d="M18 0c9.94 0 18 8.06 18 18s-8.06 18-18 18S0 27.94 0 18 8.06 0 18 0z" fill="#1E1E1E"/><path d="M18.27 25.524c-5.756 0-10.422-1.663-10.422-3.892 0-1.163 1.27-2.21 3.305-2.948 1.588 1.019 4.252 1.54 7.272 1.54 2.948 0 5.555-.637 7.157-1.612 1.918.73 3.11 1.75 3.11 2.873 0 2.232-4.666 4.039-10.422 4.039z" fill="#fff"/><path d="M18.331 19.724c-4.363 0-7.902-1.368-7.902-3.056 0-.936 1.091-1.775 2.801-2.333 1.22.637 3.05 1.044 5.101 1.044 2.052 0 3.881-.407 5.101-1.044 1.714.562 2.801 1.397 2.801 2.333.004 1.688-3.535 3.056-7.902 3.056z" fill="#fff"/><path d="M18.302 14.871c-3.373 0-6.11-1.13-6.11-2.52 0-1.39 2.737-2.52 6.11-2.52s6.11 1.13 6.11 2.52c0 1.39-2.737 2.52-6.11 2.52z" fill="#fff"/></svg>