<svg width="177" height="37" viewBox="0 0 177 37" xmlns="http://www.w3.org/2000/svg"><g fill="#f3ba2f"><path d="M18.5 1L7.748 11.752l3.955 3.955L18.5 8.911l6.8 6.8 3.957-3.955zM4.955 14.544L8.91 18.5l-3.955 3.955L1 18.499zm24.302 10.701L18.5 36 7.748 25.248l-.006-.005 3.961-3.95L18.5 28.09l6.8-6.8 3.957 3.952zm6.744-6.744l-3.955 3.955-3.955-3.955 3.955-3.955z"/><path d="M15.534 17.45l-.34.342-.704.703-.005.005.005.006 4.01 4.01 4.014-4.014.001-.002-.003-.002h.002L18.5 14.485l-2.966 2.966zm26.633-7.97h8.602c2.135 0 3.75.549 4.844 1.644.846.85 1.27 1.901 1.27 3.156v.053c0 .53-.066.999-.198 1.405a4.37 4.37 0 01-.527 1.1c-.22.327-.474.615-.764.862-.29.247-.601.46-.935.636 1.073.407 1.918.96 2.534 1.657.616.699.924 1.667.924 2.904v.053c0 .848-.163 1.59-.49 2.227-.326.636-.794 1.167-1.403 1.59s-1.341.743-2.197.955c-.856.212-1.804.318-2.845.318h-8.815zm7.742 7.504c.902 0 1.618-.154 2.148-.464.53-.31.795-.809.795-1.498v-.053c0-.618-.23-1.091-.69-1.418-.46-.327-1.122-.49-1.988-.49h-4.03v3.923zm1.087 7.478c.902 0 1.608-.164 2.121-.49.513-.328.77-.836.77-1.526v-.053c0-.618-.24-1.109-.717-1.471-.477-.362-1.246-.543-2.306-.543h-4.72v4.083h4.852zM63.04 9.48h4.084v18.56H63.04zm10.268 0h3.765l8.697 11.43V9.48h4.03v18.56h-3.473l-8.989-11.8v11.8h-4.03zm28.852-.132h3.765l7.955 18.693h-4.27l-1.696-4.162h-7.849l-1.697 4.162h-4.163zm4.295 10.924l-2.466-6.018-2.465 6.018zM118.29 9.48h3.765l8.697 11.429V9.48h4.03v18.56h-3.473l-8.989-11.8v11.8h-4.03zm31.19 18.879c-1.362 0-2.625-.248-3.792-.742a9.312 9.312 0 01-3.023-2.029 9.22 9.22 0 01-1.988-3.036 9.776 9.776 0 01-.716-3.738v-.053c0-1.326.239-2.567.716-3.725a9.568 9.568 0 011.988-3.05 9.218 9.218 0 013.05-2.068c1.183-.504 2.492-.755 3.924-.755.865 0 1.656.07 2.372.212a9.936 9.936 0 011.95.583 8.489 8.489 0 011.617.901c.494.354.954.743 1.378 1.167l-2.598 2.996c-.725-.654-1.463-1.167-2.214-1.538-.751-.37-1.595-.556-2.532-.556-.778 0-1.498.15-2.16.45a5.114 5.114 0 00-1.711 1.246 5.826 5.826 0 00-1.114 1.843 6.272 6.272 0 00-.397 2.24v.053c0 .796.132 1.547.397 2.254a5.897 5.897 0 001.1 1.856 5.108 5.108 0 003.884 1.724c1.062 0 1.958-.195 2.692-.584.734-.388 1.463-.919 2.188-1.59l2.598 2.624c-.477.513-.973.973-1.485 1.379a8.826 8.826 0 01-1.684 1.048 8.725 8.725 0 01-2.001.662c-.725.15-1.538.226-2.439.226zM161.89 9.48h13.973v3.633h-9.943v3.766h8.75v3.632h-8.75v3.898h10.076v3.632H161.89z"/></g></svg>