<svg width="157" height="39" viewBox="0 0 157 39" xmlns="http://www.w3.org/2000/svg"><path d="M8.516 1v5.737h3.616V4.602h21.723v21.664H12.158v-11.63H8.542v15.258h28.98V1zM1 9.13V38h28.98v-5.97h-3.616v2.367H4.616V12.732h21.722v11.399h3.616V9.104H1z" fill="#0082d7"/><path d="M56.171 27.605h-4.52v-7.076h4.7c2.48 0 4.056 1.441 4.056 3.628-.026 2.136-1.576 3.448-4.236 3.448zm-4.52-15.644h3.952c2.48 0 3.874 1.21 3.874 3.165 0 2.264-1.446 3.68-3.642 3.68h-4.21l.026-6.845c-.026 0 0 0 0 0zm6.896 7.513c2.067-.617 3.177-2.238 3.177-4.528 0-3.037-2.273-4.838-6.121-4.838H49.48V29.38h6.69c4.055 0 6.457-1.955 6.457-5.274 0-2.265-1.524-4.014-4.08-4.632zm49.543-9.339v19.271h2.17v-7.46h4.183l4.211 7.46h2.582l-4.416-7.152-.568-.567c2.583-.592 4.21-2.547 4.21-5.66 0-3.705-2.504-5.893-6.792-5.893zm2.147 1.852h3.847c2.635 0 4.186 1.493 4.186 4.066 0 2.805-1.732 4.193-4.315 4.193h-3.693zm26.053 8.619h-8.136v6.999h9.066v1.826h-11.236V10.133h11.158v1.827h-8.989v6.896h8.137zm-68.809 8.8h2.17V10.108h-2.17zM79.776 11.96h-5.45v-1.827H87.37v1.827h-5.424v17.445h-2.17zm10.719 0h5.476v17.445h2.17V11.96h5.423v-1.827H90.522l-.026 1.827zm59.536 7.616l5.76-9.417h-2.635l-4.313 7.642-.18.746-.182-.746-4.313-7.642h-2.609l5.76 9.417-5.915 9.855h2.66l4.443-7.925.181-.747.18.747 4.47 7.925h2.66z" fill="#333"/></svg>