<svg width="40" height="40" viewBox="0 0 40 40" xmlns="http://www.w3.org/2000/svg"><g transform="translate(4.797 4.797) scale(.2027)"><linearGradient id="a" x1="75" x2="75" y1="149" y2="1" gradientUnits="userSpaceOnUse"><stop stop-color="#1447EA" offset="0"/><stop stop-color="#2B65FB" offset="1"/></linearGradient><path d="M75 1C34.1 1 1 34.1 1 75s33.1 74 74 74 74-33.1 74-74S115.9 1 75 1zm0 117.3c-23.9 0-43.3-19.4-43.3-43.3S51.1 31.7 75 31.7s43.3 19.4 43.3 43.3-19.4 43.3-43.3 43.3z" fill="url(#a)"/><path d="M85.5 88.9h-21c-1.8 0-3.3-1.5-3.3-3.3V64.5c0-1.8 1.5-3.3 3.3-3.3h21.1c1.8 0 3.3 1.5 3.3 3.3v21.1c0 1.8-1.5 3.3-3.4 3.3z" fill="#2059eb"/></g></svg>