<svg width="36" height="36" viewBox="0 0 36 36" fill="none" xmlns="http://www.w3.org/2000/svg"><path d="M18 36c9.941 0 18-8.059 18-18S27.941 0 18 0 0 8.059 0 18s8.059 18 18 18z" fill="#070A0E"/><path fill-rule="evenodd" clip-rule="evenodd" d="M10.398 24.036a1.812 1.812 0 01-.867-1.545v-3.517a.755.755 0 011.137-.652l7.937 4.628c.464.27.75.767.75 1.305v3.643a.904.904 0 01-1.379.774l-7.578-4.636zm11.83-6.677c.464.27.749.769.75 1.305v7.395a.6.6 0 01-.307.525l-1.737.978a.303.303 0 01-.07.029v-4.106c0-.531-.28-1.024-.737-1.298l-6.97-4.169v-4.635a.755.755 0 011.138-.651l7.933 4.627zm3.474-5.46c.466.27.752.768.752 1.306v10.8a.612.612 0 01-.318.531l-1.647.89v-7.52c0-.53-.28-1.022-.733-1.295l-7.124-4.274V7.942c0-.133.036-.265.1-.38a.758.758 0 011.034-.274l7.936 4.61z" fill="#00D395"/></svg>