<svg width="36" height="36" viewBox="0 0 36 36" fill="none" xmlns="http://www.w3.org/2000/svg"><path d="M20.062 19.401a4.22 4.22 0 002.359-3.792 4.211 4.211 0 00-4.205-4.217 4.212 4.212 0 00-4.205 4.217 4.217 4.217 0 002.36 3.792v5.209h3.69V19.4zM18.216 31.5C10.796 31.5 4.76 25.444 4.76 18S10.796 4.501 18.216 4.501c6.056 0 11.189 4.032 12.873 9.561h4.638C33.937 6.015 26.777 0 18.217 0 8.306 0 .272 8.059.272 18s8.034 18 17.943 18c8.56 0 15.721-6.015 17.511-14.062h-4.638c-1.685 5.53-6.817 9.562-12.873 9.562z" fill="#3AB03E"/></svg>