<svg width="30" height="30" viewBox="0 0 30 30" fill="none" xmlns="http://www.w3.org/2000/svg"><path d="M15 0c8.285 0 15 6.716 15 15 0 8.285-6.715 15-15 15-8.284 0-15-6.716-15-15C0 6.716 6.716 0 15 0z" fill="#F5AC37"/><path d="M15.548 16.052h5.7c.121 0 .178 0 .187-.16a10.79 10.79 0 000-1.743c0-.113-.056-.16-.178-.16H9.914c-.14 0-.179.047-.179.179v1.669c0 .215 0 .215.225.215h5.588zm5.25-4.012a.182.182 0 000-.131 3.705 3.705 0 00-.338-.59 4.778 4.778 0 00-.694-.873 2.298 2.298 0 00-.431-.422A6.739 6.739 0 0016.522 8.6a6.991 6.991 0 00-1.594-.169H9.894c-.14 0-.16.056-.16.179v3.327c0 .14 0 .179.179.179H20.73s.094-.02.113-.075h-.046zm0 5.962a2.181 2.181 0 00-.478 0H9.923c-.14 0-.188 0-.188.188v3.253c0 .15 0 .188.188.188h4.8c.23.017.459.001.684-.047a7.143 7.143 0 002.035-.45c.238-.082.467-.19.684-.319h.065a6.09 6.09 0 002.616-2.633s.065-.141-.008-.179v-.001zM7.852 23.318v-5.184c0-.123 0-.14-.15-.14H5.668c-.113 0-.16 0-.16-.15v-1.782h2.176c.121 0 .168 0 .168-.16V14.14c0-.113 0-.14-.15-.14H5.668c-.113 0-.16 0-.16-.15V12.2c0-.103 0-.13.15-.13h2.016c.14 0 .178 0 .178-.179V6.838c0-.15 0-.188.188-.188h7.031c.51.02 1.017.077 1.519.17a9.164 9.164 0 012.934 1.087 8.268 8.268 0 011.65 1.275c.37.385.706.802 1.003 1.246.295.45.54.932.732 1.435.024.13.15.22.28.197h1.678c.216 0 .216 0 .225.206v1.538c0 .15-.056.188-.206.188H23.59c-.131 0-.17 0-.16.168a9.577 9.577 0 010 1.716c0 .159 0 .178.18.178h1.48c.065.084 0 .169 0 .254.009.108.009.218 0 .327v1.135c0 .16-.047.206-.188.206H23.13a.235.235 0 00-.272.178 7.497 7.497 0 01-1.97 2.87c-.318.286-.652.556-1.002.805-.375.216-.74.441-1.125.62-.709.318-1.451.553-2.213.702a11.53 11.53 0 01-2.194.178H7.85v-.01l.002-.001z" fill="#FEFEFD"/></svg>