<svg width="36" height="36" viewBox="0 0 36 36" fill="none" xmlns="http://www.w3.org/2000/svg"><circle cx="18" cy="18" r="18" fill="#E2E8FF"/><g clip-path="url(#clip0)"><path d="M18.03 8.288v.01c.009.048.009.106.009.164v6.974c-.01.039-.039.049-.068.068a16.33 16.33 0 01-.6.27c-.28.127-.57.262-.85.388l-1.016.464c-.28.126-.561.252-.832.377-.33.155-.668.3-.997.455-.28.126-.56.261-.85.387-.233.106-.465.203-.688.31-.019.009-.038.019-.058.019-.01 0-.01 0-.019-.01l.261-.435 1.5-2.486c.532-.89 1.073-1.78 1.605-2.67.494-.822.997-1.644 1.49-2.467.358-.6.725-1.2 1.083-1.799.01-.02.02-.029.02-.048h.01c-.01.01 0 .02 0 .029z" fill="#8A92B2"/><path d="M23.968 18.164l.01.01-1.422.841-4.47 2.641a.208.208 0 00-.048.029c-.029 0-.029-.029-.029-.039v-6.065c0-.029 0-.067.01-.096.01-.04.039-.03.068-.02.125.058.26.116.387.174.377.174.754.349 1.131.513.33.145.648.3.977.445.33.145.658.3.987.445.28.126.57.261.851.387.28.126.57.261.851.387.223.097.445.203.668.3 0 .029.01.038.029.048z" fill="#454A75"/><path d="M18.029 27.692c0 .01-.01.02-.01.029h-.01c0-.02-.019-.03-.029-.048-.6-.842-1.199-1.693-1.799-2.535l-1.838-2.592-1.78-2.505c-.154-.223-.309-.436-.464-.658-.01-.02-.02-.03-.039-.058.03 0 .049.02.059.029.841.493 1.673.986 2.515 1.48.967.57 1.924 1.141 2.892 1.712l.493.29c.02.02.02.039.02.058v4.663c0 .048 0 .096-.01.135z" fill="#8A92B2"/><path d="M12.05 18.183v-.01c.31-.135.61-.28.92-.415.396-.184.793-.358 1.19-.542.3-.135.609-.28.909-.416.445-.203.88-.396 1.325-.6.3-.135.6-.27.91-.415.212-.097.435-.194.647-.29.02-.01.049-.02.058-.04.01 0 .01.01 0 .02v6.142c0 .03-.01.058.01.078-.02.029-.039 0-.048-.01a3.704 3.704 0 01-.262-.155c-1.866-1.103-3.743-2.215-5.61-3.318a.207.207 0 00-.048-.029zm11.899 1.142h.01c0 .02-.02.038-.03.058-1.78 2.505-3.56 5.02-5.34 7.525-.183.262-.377.523-.56.784-.01-.01-.01-.02-.01-.03v-4.836c.406-.242.803-.474 1.21-.715 1.566-.93 3.133-1.848 4.69-2.777.01.01.02 0 .03-.01z" fill="#62688F"/><path d="M18.019 15.475v-7.1c0-.03-.01-.049.01-.078 1.963 3.26 3.927 6.51 5.88 9.77.02.03.05.068.059.107-.136-.049-.261-.116-.387-.174-.155-.068-.32-.146-.474-.213-.097-.049-.203-.087-.3-.136-.164-.077-.329-.145-.493-.222a3.892 3.892 0 01-.29-.136l-.639-.29c-.106-.048-.213-.097-.329-.145l-.464-.203a3.89 3.89 0 01-.29-.136l-.639-.29a11 11 0 00-.329-.145l-.464-.203c-.106-.048-.203-.097-.31-.145a9.833 9.833 0 00-.56-.252c.029-.01.019-.01.019-.01z" fill="#62688F"/></g><defs><clipPath id="clip0"><path fill="#fff" transform="translate(8.182 8.182)" d="M0 0h19.636v19.636H0z"/></clipPath></defs></svg>