<svg width="40" height="40" viewBox="0 0 40 40" xmlns="http://www.w3.org/2000/svg"><style>.st1,.st6{fill:#e4761b;stroke:#e4761b;stroke-linecap:round;stroke-linejoin:round}.st6{fill:#f6851b;stroke:#f6851b}</style><path transform="matrix(.125 0 0 .12637 .088 .577)" fill="#e2761b" stroke="#e2761b" stroke-linecap="round" stroke-linejoin="round" d="M274.1 35.5l-99.5 73.9L193 65.8z"/><g fill="#e4761b" stroke="#e4761b" stroke-linecap="round" stroke-linejoin="round"><path class="st1" d="M125.6 65.8L44.4 35.5l98.7 74.6zM268.5 263l16.3-55.3-46.5-.9-26.5 40.6zm-161.7-15.6l-26.5-40.6-46.4.9L50.1 263z" transform="matrix(.125 0 0 .12637 .088 .577)"/><path class="st1" d="M144.1 164.6l-2-60.5-38.5 34.1-15.8 23.9zm30.5 0l56.2-2.5-15.9-23.9-39-34.8zm-63.2 43.5l-4.6 39.3 33.8-16.5zm95.7 0l-29.2 22.8 33.9 16.5z" transform="matrix(.125 0 0 .12637 .088 .577)"/></g><path d="M180.6 253l-.3 9.3 31.5-14.9-33.9-16.5zm-42.5 0l2.5-22.1-33.8 16.5 31.5 14.9z" transform="matrix(.125 0 0 .12637 .088 .577)" fill="#d7c1b3" stroke="#d7c1b3" stroke-linecap="round" stroke-linejoin="round"/><path transform="matrix(.125 0 0 .12637 .088 .577)" fill="#233447" stroke="#233447" stroke-linecap="round" stroke-linejoin="round" d="M138.8 193.5l-28.2-8.3 19.9-9.1zm40.9 0l8.3-17.4 20 9.1z"/><path d="M80.3 207.7l26.5 39.7 4.8-40.6zm158 0l-31.3-.9 4.8 40.6zm-30.2-22.5l22.7-23.1-56.2 2.5 5.2 28.9 8.3-17.4zM87.8 162.1l22.8 23.1 20-9.1 8.2 17.4 5.3-28.9z" transform="matrix(.125 0 0 .12637 .088 .577)" fill="#cd6116" stroke="#cd6116" stroke-linecap="round" stroke-linejoin="round"/><path d="M110.6 185.2l-22.8-23.1 23.6 46zm120.2-23.1l-22.7 23.1-1 22.9zm-85.4 65.5l1.5-44.9-2.8-18.1-5.3 28.9zm27.7 0l6.7-34.1-5.2-28.9-2.7 18z" transform="matrix(.125 0 0 .12637 .088 .577)" fill="#e4751f" stroke="#e4751f" stroke-linecap="round" stroke-linejoin="round"/><g stroke-linecap="round" stroke-linejoin="round"><path class="st6" transform="matrix(.125 0 0 .12637 .088 .577)" fill="#f6851b" stroke="#f6851b" d="M177.9 230.9l29.2-22.8 1-22.9-28.3 8.3-6.7 34.1zm-37.3 0l4.8-3.3-6.6-34.1-28.2-8.3.8 22.9z"/><path transform="matrix(.125 0 0 .12637 .088 .577)" fill="#c0ad9e" stroke="#c0ad9e" d="M180.3 262.3l.3-9.3-2.5-2.2h-37.7l-2.3 2.2.2 9.3-31.5-14.9 11 9 22.3 15.5h38.3l22.4-15.5 11-9z"/><path transform="matrix(.125 0 0 .12637 .088 .577)" fill="#161616" stroke="#161616" d="M138.1 253l2.3-2.2h37.7l2.5 2.2-2.7-22.1-4.8-3.3h-27.7l-4.8 3.3z"/></g><path d="M177.9 106.9l37 31.3 52.3 15.3 11.6-13.5-5-3.6 8-7.3-6.2-4.8 8-6.1-5.3-4 8.5-40.8-12.7-37.9zm-135 17.4l-6.1 4.8 8 7.3-5 3.6 11.5 13.5 52.3-15.3 37-31.3-96.2-71.4-12.6 37.9 8.5 40.8-5.4 4z" transform="matrix(.125 0 0 .12637 .088 .577)" fill="#763d16" stroke="#763d16" stroke-linecap="round" stroke-linejoin="round"/><path class="st6" transform="matrix(.125 0 0 .12637 .088 .577)" d="M267.2 153.5l-52.3-15.3 15.9 23.9-23.7 46 31.2-.4h46.5zm-163.6-15.3l-52.3 15.3-17.4 54.2h46.4l31.1.4-23.6-46zm89.5-72.4h-67.5l15 41.1 3.5 57.7 1.2 18.2.1 44.8h27.7l.2-44.8 1.3-18.2 3.3-57.7z" fill="#f6851b" stroke="#f6851b" stroke-linecap="round" stroke-linejoin="round"/></svg>