<svg id="layer" width="40" height="40" version="1.1" viewBox="0 0 40 40" xml:space="preserve" xmlns="http://www.w3.org/2000/svg"><style>.st4{fill:#4b6b9a}.st7{fill:#6db2d8}.st8{fill:#335f8a}</style><path fill="#133444" d="M22 336.2l4.4-1.9 54.2-23.6 58.6 25.5-22 45.5-53.8 7.6-40.5-43.7z" transform="matrix(.16541 0 0 .1642 6.675 -32.964)"/><path d="M127.1 308.2c-9.7-11.7-23.4-19.2-38.4-21.2l-1-.1c-4.7-.6-9.4-.6-14.1 0l-1 .1c-15 2-28.7 9.6-38.4 21.2l-2.4 4-4.1 6.7-3 4.9c0 .1-.1.3-.2.4v.1l6.5 3.9 41.5 24.6 8 4.7v-58.7l-8 3.6v-8.8l8-3.6 8 3.6 40.8 18.6z" fill="#c42370" transform="matrix(.16541 0 0 .1642 6.675 -32.964)"/><path d="M141 350.8c-.1 19.3-8.8 37.5-23.7 49.7-5.7 4.7-12.1 8.2-19.1 10.6-5.7 1.9-11.6 2.8-17.6 2.8-33.4 0-60.5-29.7-60.5-63.1 0-4.9.6-9.8 1.8-14.6l58.6 34.7 58.6-34.7c1.3 4.8 2 9.7 1.9 14.6z" fill="#1c4d6b" transform="matrix(.16541 0 0 .1642 6.675 -32.964)"/><path d="M72.6 286.4l1 .5 7 3.1-8 3.7zm0 66.4v-50.3l8-3.7v58.8z" transform="matrix(.16541 0 0 .1642 6.675 -32.964)"/><path fill="#1d4259" d="M136.8 324.4l-56.2-25.6v58.8z" transform="matrix(.16541 0 0 .1642 6.675 -32.964)"/><path class="st4" fill="#4b6b9a" d="M136.8 324.4l-56.2-93.2v67.6z" transform="matrix(.16541 0 0 .1642 6.675 -32.964)"/><path d="M80.6 298.8v58.7l-8-4.7-48.1-28.4h-.1.1c0-.1.1-.3.2-.4l7-11.7 40.8-18.5v8.7z" fill="#343535" transform="matrix(.16541 0 0 .1642 6.675 -32.964)"/><path fill="#3e5578" d="M24.6 324.3l48-21.8 8-3.7v58.8l-8-4.8-48.1-28.4z" transform="matrix(.16541 0 0 .1642 6.675 -32.964)"/><path class="st7" fill="#6db2d8" d="M24.5 324.4l56.1-93.2v67.6z" transform="matrix(.16541 0 0 .1642 6.675 -32.964)"/><path class="st8" d="M57.9 409.1c.8.4 1.7.7 2.5 1-.8-.3-1.6-.7-2.5-1zm2.5 1c.8.3 1.7.7 2.6.9-.8-.2-1.7-.5-2.6-.9zm4.9 1.6c.7.2 1.3.4 2 .5-.7-.1-1.4-.3-2-.5z" transform="matrix(.16541 0 0 .1642 6.675 -32.964)" fill="#335f8a"/><path class="st7" d="M22 336.2l58.6 34.7c-.8 5.3-2.2 10.4-4.2 15.4-4.7 11.4-14.1 23.4-32.5 14.2a64.643 64.643 0 01-23.7-49.7c0-4.9.6-9.8 1.8-14.6z" fill="#6db2d8" transform="matrix(.16541 0 0 .1642 6.675 -32.964)"/><path d="M117.3 400.5l-.2.1c-.3.2-.6.5-.9.7l-.1.1c-.3.3-.7.5-1 .8-.4.3-.7.6-1.1.8s-.8.5-1.1.8c-.4.3-.7.4-1 .7l-.2.1c-.4.2-.7.4-1 .7 0 0-.1 0-.1.1-.4.2-.7.4-1.1.7-.4.2-.8.4-1.2.7l-4.8 2.4c-.8.4-1.7.7-2.5 1s-1.7.6-2.6.9c-.3.1-.7.2-1 .3l-1.2.4c-.7.2-1.3.4-2 .5-.2.1-.5.1-.8.2l-.4.1-1.1.2c-.4.1-.6.1-1 .2-.3.1-.6.1-.9.2-.3 0-.7.1-1 .2-.2 0-.3 0-.5.1l-.8.1h-.4c-.3 0-.6.1-.8.1-.3 0-.7.1-1 .1h-9.2c-.3 0-.7-.1-1-.1s-.6 0-.8-.1h-.4c-.2 0-.5-.1-.8-.1-.2 0-.3 0-.5-.1-.3 0-.7-.1-1-.2-.3 0-.6-.1-.9-.2-.3 0-.7-.1-1-.2s-.7-.2-1.1-.2l-.4-.1c-.3 0-.6-.1-.8-.1-.7-.2-1.4-.4-2-.5l-1.2-.4c-.4-.1-.7-.2-1-.3-.9-.3-1.7-.6-2.6-.9s-1.7-.7-2.5-1l-4.8-2.4c-.4-.2-.8-.4-1.2-.7-.4-.2-.7-.4-1.1-.7l-.1-.1c-.4-.2-.7-.4-1-.7l-.2-.1c-.3-.2-.7-.4-1-.7-.3-.2-.8-.5-1.1-.8-.4-.3-.8-.5-1.1-.8l-1-.8-.1-.1c-.3-.2-.6-.5-.9-.7l-.2-.1c18.3 9.1 27.8-2.9 32.5-14.2 2-4.9 3.4-10.1 4.2-15.4.8 5.3 2.2 10.4 4.2 15.4 4.1 11.2 13.6 23.2 31.9 14.1z" fill="#529bba" transform="matrix(.16541 0 0 .1642 6.675 -32.964)"/><path class="st8" d="M94 412.3c.7-.2 1.4-.4 2-.5-.6.1-1.3.3-2 .5zm4.2-1.3c.9-.3 1.7-.6 2.6-.9-.8.4-1.7.7-2.6.9zm2.6-.9c.8-.3 1.7-.7 2.5-1-.8.3-1.6.7-2.5 1z" transform="matrix(.16541 0 0 .1642 6.675 -32.964)" fill="#335f8a"/><path class="st4" d="M141 350.8c-.1 19.3-8.8 37.5-23.7 49.7-18.3 9.1-27.8-2.9-32.5-14.2-2-4.9-3.4-10.1-4.2-15.4l58.6-34.7c1.2 4.8 1.8 9.7 1.8 14.6z" fill="#4b6b9a" transform="matrix(.16541 0 0 .1642 6.675 -32.964)"/></svg>