<svg width="149" height="41" viewBox="0 0 149 41" fill="none" xmlns="http://www.w3.org/2000/svg"><path fill-rule="evenodd" clip-rule="evenodd" d="M19.302.073c.4-.047.797-.072 1.19-.073h.047a8.343 8.343 0 013.543.77c.603.28 1.157.68 1.701 1.071l.065.047c.357.257.333.34.045.697a3.198 3.198 0 01-.215.24l-.51.511c-1.019 1.02-2.038 2.042-3.062 3.059-.262.26-.53.517-.796.773-.275.265-.55.53-.821.8-.347.344-.688.693-1.03 1.041-.273.279-.545.557-.82.833-.2.2-.402.398-.604.595-.26.254-.519.508-.772.767-.346.353-.689.71-1.03 1.067-.39.406-.78.813-1.176 1.214a52.87 52.87 0 01-.892.88c-.278.27-.557.542-.83.818-.33.333-.654.671-.977 1.01-.285.296-.569.592-.857.885-.255.26-.514.518-.773.774-.3.297-.6.595-.894.897-.32.33-.635.664-.95.998-.238.253-.476.506-.716.756-.132.138-.269.271-.406.405-.132.128-.264.257-.391.39-.26.27-.517.541-.775.813a103.67 103.67 0 01-1.818 1.882c-.205.209-.41.417-.614.627a152.105 152.105 0 00-1.114 1.155 1.73 1.73 0 01-.161.154c-.372.301-.574.304-.852-.085l-.067-.094c-.383-.537-.77-1.08-1.059-1.669-.573-1.166-.966-2.394-.905-3.337.02-2.473.663-4.33 2.021-5.924.204-.24.43-.462.656-.684.118-.117.237-.234.353-.353.203-.21.405-.421.607-.633.368-.383.735-.767 1.11-1.144.434-.437.874-.87 1.313-1.302.314-.309.628-.617.94-.928.231-.23.46-.462.688-.695.248-.253.497-.506.749-.756.308-.305.619-.607.93-.909.216-.209.431-.417.645-.627a207.616 207.616 0 002.539-2.525c.613-.617 1.225-1.234 1.845-1.842C15.766 1.086 17.394.3 19.302.073zm7.558 8.615c.722-.884 1.684-1.227 2.794-1.27l.183-.003c1.178 0 2.146.443 2.987 1.31a332.988 332.988 0 005.21 5.222c1.18 1.165 1.382 1.418 1.77 2.017 1.048 1.614 1.28 3.095 1.334 3.488.031.226.134 1.043.014 2.108a8.913 8.913 0 01-1.435 3.945c-.272.402-.638.82-1.394 1.63a70.074 70.074 0 01-1.883 1.919c-.341.337-.688.668-1.034 1-.287.275-.575.55-.859.828-.385.377-.765.76-1.146 1.141l-.527.528-.77.768-1.056 1.055-.851.854-1.089 1.09c-.261.26-.52.526-.777.79-.607.624-1.213 1.247-1.867 1.817-1.266 1.106-2.741 1.804-4.443 2-.427.048-.851.074-1.271.075h-.026c-1.238-.002-2.441-.229-3.592-.766-.567-.264-1.088-.63-1.604-.994l-.168-.118c-.332-.233-.335-.415-.054-.712.33-.35.673-.688 1.016-1.027a93.081 93.081 0 00.697-.695c.185-.187.37-.374.56-.558a465.815 465.815 0 011.813-1.756c.023-.022.048-.042.073-.063.03-.026.06-.051.088-.08l.571-.588c.37-.382.74-.764 1.115-1.142.321-.323.647-.642.972-.96.212-.208.424-.415.634-.623.242-.24.478-.485.714-.73.051-.053.1-.108.15-.163.059-.065.117-.13.18-.192l.32-.321c.613-.616 1.227-1.23 1.845-1.84.298-.295.6-.585.9-.875.267-.257.534-.514.798-.774.2-.197.402-.393.604-.588a57.683 57.683 0 001.759-1.76c.66-.7.991-1.58 1.106-2.52.136-1.114-.194-2.13-.784-3.07-.326-.518-.748-.564-1.2-.127-.68.656-1.36 1.314-2.038 1.972l-1.054 1.022-.685.662c-.866.84-1.732 1.68-2.6 2.517-.325.313-.651.624-.978.935-.477.456-.955.912-1.428 1.374a264.62 264.62 0 00-1.563 1.544c-.446.443-.893.886-1.341 1.326-.303.297-.611.587-.92.877l-.562.53-1.433 1.373-.664.636c-.386.371-.865.577-1.367.721-.685.197-1.386.19-2.081.069-.73-.128-1.343-.485-1.865-1.008-.356-.357-.714-.712-1.071-1.068-.495-.492-.99-.985-1.483-1.48-.35-.353-.339-.399-.003-.732 1.312-1.302 2.622-2.605 3.932-3.908l1.375-1.368 2.408-2.392a12030.471 12030.471 0 003.773-3.748c.279-.273.56-.542.842-.811.327-.313.654-.625.976-.943.317-.313.628-.632.94-.95.251-.259.503-.517.759-.773.322-.323.649-.643.975-.964l.671-.66c.265-.262.529-.526.792-.789.396-.395.791-.79 1.19-1.18.438-.43.88-.854 1.323-1.278l.611-.587.056-.052c.047-.044.095-.088.136-.137zm23.521 7.947c0 .576.317 1.03.95 1.364.633.334 1.404.622 2.314.864a37.6 37.6 0 012.746.846c.92.322 1.698.87 2.33 1.64.634.772.95 1.744.95 2.919 0 1.657-.638 2.958-1.916 3.902s-2.884 1.416-4.818 1.416c-1.704 0-3.166-.356-4.386-1.07-1.22-.714-2.107-1.704-2.66-2.97l3.212-1.866c.599 1.658 1.877 2.487 3.834 2.487s2.936-.644 2.936-1.934c0-.553-.317-1.001-.95-1.347-.634-.345-1.405-.639-2.314-.88a37.18 37.18 0 01-2.746-.847 5.291 5.291 0 01-2.331-1.606c-.633-.748-.95-1.698-.95-2.849 0-1.589.605-2.866 1.813-3.833 1.21-.967 2.711-1.45 4.508-1.45 1.427 0 2.699.316 3.816.949a6.461 6.461 0 012.572 2.642l-3.142 1.761c-.599-1.312-1.68-1.968-3.246-1.968-.715 0-1.313.155-1.797.466-.483.31-.725.766-.725 1.364zm32.464-4.766h3.938L81.36 29.137H77.7l-3.592-11.639-3.627 11.64h-3.66l-5.423-17.269h3.938l3.35 11.915 3.626-11.915h3.557l3.592 11.915 3.384-11.915zm10.223-3.28a2.26 2.26 0 01-1.657.69c-.645 0-1.204-.236-1.675-.708-.473-.472-.709-1.03-.709-1.675s.23-1.203.691-1.675a2.273 2.273 0 011.692-.708c.668 0 1.232.236 1.693.708.46.472.69 1.03.69 1.675s-.241 1.209-.725 1.692zm.207 20.548V11.87h-3.73v17.268h3.73zm14.091-17.717c2.372 0 4.398.88 6.079 2.642 1.68 1.761 2.521 3.909 2.521 6.441 0 2.556-.841 4.709-2.521 6.458-1.681 1.75-3.707 2.625-6.079 2.625-2.624 0-4.639-.967-6.043-2.9v9.358h-3.73V11.87h3.73v2.487c1.404-1.957 3.419-2.936 6.043-2.936zm-4.489 13.055c1.036 1.036 2.336 1.554 3.902 1.554 1.566 0 2.867-.524 3.903-1.571 1.036-1.048 1.554-2.366 1.554-3.955 0-1.588-.518-2.906-1.554-3.954s-2.337-1.572-3.903-1.572c-1.566 0-2.866.524-3.902 1.572-1.037 1.048-1.554 2.366-1.554 3.954 0 1.589.517 2.913 1.554 3.972zm19.409-2.383c.276 1.313.909 2.32 1.899 3.022.991.702 2.199 1.053 3.627 1.053 1.98 0 3.465-.714 4.455-2.141l3.074 1.796c-1.704 2.51-4.225 3.764-7.564 3.764-2.809 0-5.077-.857-6.804-2.573-1.726-1.715-2.59-3.885-2.59-6.51 0-2.578.852-4.737 2.556-6.476 1.704-1.738 3.891-2.607 6.562-2.607 2.533 0 4.61.887 6.234 2.66 1.623 1.772 2.434 3.925 2.434 6.458 0 .391-.045.91-.138 1.554h-13.745zm-.035-3.04h10.154c-.253-1.404-.835-2.463-1.744-3.177-.91-.713-1.974-1.07-3.194-1.07-1.382 0-2.533.38-3.454 1.14-.921.76-1.508 1.795-1.762 3.108zm20.747 6.529v.47h-1.535v4.53h-.5v-4.53h-1.536v-.47h3.571zm5.286 0v5h-.5v-4.243l-1.75 2.928h-.071l-1.751-2.928v4.243h-.499v-5h.621l1.665 2.785 1.664-2.785h.621z" fill="#FF5934"/></svg>