<svg width="338" height="337" viewBox="0 0 338 337" fill="none" xmlns="http://www.w3.org/2000/svg"><g filter="url(#filter0_d)" fill-rule="evenodd" clip-rule="evenodd"><path d="M169 257c49.153 0 89-39.623 89-88.5S218.153 80 169 80s-89 39.623-89 88.5 39.847 88.5 89 88.5z" fill="url(#paint0_linear)"/><path d="M164.451 110.588c-5.326.64-9.875 2.862-13.684 6.635-2.719 2.696-5.378 5.45-8.073 8.17a584.23 584.23 0 01-4.168 4.163c-1.462 1.449-2.943 2.88-4.399 4.339-1.349 1.353-2.663 2.741-4.01 4.097-2.092 2.105-4.215 4.184-6.295 6.3-1.62 1.65-3.194 3.346-4.793 5.016-.938.98-1.946 1.895-2.815 2.932-3.793 4.496-5.588 9.746-5.645 16.728-.17 2.665.928 6.131 2.527 9.426.854 1.759 2.015 3.374 3.145 4.978.775 1.099 1.34 1.091 2.377.242.195-.156.364-.346.537-.527 1.01-1.058 2.013-2.12 3.024-3.171 1.468-1.522 2.947-3.027 4.405-4.554 1.527-1.599 3.025-3.228 4.55-4.828.728-.763 1.501-1.482 2.226-2.245 1.56-1.643 3.084-3.323 4.654-4.953 1.532-1.594 3.116-3.135 4.654-4.717 1.718-1.774 3.394-3.59 5.119-5.356 1.582-1.617 3.23-3.173 4.809-4.794 2.073-2.13 4.093-4.307 6.161-6.443 1.26-1.304 2.571-2.555 3.841-3.848 1.73-1.755 3.43-3.545 5.166-5.294 1.487-1.498 3.028-2.945 4.518-4.442 3.334-3.349 6.653-6.716 9.974-10.081.212-.214.412-.445.6-.68.804-1.009.872-1.24-.126-1.968-1.578-1.151-3.182-2.334-4.932-3.157-3.192-1.501-6.526-2.175-9.966-2.175-1.117 0-2.244.07-3.381.207zm29.301 21.683c-3.11.116-5.802 1.08-7.827 3.564-.158.194-.355.355-.537.528-1.805 1.748-3.622 3.48-5.415 5.241-1.864 1.831-3.697 3.692-5.553 5.534-1.534 1.525-3.087 3.031-4.613 4.563-1.597 1.604-3.151 3.248-4.758 4.84-1.677 1.663-3.406 3.271-5.089 4.927-2.04 2.007-4.056 4.037-6.082 6.059-3.745 3.732-7.489 7.461-11.234 11.196-4.954 4.939-9.904 9.885-14.865 14.821-.94.938-.976 1.064.009 2.054 2.375 2.399 4.773 4.772 7.153 7.163 1.46 1.469 3.181 2.472 5.223 2.83 1.947.341 3.912.359 5.829-.192 1.407-.404 2.746-.982 3.829-2.025 1.961-1.883 3.914-3.767 5.874-5.644 1.381-1.322 2.79-2.614 4.151-3.953 2.723-2.679 5.409-5.395 8.137-8.067 2.226-2.181 4.497-4.321 6.737-6.487 3.073-2.971 6.137-5.954 9.2-8.931 2.889-2.804 5.771-5.615 8.663-8.414 1.268-1.224 2.45-1.095 3.363.361 1.652 2.635 2.576 5.493 2.195 8.623-.32 2.643-1.25 5.118-3.098 7.079-2.134 2.269-4.399 4.414-6.617 6.599-1.578 1.553-3.185 3.073-4.758 4.631-2.033 2.012-4.049 4.045-6.067 6.072-.317.323-.607.672-.919 1-.664.685-1.324 1.374-2.003 2.049-1.495 1.486-3.014 2.95-4.499 4.449-1.589 1.605-3.149 3.242-4.724 4.862-.138.144-.304.262-.45.401-1.692 1.643-3.388 3.283-5.077 4.932-.789.769-1.558 1.561-2.337 2.342-1.347 1.351-2.722 2.676-4.031 4.065-.786.834-.779 1.343.153 2 1.597 1.125 3.203 2.304 4.961 3.125 4.342 2.03 8.945 2.484 13.696 1.938 4.768-.547 8.899-2.51 12.447-5.617 2.609-2.283 4.95-4.868 7.406-7.326 1.815-1.814 3.619-3.64 5.431-5.459l5.116-5.122c1.561-1.564 3.112-3.143 4.688-4.691 1.755-1.724 3.555-3.404 5.299-5.136 1.785-1.771 3.564-3.551 5.277-5.389 2.119-2.278 3.141-3.45 3.905-4.582.755-1.113 3.35-5.155 4.018-11.084.337-2.992.051-5.286-.037-5.922-.15-1.104-.801-5.265-3.737-9.801-1.089-1.684-1.651-2.394-4.959-5.666-4.904-4.851-9.797-9.717-14.594-14.674-2.354-2.433-5.069-3.676-8.367-3.676-.17 0-.34.003-.513.01z" fill="#fff"/></g><defs><linearGradient id="paint0_linear" x1="45.601" y1="156.672" x2="157.88" y2="291.135" gradientUnits="userSpaceOnUse"><stop stop-color="#FF3E3E"/><stop offset="1" stop-color="#FFA416"/></linearGradient><filter id="filter0_d" x="0" y="0" width="338" height="337" filterUnits="userSpaceOnUse" color-interpolation-filters="sRGB"><feFlood flood-opacity="0" result="BackgroundImageFix"/><feColorMatrix in="SourceAlpha" values="0 0 0 0 0 0 0 0 0 0 0 0 0 0 0 0 0 0 127 0"/><feOffset/><feGaussianBlur stdDeviation="40"/><feColorMatrix values="0 0 0 0 1 0 0 0 0 0.340766 0 0 0 0 0.113725 0 0 0 0.261691 0"/><feBlend in2="BackgroundImageFix" result="effect1_dropShadow"/><feBlend in="SourceGraphic" in2="effect1_dropShadow" result="shape"/></filter></defs></svg>