<svg width="20" height="20" viewBox="0 0 20 20" fill="none" xmlns="http://www.w3.org/2000/svg"><g fill-rule="evenodd" clip-rule="evenodd"><path d="M10 19.888c5.523 0 10-4.452 10-9.944C20 4.452 15.523 0 10 0S0 4.452 0 9.944c0 5.492 4.477 9.944 10 9.944z" fill="url(#paint0_linear)"/><path d="M9.489 3.437a2.561 2.561 0 00-1.538.745c-.305.303-.604.613-.907.918a65.77 65.77 0 01-.468.468c-.165.163-.33.324-.494.488-.152.152-.3.308-.451.46-.235.237-.474.47-.707.708-.182.185-.36.376-.539.563-.105.11-.219.213-.316.33-.426.505-.628 1.095-.634 1.88-.02.299.104.688.283 1.059.096.197.227.379.354.559.087.123.15.123.267.027.022-.018.04-.039.06-.06l.34-.356c.165-.17.331-.34.495-.511.172-.18.34-.363.511-.543.082-.085.169-.166.25-.252.176-.185.347-.373.523-.556.172-.18.35-.353.523-.53.193-.2.381-.404.575-.602.178-.182.363-.357.54-.539.234-.24.46-.484.693-.724.141-.146.289-.287.432-.432.194-.197.385-.398.58-.595.167-.168.34-.33.508-.499.374-.376.747-.755 1.12-1.133a.958.958 0 00.068-.076c.09-.114.098-.14-.014-.221-.178-.13-.358-.263-.555-.355a2.596 2.596 0 00-1.12-.244c-.125 0-.252.008-.38.023zm3.292 2.436c-.35.013-.652.122-.88.4-.017.022-.04.04-.06.06-.202.196-.407.391-.608.589-.21.206-.415.415-.624.622-.172.17-.347.34-.518.512-.18.18-.354.365-.535.544-.188.187-.383.368-.572.554-.229.225-.455.453-.683.68l-1.262 1.258-1.67 1.666c-.106.105-.11.12 0 .23.267.27.537.537.804.805.164.165.358.278.587.318.219.039.44.04.655-.021a.996.996 0 00.43-.228l.66-.634c.155-.148.314-.293.467-.444.306-.301.607-.606.914-.907.25-.245.505-.485.757-.728l1.034-1.004.973-.945c.142-.138.275-.123.378.04.185.296.29.618.246.97-.035.296-.14.574-.348.795-.24.255-.494.496-.743.741-.178.175-.358.345-.535.52-.228.226-.455.455-.681.683-.036.036-.069.075-.104.112a16.21 16.21 0 01-.225.23c-.168.167-.338.332-.505.5-.179.18-.354.364-.531.546-.016.017-.034.03-.05.046-.19.184-.381.368-.571.554-.089.086-.175.175-.263.263-.151.152-.305.3-.453.457-.088.093-.087.15.018.224.18.127.36.26.557.351.488.229 1.005.28 1.539.218.536-.061 1-.282 1.398-.631.294-.256.557-.547.833-.823l.61-.614.575-.575c.175-.176.35-.353.526-.527.197-.194.4-.383.596-.577.2-.2.4-.4.593-.606.238-.256.353-.387.438-.514a2.819 2.819 0 00.448-1.911 2.749 2.749 0 00-.42-1.101c-.123-.19-.186-.27-.557-.637a105.9 105.9 0 01-1.64-1.649c-.265-.273-.57-.413-.94-.413l-.058.001z" fill="#fff"/></g><defs><linearGradient id="paint0_linear" x1="-3.865" y1="8.615" x2="8.751" y2="23.723" gradientUnits="userSpaceOnUse"><stop stop-color="#FF3E3E"/><stop offset="1" stop-color="#FFA416"/></linearGradient></defs></svg>