<svg width="601" height="400" viewBox="0 0 601 400" fill="none" xmlns="http://www.w3.org/2000/svg"><path d="M64.935 246.981c1.793 1.034 4.703 1.034 6.497 0 1.793-1.034 1.793-2.715 0-3.752-1.794-1.034-4.704-1.034-6.497 0-1.793 1.037-1.793 2.718 0 3.752zm15.897 9.178c1.793 1.034 4.703 1.034 6.496 0 1.793-1.034 1.793-2.715 0-3.752-1.793-1.034-4.703-1.034-6.496 0-1.793 1.037-1.793 2.718 0 3.752zm15.9 9.178c1.793 1.034 4.703 1.034 6.496 0 1.794-1.034 1.794-2.715 0-3.752-1.793-1.034-4.703-1.034-6.496 0-1.797 1.037-1.797 2.718 0 3.752zm22.393 5.426c-1.796-1.034-4.703-1.034-6.496 0-1.794 1.034-1.794 2.715 0 3.752 1.796 1.034 4.703 1.034 6.496 0 1.797-1.034 1.797-2.715 0-3.752zm-70.087-14.604c1.794 1.034 4.704 1.034 6.497 0 1.796-1.034 1.796-2.715 0-3.752-1.793-1.034-4.703-1.034-6.497 0-1.793 1.037-1.793 2.718 0 3.752zm15.897 9.178c1.793 1.034 4.703 1.034 6.497 0 1.793-1.034 1.793-2.715 0-3.752-1.794-1.034-4.704-1.034-6.497 0-1.793 1.037-1.793 2.718 0 3.752zm15.897 9.178c1.796 1.034 4.703 1.034 6.496 0 1.793-1.034 1.793-2.715 0-3.752-1.793-1.034-4.703-1.034-6.496 0-1.793 1.037-1.793 2.718 0 3.752zm22.396 5.429c-1.793-1.034-4.703-1.037-6.496 0-1.793 1.034-1.793 2.715 0 3.749 1.793 1.034 4.703 1.034 6.496 0 1.794-1.034 1.794-2.715 0-3.749zm-70.09-14.607c1.797 1.034 4.704 1.034 6.497 0 1.793-1.034 1.793-2.715 0-3.752-1.797-1.034-4.703-1.034-6.497 0-1.793 1.037-1.793 2.718 0 3.752zm15.9 9.178c1.794 1.034 4.704 1.034 6.497 0 1.796-1.034 1.796-2.715 0-3.752-1.793-1.034-4.703-1.034-6.497 0-1.793 1.037-1.793 2.718 0 3.752zm15.897 9.178c1.793 1.034 4.703 1.034 6.497 0 1.793-1.034 1.793-2.714 0-3.749-1.794-1.037-4.704-1.037-6.497 0-1.793 1.035-1.793 2.715 0 3.749zm19.148 9.957c2.538 0 4.594-1.187 4.594-2.651 0-1.465-2.056-2.652-4.594-2.652-2.537 0-4.594 1.187-4.594 2.652 0 1.464 2.057 2.651 4.594 2.651zM20.49 275.291c2.537 0 4.594-1.187 4.594-2.652 0-1.464-2.057-2.652-4.594-2.652-2.537 0-4.594 1.188-4.594 2.652 0 1.465 2.057 2.652 4.594 2.652zm12.652 8.402c1.793 1.034 4.703 1.034 6.496 0 1.793-1.034 1.793-2.714 0-3.752-1.793-1.034-4.703-1.034-6.496 0-1.797 1.038-1.797 2.718 0 3.752zm15.896 9.182c1.794 1.034 4.704 1.034 6.497 0 1.796-1.038 1.796-2.715 0-3.752-1.793-1.035-4.703-1.035-6.497 0-1.793 1.034-1.793 2.714 0 3.752zm22.394 5.426c-1.794-1.035-4.704-1.035-6.497 0-1.793 1.034-1.793 2.714 0 3.752 1.793 1.034 4.703 1.034 6.497 0 1.796-1.038 1.796-2.718 0-3.752zm-63.591-18.36c-1.793-1.034-4.703-1.034-6.496 0-1.793 1.038-1.793 2.715 0 3.752 1.793 1.034 4.703 1.034 6.496 0 1.797-1.034 1.797-2.714 0-3.752zm15.9 9.182c-1.793-1.035-4.703-1.035-6.496 0-1.793 1.034-1.793 2.714 0 3.752 1.793 1.034 4.703 1.034 6.496 0 1.794-1.038 1.794-2.718 0-3.752zm15.897 9.178c-1.793-1.035-4.703-1.035-6.496 0-1.794 1.034-1.794 2.714 0 3.752 1.793 1.034 4.703 1.034 6.496 0 1.793-1.034 1.793-2.718 0-3.752zm15.897 9.178c-1.793-1.035-4.703-1.035-6.497 0-1.793 1.034-1.793 2.714 0 3.752 1.797 1.034 4.704 1.034 6.497 0 1.796-1.038 1.796-2.718 0-3.752z" fill="#E8ECF7"/><path d="M573.438 196.871c0 2.735-1.939 3.852-4.306 2.486l-118.745-68.559c-2.366-1.365-4.305-4.723-4.305-7.457V23.903c0-2.734 1.939-3.851 4.305-2.486l118.745 68.559c2.367 1.366 4.306 4.723 4.306 7.458v99.437z" fill="#F6F6FB"/><path d="M572.006 199.732l.003.003.06-.033c-.023.013-.043.02-.063.03z" fill="#CED3F8"/><path d="M572.722 87.904L453.974 19.35c-1.174-.676-2.241-.742-3.02-.305l-.01.007c-.01.003-.016.01-.023.013l-3.553 2.052c.779-.438 1.846-.372 3.019.305L569.132 89.98c2.367 1.366 4.306 4.724 4.306 7.458v99.437c0 1.31-.448 2.241-1.17 2.715l3.327-1.919-.003-.003c.875-.405 1.432-1.399 1.432-2.861V95.369c.003-2.741-1.936-6.096-4.302-7.465z" fill="url(#paint0_linear)"/><path d="M569.132 89.976L450.387 21.421c-2.366-1.366-4.305-.249-4.305 2.486v4.763l127.356 73.53v-4.766c0-2.735-1.939-6.09-4.306-7.458z" fill="#FFAD02"/><path d="M450.52 24.407l3.391 1.959v3.915l-3.391-1.96v-3.914zm6.639 3.835l3.387 1.956v3.914l-3.387-1.959v-3.911zm6.639 3.832l3.387 1.955v3.915l-3.387-1.956v-3.914z" fill="#fff"/><path d="M481.057 58.74l-25.834-14.916v-4.75l25.834 14.916v4.75zm87.475 63.984L463.798 62.256v-2.373l104.734 60.468v2.373zm0 5.595L450.987 60.453V58.08l117.545 67.863v2.376zm0 5.592L450.987 66.045v-2.373l117.545 67.865v2.374zm0 5.595L450.987 71.64v-2.373l117.545 67.862v2.377zm0 5.592L450.987 77.231v-2.373l117.545 67.866v2.374zm0 5.594L450.987 82.826v-2.373l117.545 67.863v2.376zm0 5.592L450.987 88.418v-2.373l117.545 67.866v2.373zm0 5.595L450.987 94.013V91.64l117.545 67.863v2.376zm0 5.592L450.987 99.605v-2.373l117.545 67.866v2.373z" fill="#FFAD02"/><path d="M512.018 140.437L450.987 105.2v-2.373l61.031 35.237v2.373z" fill="#807DFB"/><path d="M563.746 191.72c-1.005-.58-2.032-1.498-2.393-2.797l-1.29-4.163c-.653-2.075 1.077-2.778 2.125-2.867l-2.025-5.227a4.58 4.58 0 01-2.553-.581 3.834 3.834 0 01-1.581-1.74l-2.018-4.08c-1.011-2.028.275-3.44 1.137-3.924l-2.871-4.972c-.633.361-1.819.669-2.9.043-.381-.222-.749-.557-1.077-1.048l-2.609-3.719c-1.306-1.849-.543-3.868.067-4.719l-3.521-4.379c-.517.719-1.654 1.641-2.887.931a2.855 2.855 0 01-.669-.55l-3.02-3.109c-1.508-1.535-1.322-4.03-1.004-5.191l-3.934-3.487c-.295 1.098-1.187 2.748-2.891 1.741l-3.222-2.271c-1.607-1.127-2.015-3.924-2.011-5.316l-4.077-2.354c-.004 1.389-.421 3.709-2.026 2.98 0 .007-2.389-1.051-3.616-1.511-1.355-.915-2.187-3.458-2.469-4.846l-3.941-1.058c.278 1.359.437 3.65-.607 3.978a31.604 31.604 0 00-4.077-.418c-1.229-.709-2.356-2.933-2.867-4.249l-.291.026v-7.328c0-3.398-2.41-7.567-5.35-9.268l-47.19-27.246v44.346c0 2.735 1.939 6.089 4.306 7.458l48.237 27.849v-6.085c4.952-4.873 12.913-5.294 21.879-.116 11.147 6.436 20.697 19.705 24.817 33.162l20.451 11.806c.222.03.437.07.626.12l-1.044-5.135a6.994 6.994 0 01-1.614-.686z" fill="#DAE0F5"/><path d="M226.096 186.059c-2.118-1.223-4.899-1.833-7.676-1.833h-24.876v12.536h24.876c2.777 0 5.555-.614 7.676-1.837 2.122-1.226 3.182-2.827 3.182-4.431 0-1.605-1.057-3.209-3.182-4.435z" fill="url(#paint1_linear)"/><path d="M323.038 154.922c-2.118-1.223-4.899-1.833-7.677-1.833h-67.879v12.536h67.876c2.778 0 5.555-.614 7.677-1.837 2.121-1.226 3.182-2.827 3.182-4.431.003-1.608-1.058-3.212-3.179-4.435z" fill="url(#paint2_linear)"/><path d="M271.201 170.49c-2.118-1.223-4.899-1.833-7.676-1.833h-43.01v12.536h43.01c2.777 0 5.555-.613 7.676-1.836 2.122-1.227 3.182-2.828 3.182-4.432 0-1.607-1.06-3.208-3.182-4.435z" fill="url(#paint3_linear)"/><path d="M591.741 289.712a3.3 3.3 0 011.17-.769h5.164l2.158-4.723-1.946-.302c-.59-.089-1.266-.285-1.819-.603-.627-.361-1.091-.885-1.081-1.601a12.15 12.15 0 00-.007-1.879c-.043-1.349 1.608-2.009 2.861-2.204l1.949-.302-2.211-4.72h-5.161a4.166 4.166 0 01-.49-.235 3.19 3.19 0 01-.693-.534 20.617 20.617 0 00-1.634-1.631c-1.2-1.16-.341-2.21.577-2.744l1.422-.825-5.987-3.458-1.421.826c-.915.533-2.728 1.034-4.734.344a44.7 44.7 0 00-2.824-.941 4.73 4.73 0 01-.924-.401c-1.151-.663-1.21-1.551-.938-2.148l.513-1.123-8.16-1.267-.514 1.127c-.328.726-1.462 1.688-3.792 1.671a61.71 61.71 0 00-3.248-.003c-1.24.01-2.145-.256-2.771-.62-.55-.318-.885-.71-1.047-1.048l-.528-1.13-8.143 1.266.527 1.124c.341.729.192 1.886-1.833 2.546-.958.285-1.896.599-2.814.941-1.996.689-3.812.189-4.737-.342l-1.432-.825-5.95 3.457 1.429.826c.922.533 1.793 1.584.61 2.744a21.402 21.402 0 00-1.618 1.631c-1.13 1.173-3.125 1.266-4.381 1.074l-1.953-.302-2.158 4.72 1.949.302c.587.092 1.267.285 1.817.603.626.361 1.09.885 1.084 1.601-.05.626-.047 1.256.003 1.879.013.494-.199.898-.537 1.217h-13.305v6.012h16.404c.166.067.328.143.484.232a3.2 3.2 0 01.696.537 21.028 21.028 0 001.638 1.631c.228.222.381.438.474.646h-7.727v6.378h11.687v-.259l.975-.567c.915-.533 2.728-1.034 4.736-.341.358.133.723.258 1.088.384v5.496h11.173v-.01l.07.01.517-1.127c.036-.079.086-.162.142-.245v1.375h11.24l8.144-1.263-.527-1.126c-.305-.65-.212-1.645 1.263-2.321h9.552l5.947-3.457-1.429-.825c-.925-.534-1.796-1.584-.61-2.745a20.588 20.588 0 001.621-1.634zm-19.168-2.665c-5.99 3.481-15.741 3.484-21.774.004-6.032-3.484-6.059-9.132-.069-12.612 5.996-3.484 15.744-3.484 21.777 0 6.029 3.48 6.062 9.125.066 12.608z" fill="url(#paint4_linear)"/><path d="M563.961 250.68a1.466 1.466 0 00-.132.606l-.03 10.18c0-.219.053-.425.133-.607l.513-1.124.03-10.179-.514 1.124z" fill="#BBBFE2"/><path d="M536.802 250.68l-.527-1.124-.03 10.179.527 1.124c.086.186.143.401.143.63l.029-10.179c0-.229-.056-.444-.142-.63z" fill="#CED2F4"/><path d="M579.368 257.283c-.594.344-1.164.908-1.164 1.574l-.029 10.179c.003-.669.57-1.23 1.163-1.574l1.422-.826.03-10.179-1.422.826z" fill="#BBBFE2"/><path d="M521.469 257.283l-1.429-.826-.03 10.179 1.429.826c.603.348 1.187.918 1.183 1.597l.03-10.179c.003-.679-.58-1.249-1.183-1.597z" fill="#CED2F4"/><path d="M587.034 267.452c-1.236.192-2.857.838-2.863 2.151l-.03 10.179c.003-1.313 1.624-1.956 2.864-2.151l1.949-.302.029-10.179-1.949.302z" fill="#BBBFE2"/><path d="M584.211 270.673l-.03 10.179c0 .289-.014.577-.034.862l.03-10.179c.024-.288.034-.573.034-.862z" fill="#BBBFE2"/><path d="M516.808 271.336l.004-1.683c.006-.716-.458-1.24-1.084-1.601-.55-.319-1.23-.511-1.817-.604l-1.949-.301-.029 10.179 1.949.301c.586.093 1.266.285 1.816.604.53.305.941.729 1.051 1.289l-.004 1.19c0 .335.014.67.037 1.004l.03-10.179c0-.066 0-.132-.004-.199z" fill="#CED2F4"/><path d="M516.815 271.585l-.03 10.179v-.053l.03-10.179v.053z" fill="#242D3C"/><path d="M589.023 274.041l-.03 10.176-2.158 4.726.03-10.179 2.158-4.723z" fill="#BBBFE2"/><path d="M514.216 278.764l-.029 10.179-2.208-4.723.027-10.179 2.21 4.723z" fill="#CED2F4"/><path d="M584.913 278.459c-1.256-.192-3.255-.102-4.385 1.074a20.354 20.354 0 01-1.618 1.631c-.411.401-.573.789-.573 1.147l-.03 10.179c0-.358.166-.746.574-1.147.59-.53 1.126-1.074 1.617-1.631 1.13-1.176 3.129-1.266 4.385-1.074l1.952.305.03-10.179-1.952-.305z" fill="url(#paint5_linear)"/><path d="M522.198 281.164a20.516 20.516 0 01-1.638-1.631 3.225 3.225 0 00-.696-.537c-1.15-.663-2.678-.696-3.705-.537l-1.943.305-.029 10.179 1.942-.304c1.027-.16 2.555-.126 3.706.536.251.146.487.322.696.537a21.01 21.01 0 001.637 1.631c.421.408.59.802.587 1.167l.029-10.179c0-.365-.165-.759-.586-1.167z" fill="url(#paint6_linear)"/><path d="M580.949 284.731l-.03 10.179-5.947 3.457.027-10.179 5.95-3.457z" fill="#BBBFE2"/><path d="M526.185 288.188l-.029 10.179-5.987-3.457.03-10.179 5.986 3.457z" fill="#CED2F4"/><path d="M573.567 287.362c-.925-.53-2.738-1.03-4.736-.338-.915.342-1.853.657-2.814.942-1.505.49-1.976 1.256-1.976 1.915l-.03 10.18c.004-.66.471-1.426 1.976-1.916.961-.289 1.899-.6 2.814-.942 1.995-.692 3.812-.192 4.736.338l1.432.826.03-10.179-1.432-.826z" fill="url(#paint7_linear)"/><path d="M536.089 288.363a4.949 4.949 0 00-.928-.401c-.961-.285-1.899-.6-2.817-.941-2.009-.693-3.822-.189-4.737.341l-1.422.826-.029 10.179 1.421-.826c.915-.533 2.728-1.034 4.737-.341.918.341 1.856.656 2.817.941.368.12.677.256.928.401.803.464 1.074 1.035 1.074 1.542l.03-10.179c0-.504-.272-1.078-1.074-1.542z" fill="url(#paint8_linear)"/><path d="M564.714 291.635l-.03 10.179-8.144 1.263.03-10.176 8.144-1.266z" fill="#BBBFE2"/><path d="M556.04 291.771c-.159-.342-.494-.733-1.044-1.051-.627-.361-1.528-.626-2.771-.616a62.852 62.852 0 01-3.249-.004c-2.327-.016-3.457.945-3.792 1.671l-.517 1.127-.03 10.179.518-1.127c.334-.726 1.465-1.687 3.791-1.671 1.084.03 2.171.03 3.249.004 1.239-.01 2.144.255 2.771.616.55.318.885.709 1.044 1.051l.527 1.127.03-10.179-.527-1.127z" fill="url(#paint9_linear)"/><path d="M579.52 283.909l1.425.825-5.946 3.457-1.432-.825c-.925-.531-2.738-1.031-4.736-.338a43.36 43.36 0 01-2.814.941c-2.026.659-2.175 1.816-1.833 2.542l.527 1.127-8.144 1.263-.527-1.127c-.159-.341-.494-.733-1.044-1.051-.627-.361-1.528-.626-2.771-.616a62.852 62.852 0 01-3.249-.004c-2.327-.016-3.457.945-3.792 1.671l-.517 1.127-8.16-1.263.517-1.13c.268-.597.209-1.478-.941-2.141a4.94 4.94 0 00-.928-.401c-.962-.285-1.9-.6-2.818-.942-2.008-.693-3.822-.189-4.736.342l-1.422.825-5.986-3.457 1.421-.825c.915-.534 1.777-1.585.577-2.745a20.667 20.667 0 01-1.637-1.631 3.242 3.242 0 00-.696-.537c-1.15-.663-2.678-.696-3.706-.537l-1.942.305-2.211-4.723 1.946-.302c1.252-.195 2.903-.855 2.863-2.207a11.906 11.906 0 01-.003-1.879c.007-.716-.457-1.24-1.084-1.601-.55-.319-1.23-.511-1.816-.604l-1.949-.301 2.158-4.72 1.952.301c1.256.193 3.251.103 4.382-1.074.49-.556 1.031-1.1 1.617-1.634 1.187-1.16.315-2.21-.61-2.744l-1.428-.825 5.946-3.458 1.432.826c.922.533 2.738 1.031 4.737.341a44.615 44.615 0 012.814-.941c2.025-.66 2.174-1.817 1.833-2.546l-.527-1.123 8.144-1.267.527 1.131c.159.341.497.729 1.047 1.047.626.361 1.531.63 2.771.62a61.71 61.71 0 013.248.003c2.327.017 3.461-.944 3.792-1.67l.517-1.127 8.161 1.266-.517 1.124c-.272.596-.213 1.481.938 2.147.252.146.556.282.924.401.962.286 1.903.6 2.824.942 2.006.689 3.819.189 4.734-.345l1.422-.825 5.986 3.457-1.422.825c-.915.534-1.777 1.585-.577 2.745.59.53 1.137 1.074 1.634 1.63.206.213.441.388.693.534 1.15.663 2.681.696 3.709.537l1.942-.302 2.211 4.72-1.949.302c-1.253.196-2.904.855-2.86 2.204.049.623.053 1.253.006 1.88-.01.716.454 1.239 1.081 1.601.55.318 1.229.51 1.819.603l1.946.301-2.158 4.724-1.952-.305c-1.256-.193-3.255-.103-4.385 1.074a20.181 20.181 0 01-1.618 1.63c-1.176 1.167-.305 2.218.62 2.752zm-39.931-7.037c6.033 3.483 15.784 3.48 21.774-.004 5.996-3.483 5.963-9.128-.07-12.612-6.032-3.483-15.78-3.483-21.777 0-5.989 3.484-5.959 9.132.073 12.616z" fill="#F0F0F5"/><path d="M544.671 292.901l-.03 10.176-8.161-1.263.03-10.179 8.161 1.266z" fill="#CED2F4"/><path d="M579.484 261.237h-29.122v18.233h29.122v-18.233z" fill="url(#paint10_linear)"/><path d="M565.791 278.38c-8.432 4.899-22.155 4.905-30.646.003-4.034-2.33-6.156-5.346-6.374-8.399-.266 3.414 1.859 6.881 6.374 9.486 8.488 4.903 22.214 4.896 30.646-.003 4.432-2.575 6.52-5.986 6.278-9.357-.235 3.01-2.327 5.973-6.278 8.27z" fill="url(#paint11_linear)"/><path d="M561.197 262.755c-5.989-3.457-15.671-3.47-21.624-.01-5.293 3.076-7.047 8.485-1.684 12.9a12.983 12.983 0 011.684-1.166c5.953-3.461 15.635-3.458 21.624 0 .656.377 1.24.785 1.754 1.213 5.104-4.369 3.603-9.845-1.754-12.937z" fill="#807EF1"/><path d="M565.695 260.63c-8.489-4.902-22.211-4.905-30.65 0-4.425 2.572-6.513 5.986-6.274 9.357.218 3.053 2.34 6.069 6.373 8.399 8.489 4.903 22.215 4.896 30.647-.003 3.954-2.297 6.046-5.26 6.278-8.266.265-3.414-1.86-6.882-6.374-9.487zm-26.122 2.615c5.953-3.46 15.635-3.457 21.624 0 3.245 1.873 4.737 4.379 4.481 6.832-.218 2.071-1.683 4.107-4.411 5.694-5.95 3.457-15.632 3.461-21.621.003-2.765-1.597-4.256-3.652-4.482-5.74-.261-2.443 1.207-4.929 4.409-6.789z" fill="#E0E0EB"/><path d="M572.069 270.113c.265-3.411-1.859-6.878-6.374-9.483a22.026 22.026 0 00-.888-.484h-14.448v.504c3.917 0 7.839.862 10.835 2.595 3.245 1.873 4.737 4.379 4.481 6.832-.218 2.071-1.683 4.106-4.411 5.694-3.003 1.744-6.954 2.605-10.905 2.592v.023h15.429c3.954-2.303 6.046-5.266 6.281-8.273z" fill="url(#paint12_linear)"/><path d="M539.944 254.773c5.751-3.341 15.098-3.341 20.882 0 3.136 1.81 4.574 4.23 4.326 6.596-.209 2.002-1.628 3.968-4.263 5.499-5.744 3.338-15.098 3.341-20.882 0-2.671-1.541-4.11-3.526-4.325-5.545-.246-2.353 1.17-4.753 4.262-6.55z" fill="#807EF1"/><path d="M564.369 258.048c.64 1.074.905 2.204.786 3.321-.212 2.002-1.628 3.968-4.263 5.499-5.744 3.338-15.098 3.341-20.881 0-2.672-1.541-4.111-3.527-4.326-5.545-.119-1.12.143-2.251.782-3.325-1.017 1.316-1.455 2.752-1.306 4.167.222 2.091 1.714 4.146 4.482 5.741 5.989 3.457 15.674 3.453 21.621-.004 2.728-1.584 4.193-3.619 4.411-5.694.15-1.409-.288-2.841-1.306-4.16z" fill="url(#paint13_linear)"/><path d="M565.698 261.489c.01.242.007.484-.019.726-.219 2.071-1.684 4.106-4.412 5.694-5.95 3.457-15.632 3.461-21.621.003-2.764-1.597-4.256-3.652-4.481-5.74a5.135 5.135 0 01-.024-.68h-.006v8.091c.003.149.013.298.026.451.222 2.091 1.714 4.146 4.482 5.741 5.989 3.457 15.674 3.453 21.621-.004 2.727-1.584 4.192-3.619 4.411-5.694.017-.166.027-.332.027-.497h.003v-8.091h-.007z" fill="url(#paint14_linear)"/><path d="M476.908 202.128l-15.768 9.161-.016.01 15.767-9.161a.085.085 0 00.017-.01z" fill="#18C3CA"/><path d="M474.995 229.201l15.767-9.161c-.407.235-.742.58-.964.888l-15.768 9.162c.222-.309.557-.65.965-.889z" fill="#A5ACD4"/><path d="M471.154 186.175l-15.768 9.161a3.197 3.197 0 01-1.306.398l15.768-9.161a3.217 3.217 0 001.306-.398z" fill="#F0F0F5"/><path d="M486.801 239.53l15.768-9.162c-.643.375-1.067 1.276-1.256 1.966l-15.768 9.161c.189-.689.613-1.591 1.256-1.965z" fill="#A5ACD4"/><path d="M467.998 170.842l-15.768 9.161c-.649.378-1.66.282-2.36.096l15.768-9.161c.699.185 1.71.282 2.36-.096z" fill="#F0F0F5"/><path d="M498.558 246.842l15.768-9.162c-.617.56-.812 1.916-.816 2.851l-15.767 9.161c.003-.934.199-2.29.815-2.85z" fill="#A5ACD4"/><path d="M448.777 165.446l15.767-9.162c.832.481 2.151 1.014 2.947.726l-15.768 9.161c-.792.289-2.111-.245-2.946-.725z" fill="#F0F0F5"/><path d="M509.874 250.637l15.768-9.162c-.438.822-.289 2.443-.077 3.497l-15.767 9.162c-.212-1.058-.361-2.675.076-3.497z" fill="#A5ACD4"/><path d="M450.878 152.774l15.767-9.162c.431.382 1.008.826 1.595 1.164.557.321 1.123.55 1.581.537l-15.768 9.161c-.457.01-1.024-.215-1.581-.54a10.493 10.493 0 01-1.594-1.16z" fill="#F0F0F5"/><path d="M520.196 250.494l15.767-9.161c-.262 1.05.255 2.887.69 4.02l-15.768 9.162c-.437-1.134-.951-2.97-.689-4.021z" fill="#A5ACD4"/><path d="M456.022 142.946l15.768-9.161c.626.775 1.63 1.826 2.545 2.356.246.143.487.246.71.295l-15.768 9.162a2.552 2.552 0 01-.709-.295c-.915-.527-1.919-1.581-2.546-2.357z" fill="#F0F0F5"/><path d="M463.871 136.639l15.768-9.162c.626 1.087 1.81 2.761 2.89 3.388l-15.767 9.161c-1.081-.623-2.261-2.3-2.891-3.387z" fill="#E2E4F7"/><path d="M528.777 246.474l15.768-9.162c-.086 1.233.822 3.202 1.475 4.336l-15.768 9.161c-.656-1.133-1.561-3.102-1.475-4.335z" fill="#BBBFE2"/><path d="M466.761 140.026l15.768-9.161c1.501-.352 2.771-.746 4.103-1.021l-15.767 9.161c-1.329.275-2.599.67-4.104 1.021z" fill="#F0F0F5"/><path d="M531.88 243.487l15.767-9.161a22.55 22.55 0 01-3.102 2.986l-15.768 9.162a22.509 22.509 0 003.103-2.987z" fill="#A5ACD4"/><path d="M470.344 134.58l15.768-9.165 3.533-.305-15.767 9.165-3.534.305z" fill="#F5F5FA"/><path d="M537.256 243.269l15.767-9.162-2.051 2.877-15.768 9.162 2.052-2.877z" fill="#A5ACD4"/><path d="M535.015 238.847l15.768-9.162c.106 1.409 1.392 3.368 2.237 4.422l-15.767 9.162c-.845-1.051-2.132-3.01-2.238-4.422z" fill="#BBBFE2"/><path d="M473.878 134.275l15.767-9.161c.511 1.316 1.641 3.54 2.867 4.249l-15.767 9.162c-1.226-.713-2.353-2.937-2.867-4.25z" fill="#E2E4F7"/><path d="M476.748 138.521l15.768-9.161c1.326.046 2.685.185 4.077.417l-15.768 9.162a32.144 32.144 0 00-4.077-.418z" fill="#F0F0F5"/><path d="M496.752 129.708l-15.768 9.161a.668.668 0 01-.159.07l15.768-9.162a.66.66 0 00.159-.069z" fill="#18C3CA"/><path d="M536.825 234.68l15.768-9.161a30.913 30.913 0 01-1.81 4.166l-15.768 9.162a30.762 30.762 0 001.81-4.167z" fill="#A5ACD4"/><path d="M481.432 134.965l15.767-9.165 3.941 1.06-15.767 9.162-3.941-1.057z" fill="#F0F0F5"/><path d="M485.373 136.022l15.767-9.161c.282 1.388 1.114 3.931 2.47 4.846l-15.768 9.161c-1.355-.915-2.187-3.457-2.469-4.846z" fill="#E2E4F7"/><path d="M541.419 232.407l15.768-9.162-1.064 3.918-15.768 9.161 1.064-3.917z" fill="#A5ACD4"/><path d="M538.486 228.084l15.767-9.161c.259 1.578 1.926 3.431 2.933 4.325l-15.767 9.162c-1.008-.898-2.675-2.748-2.933-4.326z" fill="#D7DBF2"/><path d="M487.842 140.868l15.768-9.162c1.223.461 3.616 1.519 3.616 1.512l-15.768 9.161c0 .007-2.389-1.05-3.616-1.511z" fill="#F0F0F5"/><path d="M539.009 223.331l15.768-9.161a46.617 46.617 0 01-.524 4.75l-15.767 9.161c.245-1.511.424-3.096.523-4.75z" fill="#BBBFE2"/><path d="M508.26 133.231l-15.767 9.162c-.272.159-.614.179-1.035-.013l15.768-9.162c.421.192.762.172 1.034.013z" fill="#F0F0F5"/><path d="M539.341 223.003l15.767-9.161a.905.905 0 00-.331.331l-15.768 9.162a.881.881 0 01.332-.332z" fill="#A5ACD4"/><path d="M493.484 139.4l15.767-9.162 4.077 2.354-15.767 9.161-4.077-2.353z" fill="#F0F0F5"/><path d="M497.561 141.753l15.767-9.162c-.003 1.389.404 4.19 2.012 5.317l-15.767 9.162c-1.611-1.127-2.016-3.925-2.012-5.317z" fill="#E2E4F7"/><path d="M542.47 218.973l15.767-9.162-.013 4.677-15.767 9.165.013-4.68z" fill="#A5ACD4"/><path d="M538.923 214.932l15.768-9.161c.384 1.796 2.413 3.387 3.546 4.04l-15.767 9.162c-1.134-.653-3.162-2.244-3.547-4.041z" fill="#D7DBF2"/><path d="M499.573 147.07l15.767-9.162 3.222 2.271-15.768 9.161-3.221-2.27z" fill="#F0F0F5"/><path d="M538.373 210.199l15.767-9.162c.239 1.591.425 3.173.551 4.734l-15.768 9.161a69.367 69.367 0 00-.55-4.733zm.627-1.11l15.767-9.162c-.355.206-.6.554-.627 1.107l-15.767 9.162c.027-.551.272-.899.627-1.107z" fill="#A5ACD4"/><path d="M520.252 140.301l-15.767 9.162c-.438.255-.998.285-1.694-.123l15.767-9.161c.697.411 1.257.377 1.694.122z" fill="#F0F0F5"/><path d="M535.029 196.221l15.767-9.161 1.289 4.163-15.767 9.162-1.289-4.164z" fill="#BBBFE2"/><path d="M510.623 156.277l15.768-9.161 3.019 3.106-15.767 9.165-3.02-3.11z" fill="#F0F0F5"/><path d="M509.619 151.09l15.767-9.161c-.318 1.16-.5 3.656 1.005 5.19l-15.768 9.162c-1.508-1.535-1.322-4.034-1.004-5.191z" fill="#BBBFE2"/><path d="M505.685 147.6l15.767-9.162 3.934 3.487-15.767 9.165-3.934-3.49z" fill="#F0F0F5"/><path d="M536.318 200.385l15.767-9.162c.362 1.299 1.392 2.217 2.393 2.798a6.76 6.76 0 001.608.679l-15.767 9.162a7.065 7.065 0 01-1.608-.68c-1.001-.58-2.032-1.498-2.393-2.797z" fill="#E2E4F7"/><path d="M540.319 203.862l15.767-9.162 1.044 5.134-15.767 9.162-1.044-5.134z" fill="#BBBFE2"/><path d="M535.847 193.755l15.768-9.161c-.706.411-1.227 1.17-.819 2.466l-15.767 9.161c-.408-1.296.112-2.058.818-2.466z" fill="#A5ACD4"/><path d="M531.996 150.735l-15.768 9.162c-.543.315-1.216.441-1.915.036a2.858 2.858 0 01-.67-.55l15.767-9.161c.223.242.448.424.67.55.699.408 1.372.282 1.916-.037z" fill="#E2E4F7"/><path d="M528.973 181.723l15.767-9.164 2.022 4.083-15.767 9.162-2.022-4.081zm-8.32-13.623l15.768-9.161 2.605 3.719-15.767 9.161-2.606-3.719zm-3.457-9.095l15.768-9.164 3.523 4.378-15.767 9.165-3.524-4.379z" fill="#F0F0F5"/><path d="M520.72 163.384l15.767-9.162c-.607.849-1.372 2.868-.066 4.72l-15.768 9.162c-1.306-1.853-.543-3.872.067-4.72zm14.408 24.74l15.768-9.162 2.025 5.231-15.768 9.161-2.025-5.23z" fill="#BBBFE2"/><path d="M530.995 185.804l15.767-9.162a3.849 3.849 0 001.581 1.74c.915.527 1.926.637 2.552.58l-15.767 9.162a4.565 4.565 0 01-2.552-.583 3.778 3.778 0 01-1.581-1.737z" fill="#E2E4F7"/><path d="M530.083 177.816l15.768-9.162c-.859.501-2.108 1.903-1.107 3.908l-15.768 9.161c-1.001-2.008.246-3.41 1.107-3.907z" fill="#BBBFE2"/><path d="M523.259 171.819l15.767-9.161c.328.491.696.829 1.077 1.047 1.084.627 2.271.315 2.901-.043l-15.768 9.162c-.633.361-1.82.669-2.9.043-.381-.219-.749-.554-1.077-1.048z" fill="#E2E4F7"/><path d="M527.239 172.824l15.768-9.162 2.87 4.972-15.767 9.165-2.871-4.975z" fill="#F0F0F5"/><path d="M542.457 223.653l.013-4.677c-1.134-.653-3.159-2.247-3.547-4.04a69.542 69.542 0 00-.55-4.734c.07-1.564 1.906-1.491 2.99-1.2l-1.044-5.134a7.056 7.056 0 01-1.608-.679c-1.004-.58-2.032-1.499-2.393-2.798l-1.289-4.163c-.653-2.075 1.077-2.778 2.124-2.867l-2.025-5.23a4.568 4.568 0 01-2.552-.584 3.828 3.828 0 01-1.581-1.74l-2.019-4.08c-1.011-2.029.279-3.441 1.137-3.925l-2.87-4.972c-.633.362-1.82.67-2.901.044-.381-.219-.749-.557-1.077-1.048l-2.608-3.719c-1.306-1.849-.544-3.868.066-4.72l-3.52-4.378c-.517.719-1.654 1.64-2.887.931a2.879 2.879 0 01-.67-.55l-3.019-3.109c-1.508-1.535-1.323-4.031-1.005-5.191l-3.934-3.487c-.295 1.097-1.187 2.748-2.89 1.74l-3.222-2.27c-1.608-1.127-2.015-3.925-2.012-5.317l-4.077-2.353c-.003 1.389-.421 3.709-2.025 2.98 0 .006-2.39-1.051-3.616-1.512-1.356-.915-2.188-3.457-2.47-4.846l-3.941-1.057c.279 1.359.438 3.649-.606 3.977a31.458 31.458 0 00-4.077-.417c-1.23-.709-2.357-2.934-2.867-4.249l-3.534.305c.507 1.299 1.107 3.536.521 4.428-1.333.272-2.602.669-4.104 1.021-1.08-.623-2.264-2.301-2.89-3.388l-2.89 1.648c.672 1.166 1.617 3.228 1.465 4.458a21.738 21.738 0 00-3.169 2.853 2.481 2.481 0 01-.709-.295c-.915-.527-1.92-1.581-2.546-2.356l-2.045 2.88c.779.965 1.929 2.708 2.191 4.077a29.886 29.886 0 00-2.115 4.571c-.457.01-1.024-.216-1.581-.537a10.066 10.066 0 01-1.594-1.163l-1.071 3.907c.832.74 2.098 2.115 2.672 3.454a47.078 47.078 0 00-.756 6.036c-.792.288-2.111-.245-2.947-.726l-.013 4.677c.829.477 2.131 1.455 2.927 2.648.116 2.337.364 4.71.732 7.097-.626.53-1.78.434-2.552.232l1.041 5.128a7.015 7.015 0 011.591.679c.471.272.945.617 1.356 1.038a89.952 89.952 0 002.277 7.653c-.421.769-1.376 1.08-2.055 1.137l2.025 5.237c.623-.06 1.634.056 2.784.729a106.43 106.43 0 003.689 7.627c-.192.974-.911 1.66-1.455 1.972l2.87 4.972c.551-.318 1.522-.59 2.48-.239a106.39 106.39 0 004.809 6.997 4.41 4.41 0 01-.775 2.682l3.52 4.378c.391-.547 1.137-1.199 2.015-1.18a91.067 91.067 0 005.605 5.851c.311 1.233.166 2.512-.037 3.248l3.928 3.484c.209-.756.703-1.777 1.462-2.062a69.535 69.535 0 005.93 4.256c.563 1.246.736 2.744.732 3.652l4.077 2.354c.003-.935.196-2.291.816-2.851 1.965.965 3.904 1.774 5.797 2.4.792 1.163 1.299 2.811 1.505 3.835l3.937 1.057c-.212-1.054-.358-2.675.077-3.497 1.803.305 3.546.441 5.233.425.975.961 1.82 2.671 2.241 3.758l3.533-.304c-.434-1.134-.951-2.97-.689-4.021a21.484 21.484 0 004.292-1.412c1.077.633 2.251 2.29 2.877 3.374l2.891-1.647c-.657-1.134-1.562-3.103-1.475-4.339a22.382 22.382 0 003.102-2.986c.245.043.514.152.789.311.915.527 1.916 1.578 2.536 2.347l2.048-2.877c-.845-1.054-2.131-3.013-2.237-4.422a30.784 30.784 0 001.809-4.166c.494-.192 1.22.063 1.929.474.59.341 1.171.785 1.601 1.17l1.064-3.918c-1.007-.895-2.678-2.745-2.933-4.326.249-1.511.424-3.099.524-4.749.57-.981 2.389-.292 3.444.318zm-47.167 2.496c-14.955-8.635-27.044-29.58-26.994-46.759.05-17.193 12.218-24.117 27.173-15.486 14.955 8.635 27.037 29.56 26.987 46.752-.049 17.183-12.211 24.127-27.166 15.493z" fill="#CED2F4"/><path d="M468.296 179.39c-.05 17.179 12.042 38.124 26.994 46.759 11.637 6.718 21.581 4 25.443-5.632-3.007-.411-6.268-1.561-9.676-3.53-14.955-8.634-27.043-29.579-26.994-46.759.01-3.808.62-7.109 1.717-9.854-10.185-1.399-17.447 5.748-17.484 19.016z" fill="url(#paint15_linear)"/><path d="M499.967 228.376a31.602 31.602 0 01-4.677-2.227c-14.955-8.635-27.044-29.58-26.994-46.759.05-17.193 12.218-24.117 27.173-15.486a41.019 41.019 0 014.501 3.036v-19.592l-.398-.278c-1.607-1.127-2.015-3.925-2.012-5.317l-4.076-2.353c-.004 1.388-.421 3.709-2.026 2.979 0 .007-2.389-1.05-3.616-1.511-1.356-.915-2.187-3.457-2.469-4.846l-3.941-1.057c.278 1.359.437 3.649-.607 3.977a31.422 31.422 0 00-4.077-.417c-1.229-.71-2.356-2.934-2.867-4.25l-3.533.305c.507 1.3 1.107 3.537.52 4.428-1.332.272-2.602.67-4.103 1.021-1.081-.623-2.264-2.3-2.891-3.387l-2.89 1.647c.673 1.167 1.618 3.229 1.465 4.458a21.907 21.907 0 00-3.169 2.854 2.522 2.522 0 01-.709-.295c-.915-.527-1.919-1.581-2.546-2.356l-2.045 2.88c.779.964 1.93 2.708 2.191 4.077a29.979 29.979 0 00-2.114 4.571c-.458.01-1.025-.216-1.581-.537a10.125 10.125 0 01-1.595-1.164l-1.07 3.908c.832.739 2.098 2.115 2.671 3.454a47.234 47.234 0 00-.756 6.036c-.792.288-2.111-.246-2.946-.726l-.013 4.677c.828.477 2.131 1.455 2.926 2.648a69.15 69.15 0 00.733 7.097c-.627.53-1.78.434-2.552.232l1.04 5.127a7.05 7.05 0 011.591.68c.471.272.945.616 1.356 1.037a90.598 90.598 0 002.277 7.654c-.421.769-1.375 1.08-2.055 1.136l2.025 5.238c.623-.06 1.634.056 2.785.729a106.006 106.006 0 003.689 7.627c-.193.974-.912 1.66-1.455 1.972l2.87 4.972c.55-.319 1.521-.59 2.479-.239a106.67 106.67 0 004.81 6.997 4.41 4.41 0 01-.776 2.682l3.52 4.378c.391-.547 1.137-1.2 2.016-1.18a91.038 91.038 0 005.605 5.85c.311 1.233.165 2.513-.037 3.249l3.928 3.483c.209-.755.703-1.776 1.462-2.061a69.743 69.743 0 005.929 4.256c.564 1.246.736 2.744.733 3.652l4.077 2.354c.003-.935.195-2.291.815-2.851.471.232.942.454 1.409.666v-19.135z" fill="#F1F1F6" fill-opacity=".4"/><path d="M485.677 257.813c0 3.397-2.409 4.786-5.349 3.089l-179.72-103.76c-2.943-1.7-5.35-5.866-5.35-9.267V12.319c0-3.398 2.407-4.787 5.35-3.09l179.72 103.76c2.943 1.7 5.349 5.87 5.349 9.268v135.556z" fill="#FF5B36"/><path d="M484.365 110.659L304.645 6.899c-1.491-.858-2.84-.925-3.815-.341v-.003l-3.845 2.23h.01c.952-.46 2.218-.354 3.61.448l179.72 103.759c2.943 1.701 5.349 5.87 5.349 9.268v135.553c0 1.687-.596 2.877-1.551 3.444l3.842-2.231h-.01c1.077-.51 1.76-1.74 1.76-3.543V119.926c0-3.397-2.41-7.567-5.35-9.267z" fill="url(#paint16_linear)"/><path d="M480.324 252.596l-179.716-103.76V15.408L480.324 119.17v133.425z" fill="#fff"/><path d="M358.457 333.611c-2.94 1.7-7.756 1.7-10.699 0l-179.72-103.76c-2.94-1.697-2.94-4.478 0-6.178l122.5-70.723c2.94-1.698 7.756-1.698 10.7 0l179.719 103.759c2.944 1.697 2.944 4.478 0 6.175l-122.5 70.727z" fill="#F1F1F6"/><path d="M301.427 167.663l-8.791-5.075 4.396-2.535 8.787 5.071-4.392 2.539zm14.799 8.548l-8.787-5.078 4.392-2.535 8.791 5.074-4.396 2.539zm14.803 8.545l-8.787-5.074 4.395-2.539 8.787 5.078-4.395 2.535zm14.803 8.545l-8.787-5.071 4.395-2.539 8.787 5.075-4.395 2.535zm14.803 8.548l-8.787-5.074 4.395-2.536 8.787 5.075-4.395 2.535zm14.803 8.545l-8.787-5.074 4.392-2.536 8.793 5.071-4.398 2.539zm14.803 8.549l-8.787-5.075 4.395-2.539 8.787 5.075-4.395 2.539zm14.806 8.545l-8.79-5.075 4.395-2.539 8.787 5.078-4.392 2.536zm14.8 8.548l-8.787-5.075 4.395-2.539 8.79 5.075-4.398 2.539zm14.803 8.545l-8.787-5.075 4.395-2.535 8.79 5.071-4.398 2.539zm14.806 8.548l-8.79-5.074 4.395-2.539 8.79 5.074-4.395 2.539zm14.803 8.545l-8.79-5.074 4.395-2.539 8.79 5.078-4.395 2.535zm-170.625-81.416l-15.801-9.125 8.787-5.071 15.804 9.122-8.79 5.074zm-8.174 11.664l-21.816-12.595 8.79-5.075 21.817 12.596-8.791 5.074zm-8.79 12.019l-27.829-16.069 8.79-5.071 27.826 16.065-8.787 5.075zm-29.94 3.397l-15.801-9.121 11.899-6.871 15.801 9.121-11.899 6.871zm21.816 12.596l-15.804-9.122 11.9-6.871 15.803 9.122-11.899 6.871zm21.813 12.595l-15.8-9.121 11.899-6.872 15.801 9.122-11.9 6.871zm75.218 43.428l-15.797-9.125 11.896-6.868 15.804 9.122-11.903 6.871zm36.974 21.346l-30.994-17.896 11.899-6.871 30.995 17.896-11.9 6.871zM343.8 263.381L296.375 236l11.9-6.868 47.425 27.381-11.9 6.868zm-31.22-72.185l-12.933-7.464 8.787-5.075 12.933 7.465-8.787 5.074zm-8.174 11.664l-12.933-7.467 8.79-5.075 12.93 7.464-8.787 5.078zm-8.385 11.784l-12.93-7.465 8.787-5.074 12.933 7.467-8.79 5.072zm18.946 10.938l-12.93-7.465 8.787-5.074 12.933 7.464-8.79 5.075zm18.943 10.938l-12.931-7.465 8.791-5.074 12.93 7.464-8.79 5.075zm18.949 10.941l-12.933-7.467 8.79-5.075 12.93 7.468-8.787 5.074zm18.943 10.938l-12.93-7.467 8.79-5.075 12.93 7.468-8.79 5.074zm18.946 10.935l-12.93-7.464 8.787-5.078 12.933 7.468-8.79 5.074zm30.12 17.392l-24.107-13.921 8.79-5.072 24.107 13.918-8.79 5.075zm-97.515-72.931l-12.934-7.464 8.79-5.075 12.931 7.468-8.787 5.071zm18.943 10.942l-12.931-7.468 8.791-5.075 12.93 7.468-8.79 5.075zm18.942 10.938l-12.93-7.465 8.79-5.078 12.934 7.468-8.794 5.075zm18.95 10.938l-12.934-7.465 8.791-5.078 12.93 7.468-8.787 5.075zm18.946 10.938l-12.934-7.468 8.791-5.074 12.933 7.467-8.79 5.075zm36.132 20.862l-30.12-17.392 8.791-5.074 30.119 17.391-8.79 5.075zm-103.739-76.278l-12.934-7.465 8.79-5.075 12.93 7.465-8.786 5.075zm18.946 10.938l-12.934-7.468 8.787-5.071 12.934 7.464-8.787 5.075zm18.942 10.938l-12.93-7.468 8.787-5.071 12.934 7.464-8.791 5.075zm18.946 10.938l-12.933-7.468 8.79-5.075 12.93 7.468-8.787 5.075zm18.947 10.938l-12.934-7.468 8.79-5.071 12.934 7.464-8.79 5.075zm18.942 10.938l-12.93-7.468 8.791-5.071 12.93 7.464-8.791 5.075zm23.206 13.394l-17.19-9.924 8.791-5.074 17.186 9.927-8.787 5.071z" fill="#DAE0F5"/><path d="M457.838 248.287l-142.016-81.993 4.266-2.463 142.016 81.993-4.266 2.463z" fill="#FF8037"/><path d="M343.797 273.978l-72.47-41.843-45.032 25.999 72.47 41.84 45.032-25.996z" fill="#DAE0F5"/><path d="M480.957 262.887l-122.5 70.724c-2.337 1.349-5.85 1.624-8.674.828-.02-.006-1.757-.673-2.025-.828l-179.72-103.76a6.314 6.314 0 01-.567-.371l-.026-.02-.133-.106a4.726 4.726 0 01-.742-.713c-.014-.013-.027-.03-.037-.043a.119.119 0 00-.023-.026 3.852 3.852 0 01-.278-.415 2.749 2.749 0 01-.391-1.286h-.01v2.589h.019c-.016 1.13.703 2.264 2.188 3.119l179.72 103.759c4.289 2.128 10.414 1.711 12.241 1.313 1.823-.401 3.46-.855 5.372-1.273l115.586-66.732c1.489-.862 2.221-1.996 2.205-3.129v-6.689c-.017 1.11-.749 2.218-2.205 3.059z" fill="#FF5B36"/><path d="M441.408 168.041c-8.548-4.296-10.063-23.282-18.863-27.66-8.343-4.15-14.727 27.676-23.308 22.721-8.231-4.753-8.085-27.57-16.491-32.423-6.274-3.623-7.149 6.805-13.453 3.165-7.882-4.547-10.683-37.812-17.687-41.856-6.656-3.842-7.706 8.051-12.257 5.423-6.48-3.743-2.801-25.758-11.32-30.677-8.743-4.935-7.756 16.175-12.293 13.41-4.538-2.76-4.435-13.506-11.495-12.323v70.843l172.46 99.57v-87.949c-9.151-5.028-26.745 22.055-35.293 17.756z" fill="url(#paint17_linear)"/><path d="M360.303 170.842l2.102 1.213v-53.607l-2.102-1.213v53.607z" fill="url(#paint18_linear)"/><path d="M364.414 119.443c0-1.883-1.32-4.17-2.95-5.112-1.631-.941-2.95-.179-2.95 1.704s1.319 4.17 2.95 5.111c1.63.942 2.95.179 2.95-1.703z" fill="#000"/><path d="M440.357 216.858l2.102 1.213v-49.424l-2.102-1.213v49.424z" fill="url(#paint19_linear)"/><path d="M444.358 169.353c0-1.882-1.319-4.169-2.95-5.111-1.631-.941-2.95-.179-2.95 1.704s1.319 4.17 2.95 5.111c1.631.938 2.95.176 2.95-1.704z" fill="#000"/><path d="M309.405 146.589l-4.051-2.34v-1.621l4.051 2.337v1.624zm6.858 3.958l-4.047-2.337v-1.621l4.047 2.337v1.621zm6.861 3.961l-4.051-2.337v-1.624l4.051 2.34v1.621zm6.858 3.96l-4.047-2.336v-1.624l4.047 2.336v1.624zm6.861 3.961l-4.051-2.336v-1.625l4.051 2.337v1.624zm6.858 3.961l-4.047-2.34v-1.621l4.047 2.337v1.624zm6.861 3.958l-4.05-2.337v-1.621l4.05 2.337v1.621zm6.858 3.961l-4.047-2.337v-1.624l4.047 2.34v1.621zm6.861 3.961l-4.05-2.337v-1.624l4.05 2.336v1.625zm6.858 3.961l-4.047-2.337v-1.624l4.047 2.337v1.624zm6.861 3.961l-4.05-2.337v-1.624l4.05 2.336v1.625zm6.858 3.961l-4.047-2.341v-1.62l4.047 2.336v1.625zm6.861 3.957l-4.05-2.337v-1.621l4.05 2.337v1.621zm6.858 3.961l-4.047-2.337v-1.624l4.047 2.337v1.624zm6.861 3.961l-4.05-2.337v-1.624l4.05 2.337v1.624zm6.858 3.961l-4.047-2.337v-1.624l4.047 2.337v1.624zm6.861 3.961l-4.05-2.34v-1.621l4.05 2.337v1.624zm6.858 3.957l-4.047-2.336v-1.621l4.047 2.337v1.62zm6.861 3.961l-4.05-2.336v-1.625l4.05 2.34v1.621zm6.858 3.961l-4.047-2.337v-1.624l4.047 2.337v1.624zm6.861 3.961l-4.05-2.337v-1.624l4.05 2.337v1.624zm6.858 3.961l-4.047-2.337v-1.624l4.047 2.337v1.624zm6.861 3.961l-4.05-2.34v-1.621l4.05 2.337v1.624zm6.858 3.958l-4.047-2.337v-1.621l4.047 2.337v1.621zm6.861 3.96l-4.05-2.336v-1.624l4.05 2.336v1.624z" fill="#CED3F8"/><path d="M348.341 71.215L295.259 40.57v109.437l43.517 25.125-5.426 6.042h16.877c1.429.013 2.42-1.11 2.42-3.062V78.673c0-2.734-1.939-6.089-4.306-7.458z" fill="url(#paint20_linear)" fill-opacity=".55"/><path d="M335.464 178.104c0 2.734-1.939 3.851-4.305 2.486l-118.745-68.556c-2.367-1.365-4.306-4.723-4.306-7.457V5.139c0-2.734 1.939-3.851 4.306-2.486l118.745 68.56c2.366 1.365 4.305 4.722 4.305 7.457v99.434z" fill="#fff"/><path d="M331.159 71.212L212.414 2.653c-2.367-1.365-4.306-.248-4.306 2.486v4.767l127.356 73.53v-4.763c0-2.738-1.939-6.095-4.305-7.46z" fill="#FFAD02"/><path d="M212.547 5.64l3.39 1.959v3.914l-3.39-1.959V5.64zm6.639 3.835l3.387 1.955v3.915l-3.387-1.96v-3.91zm6.636 3.831l3.39 1.956v3.915l-3.39-1.956v-3.915z" fill="#fff"/><path d="M233.989 112.89l-.716-.415v-67.06l.716.414v67.061zm49.115 28.356l-.716-.414V99.678l.716.414v41.154z" fill="#ECECEC"/><path d="M281.788 110.188c-4.866-2.811-7.219-6.947-9.705-11.329-3.106-5.466-6.626-11.664-16.275-17.233-7.073-4.083-9.585-10.073-12.015-15.863-2.234-5.33-4.345-10.361-10.159-13.72-5.96-3.44-8.134 1.29-10.431 6.299-2.217 4.829-4.508 9.824-10.54 6.34v-1.657c5.078 2.934 7.089-1.448 9.217-6.089 2.268-4.942 4.84-10.543 11.757-6.553 6.6 3.812 9.026 9.593 11.369 15.181 2.324 5.539 4.518 10.77 10.806 14.402 10.252 5.92 14.16 12.797 17.302 18.326 2.489 4.382 4.431 7.809 8.803 10.305 7.806 4.425 12.48-.331 17.889-5.833 6.885-7.004 14.687-14.942 31.174-5.423v1.657c-15.754-9.095-23.328-1.389-30.01 5.41-5.403 5.499-10.508 10.692-19.039 5.856a1.77 1.77 0 01-.143-.076z" fill="#FFAD02"/><path d="M226.617 28.968v8.217l5.041 2.91 1.973 3.417 1.972-1.14 5.041 2.91v-8.22l-14.027-8.094zm49.115 54.259v8.217l5.042 2.91 1.972 3.418 1.972-1.137 5.042 2.907v-8.217l-14.028-8.098z" fill="#E9E9E9"/><path d="M219.905 109.936l-4.564-2.635v-1.452l4.564 2.639v1.448zm8.333 4.813l-4.564-2.638v-1.449l4.564 2.635v1.452zm8.333 4.81l-4.564-2.636v-1.451l4.564 2.638v1.449zm8.333 4.809l-4.565-2.635v-1.449l4.565 2.636v1.448zm8.332 4.813l-4.564-2.635v-1.452l4.564 2.635v1.452zm8.333 4.809l-4.564-2.635v-1.448l4.564 2.635v1.448zm8.333 4.813l-4.564-2.635v-1.452l4.564 2.635v1.452zm8.333 4.809l-4.564-2.635v-1.448l4.564 2.635v1.448zm8.333 4.813l-4.564-2.635v-1.452l4.564 2.635v1.452zm8.333 4.81l-4.565-2.635v-1.452l4.565 2.638v1.449zm8.332 4.812l-4.564-2.638v-1.448l4.564 2.635v1.451zm8.333 4.81l-4.564-2.635v-1.452l4.564 2.638v1.449zm8.333 4.813l-4.564-2.639v-1.448l4.564 2.635v1.452zm8.333 4.809l-4.564-2.635v-1.452l4.564 2.635v1.452z" fill="#DFE4F4"/><path d="M334.745 69.14L216 .582c-1.173-.676-2.24-.743-3.019-.305l-.01.006c-.01.004-.017.01-.023.014l-3.553 2.051c.778-.437 1.846-.37 3.019.305l118.745 68.56c2.366 1.365 4.306 4.722 4.306 7.457v99.437c0 1.31-.448 2.241-1.167 2.715l3.328-1.919-.004-.004c.875-.404 1.432-1.398 1.432-2.86V76.602c0-2.738-1.939-6.096-4.309-7.462z" fill="url(#paint21_linear)"/><path d="M235.994 112.857v46.496c0 1.605 1.061 3.206 3.179 4.432 4.239 2.45 11.113 2.45 15.356 0 2.118-1.226 3.179-2.827 3.179-4.432v-46.496h-21.714z" fill="url(#paint22_linear)"/><path d="M239.173 108.422c4.239-2.45 11.113-2.45 15.356 0 2.118 1.223 3.179 2.827 3.179 4.434 0 1.605-1.061 3.206-3.179 4.432-4.243 2.45-11.117 2.45-15.356 0-2.118-1.226-3.179-2.827-3.179-4.432 0-1.604 1.061-3.208 3.179-4.434z" fill="#FFAD02"/><path d="M209.026 145.843v29.082c0 1.605 1.061 3.206 3.179 4.432 4.239 2.449 11.114 2.449 15.356 0 2.118-1.226 3.179-2.827 3.179-4.432v-29.082h-21.714z" fill="url(#paint23_linear)"/><path d="M212.205 141.408c4.239-2.449 11.114-2.449 15.356 0 2.118 1.223 3.179 2.828 3.179 4.435 0 1.604-1.061 3.205-3.179 4.432-4.242 2.449-11.117 2.449-15.356 0-2.118-1.227-3.179-2.828-3.179-4.432 0-1.604 1.061-3.212 3.179-4.435z" fill="#E8ECF7"/><path d="M182.059 175.429v15.065c0 1.604 1.061 3.205 3.179 4.431 4.239 2.45 11.114 2.45 15.356 0 2.118-1.226 3.179-2.827 3.179-4.431v-15.065h-21.714z" fill="url(#paint24_linear)"/><path d="M185.238 170.998c4.239-2.45 11.114-2.45 15.356 0 2.118 1.223 3.179 2.827 3.179 4.434 0 1.605-1.061 3.206-3.179 4.432-4.242 2.449-11.117 2.449-15.356 0-2.118-1.226-3.179-2.827-3.179-4.432 0-1.607 1.061-3.211 3.179-4.434z" fill="#807DFB"/><path d="M510.822 331.592h-49.649l16.908 9.762-16.908 9.761h49.649l16.908-9.761-16.908-9.762z" fill="url(#paint25_linear)"/><path d="M486.066 344.174h-46.795l16.907 9.762-16.907 9.761h46.795l16.907-9.761-16.907-9.762z" fill="url(#paint26_linear)"/><path d="M459.092 356.76h-41.724l16.907 9.761-16.907 9.762h41.724l16.907-9.762-16.907-9.761z" fill="url(#paint27_linear)"/><path d="M532.722 319.007h-49.649l16.907 9.761-16.907 9.762h49.649l16.907-9.762-16.907-9.761z" fill="url(#paint28_linear)"/><path d="M466.165 281.764l16.907 9.761v47.005l-16.907-9.762v-47.004z" fill="#CED2F4"/><path d="M499.98 281.764l-16.907 9.761v47.005l16.907-9.762v-47.004z" fill="#BBBFE2"/><path d="M483.072 272.003l-16.907 9.761 16.907 9.761 16.908-9.761-16.908-9.761z" fill="#F5F5FA"/><path d="M466.165 281.764l16.907 9.761v18.993l-16.907-9.761v-18.993z" fill="#FC780B"/><path d="M499.98 281.764l-16.907 9.761v18.993l16.907-9.761v-18.993z" fill="#EF4E16"/><path d="M483.072 272.003l-16.907 9.761 16.907 9.761 16.908-9.761-16.908-9.761z" fill="#FFAD02"/><path d="M444.262 302.901l16.908 9.761v38.45l-16.908-9.762v-38.449z" fill="#CED2F4"/><path d="M478.078 302.901l-16.908 9.761v38.45l16.908-9.762v-38.449z" fill="#BBBFE2"/><path d="M461.17 293.14l-16.908 9.761 16.908 9.761 16.908-9.761-16.908-9.761z" fill="#F5F5FA"/><path d="M444.265 302.901l16.905 9.761v10.574l-16.905-9.761v-10.574z" fill="#FC780B"/><path d="M478.077 302.901l-16.907 9.761v10.574l16.907-9.761v-10.574z" fill="#EF4E16"/><path d="M461.17 293.14l-16.905 9.761 16.905 9.761 16.907-9.761-16.907-9.761z" fill="#FFAD02"/><path d="M422.363 293.027l16.907 9.761v60.909l-16.907-9.761v-60.909z" fill="#5652CA"/><path d="M456.178 293.123l-16.908 9.762v60.812l16.908-9.761v-60.813z" fill="#423EAD"/><path d="M439.27 283.458l-16.907 9.761 16.907 9.762 16.908-9.762-16.908-9.761z" fill="#6B67E7"/><path d="M400.46 346.186l16.908 9.761v20.335l-16.908-9.761v-20.335z" fill="#CED2F4"/><path d="M434.275 346.186l-16.907 9.761v20.335l16.907-9.761v-20.335z" fill="#BBBFE2"/><path d="M417.368 336.421l-16.908 9.765 16.908 9.762 16.907-9.762-16.907-9.765z" fill="#F6F6FB"/><path d="M233.939 399.998l64.166-37.05-6.281-3.626-64.167 37.047 6.282 3.629zm-9.722-5.615l92.178-53.218-6.281-3.627-92.178 53.219 6.281 3.626zm-9.722-5.611l101.9-58.834-6.281-3.626-101.9 58.834 6.281 3.626zm-9.721-5.612l90.372-52.178-6.282-3.626-90.372 52.175 6.282 3.629zm-9.722-5.615l54.445-31.435-6.281-3.626-54.445 31.435 6.281 3.626zm-9.722-5.611l39.079-22.562-6.281-3.627-39.079 22.563 6.281 3.626zm-9.721-5.615l48.8-28.174-6.281-3.626-48.801 28.174 6.282 3.626zm-9.722-5.612l53.975-31.16-6.281-3.63-53.975 31.164 6.281 3.626zm-9.722-5.611l71.725-41.413-6.282-3.626-71.724 41.409 6.281 3.63z" fill="#DAE0F5"/><path d="M146.444 349.481l85.33-49.265-6.281-3.626-85.33 49.265 6.281 3.626zm-9.722-5.612l75.609-43.653-6.281-3.626-75.609 43.653 6.281 3.626zM127 338.258l47.124-27.21-6.281-3.626-47.124 27.206 6.281 3.63z" fill="#FD9009"/><path d="M117.279 332.643l62.851-36.285-6.281-3.629-62.851 36.288 6.281 3.626zm-9.722-5.612l54.449-31.435-6.285-3.626-54.445 31.435 6.281 3.626z" fill="#DAE0F5"/><path d="M233.916 288.261c-13.096-7.564-30.915-10.72-47.972-9.497 12.3.882 24.206 4.041 33.653 9.497 22.539 13.013 22.539 34.113 0 47.126-9.447 5.453-21.353 8.615-33.657 9.497 17.057 1.226 34.88-1.936 47.976-9.497 22.539-13.013 22.542-34.11 0-47.126z" fill="url(#paint29_linear)"/><path d="M155.867 288.261c9.444-5.453 21.353-8.615 33.657-9.497-17.057-1.226-34.88 1.936-47.976 9.497-22.542 13.013-22.542 34.113 0 47.126 13.096 7.561 30.916 10.72 47.972 9.497-12.303-.882-24.206-4.041-33.653-9.497-22.542-13.013-22.542-34.11 0-47.126z" fill="url(#paint30_linear)"/><path d="M222.968 288.32c-22.652-13.076-59.381-13.076-82.033 0-22.652 13.08-22.652 34.283 0 47.362 22.652 13.08 59.381 13.08 82.029 0 22.656-13.079 22.659-34.282.004-47.362zm-6.769 43.454c-18.916 10.922-49.579 10.922-68.495 0-18.917-10.918-18.917-28.624-.004-39.546 18.917-10.918 49.583-10.918 68.499 0 18.917 10.922 18.917 28.628 0 39.546z" fill="#A399A3"/><path d="M147.704 278.904c18.916-10.922 49.582-10.922 68.499 0 12.416 7.169 16.682 17.259 12.797 26.437-2.032-4.806-6.298-9.357-12.797-13.113-18.917-10.918-49.583-10.918-68.499 0-6.5 3.752-10.766 8.307-12.798 13.113-3.885-9.178.381-19.268 12.798-26.437z" fill="#FF5C37"/><path d="M216.302 283.06c-18.91-10.918-49.573-10.918-68.486 0-18.913 10.918-18.913 28.621 0 39.54 18.913 10.918 49.573 10.918 68.486 0 18.913-10.919 18.913-28.622 0-39.54z" fill="#F3F3F3"/><path d="M152.682 285.012c4.12-2.621 10.975-2.92 15.307-.662 4.332 2.257 4.501 6.214.381 8.836s-10.975 2.92-15.307.663c-4.332-2.257-4.501-6.215-.381-8.837zm20.769-4.809c1.707-1.084 4.541-1.207 6.337-.272 1.794.935 1.863 2.572.16 3.656-1.707 1.087-4.545 1.21-6.338.275-1.796-.931-1.866-2.572-.159-3.659z" fill="#ECECEC"/><path d="M216.302 285.039c-18.91-10.918-49.573-10.918-68.486 0-9.022 5.207-13.729 11.959-14.143 18.78-.454-7.481 4.252-15.048 14.143-20.759 18.913-10.918 49.576-10.918 68.486 0 9.894 5.711 14.601 13.278 14.143 20.759-.414-6.821-5.124-13.573-14.143-18.78z" fill="#F5F5FA"/><path d="M222.968 274.996c-22.652-13.08-59.381-13.08-82.033 0-22.652 13.079-22.652 34.282 0 47.362 22.652 13.079 59.381 13.079 82.029 0 22.656-13.076 22.659-34.283.004-47.362zm-6.769 43.457c-18.916 10.922-49.579 10.922-68.495 0-18.917-10.921-18.917-28.624-.004-39.546 18.917-10.922 49.583-10.922 68.499 0 18.917 10.918 18.917 28.625 0 39.546z" fill="#CED2F4"/><path d="M140.935 322.358c22.652 13.079 59.381 13.079 82.029 0 11.18-6.457 16.832-14.889 16.978-23.348v12.662h-.004c.149 8.681-5.502 17.388-16.974 24.011-22.652 13.079-59.377 13.079-82.029 0-11.472-6.623-17.123-15.33-16.974-24.011V299.07c.169 8.439 5.821 16.848 16.974 23.288z" fill="url(#paint31_linear)"/><path d="M222.968 324.141a51.673 51.673 0 004.014-2.565l9.755 5.634-8.456 4.883-9.758-5.635a61.253 61.253 0 004.445-2.317z" fill="#F5F5FA"/><path d="M228.281 341.851l-9.758-5.635v-9.761l9.758 5.634v9.762z" fill="#CED2F4"/><path d="M224.608 339.09c0-5.038 3.537-11.167 7.899-13.683 2.271-1.309 4.309-1.375 5.748-.441l.003-.01 56.238 32.47-10.749 19.523-56.238-32.47c-1.77-.653-2.901-2.539-2.901-5.389z" fill="url(#paint32_linear)"/><path d="M231.861 346.982l2.751 1.588c-1.193-.909-1.923-2.559-1.923-4.833 0-5.038 3.537-11.164 7.899-13.683 2.27-1.309 4.309-1.375 5.747-.441l-3.725-2.151-.003.007c-1.439-.935-3.481-.869-5.748.441-4.362 2.519-7.899 8.644-7.899 13.682 0 2.851 1.131 4.737 2.901 5.39z" fill="url(#paint33_linear)"/><path d="M282.445 376.197a11.105 11.105 0 006.301 1.955c6.158 0 11.15-4.992 11.15-11.153 0-4.217-2.34-7.886-5.794-9.782-1.409-.692-3.285-.54-5.356.657-4.362 2.519-7.899 8.644-7.899 13.685 0 2.191.669 3.816 1.786 4.744l-.188-.106z" fill="url(#paint34_linear)"/><defs><linearGradient id="paint0_linear" x1="480.357" y1="2.066" x2="588.866" y2="190.005" gradientUnits="userSpaceOnUse"><stop offset=".552" stop-color="#FF8037"/><stop offset=".651" stop-color="#FF5B36"/></linearGradient><linearGradient id="paint1_linear" x1="193.547" y1="190.493" x2="229.28" y2="190.493" gradientUnits="userSpaceOnUse"><stop stop-color="#C2C7E3"/><stop offset=".253" stop-color="#DDE0EF"/><stop offset=".543" stop-color="#F6F7FB"/><stop offset=".72" stop-color="#fff"/></linearGradient><linearGradient id="paint2_linear" x1="247.483" y1="159.354" x2="326.219" y2="159.354" gradientUnits="userSpaceOnUse"><stop stop-color="#C2C7E3"/><stop offset=".253" stop-color="#DDE0EF"/><stop offset=".543" stop-color="#F6F7FB"/><stop offset=".72" stop-color="#fff"/></linearGradient><linearGradient id="paint3_linear" x1="220.515" y1="174.924" x2="274.383" y2="174.924" gradientUnits="userSpaceOnUse"><stop stop-color="#C2C7E3"/><stop offset=".253" stop-color="#DDE0EF"/><stop offset=".543" stop-color="#F6F7FB"/><stop offset=".72" stop-color="#fff"/></linearGradient><linearGradient id="paint4_linear" x1="514.187" y1="280.772" x2="600.235" y2="280.772" gradientUnits="userSpaceOnUse"><stop stop-color="#D1D6F0"/><stop offset=".29" stop-color="#D5DAF1"/><stop offset=".592" stop-color="#E2E5F5"/><stop offset=".899" stop-color="#F6F7FC"/><stop offset="1" stop-color="#fff"/></linearGradient><linearGradient id="paint5_linear" x1="578.307" y1="285.434" x2="586.864" y2="285.434" gradientUnits="userSpaceOnUse"><stop stop-color="#A5ACD4"/><stop offset=".635" stop-color="#BEC3E7"/><stop offset="1" stop-color="#CED2F4"/></linearGradient><linearGradient id="paint6_linear" x1="514.187" y1="285.445" x2="522.784" y2="285.445" gradientUnits="userSpaceOnUse"><stop stop-color="#BBBFE2"/><stop offset="1" stop-color="#CED2F4"/></linearGradient><linearGradient id="paint7_linear" x1="564.015" y1="293.371" x2="575.001" y2="293.371" gradientUnits="userSpaceOnUse"><stop stop-color="#A5ACD4"/><stop offset=".516" stop-color="#BCC2E6"/><stop offset="1" stop-color="#CED2F4"/></linearGradient><linearGradient id="paint8_linear" x1="526.156" y1="293.383" x2="537.162" y2="293.383" gradientUnits="userSpaceOnUse"><stop stop-color="#BBBFE2"/><stop offset="1" stop-color="#CED2F4"/></linearGradient><linearGradient id="paint9_linear" x1="544.641" y1="296.59" x2="556.568" y2="296.59" gradientUnits="userSpaceOnUse"><stop stop-color="#BBBFE2"/><stop offset="1" stop-color="#CED2F4"/></linearGradient><linearGradient id="paint10_linear" x1="550.36" y1="270.354" x2="579.482" y2="270.354" gradientUnits="userSpaceOnUse"><stop stop-color="#D1D6F0"/><stop offset=".587" stop-color="#EFF1FA"/><stop offset="1" stop-color="#fff"/></linearGradient><linearGradient id="paint11_linear" x1="528.749" y1="276.568" x2="572.087" y2="276.568" gradientUnits="userSpaceOnUse"><stop stop-color="#CED2F4"/><stop offset="1" stop-color="#BBBFE2"/></linearGradient><linearGradient id="paint12_linear" x1="550.361" y1="269.264" x2="572.091" y2="269.264" gradientUnits="userSpaceOnUse"><stop stop-color="#D1D6F0"/><stop offset=".587" stop-color="#EFF1FA"/><stop offset="1" stop-color="#fff"/></linearGradient><linearGradient id="paint13_linear" x1="535.135" y1="264.251" x2="565.705" y2="264.251" gradientUnits="userSpaceOnUse"><stop stop-color="#5655C4"/><stop offset=".012" stop-color="#5F5ED0"/><stop offset=".031" stop-color="#6B6AE0"/><stop offset="1" stop-color="#5655C4"/></linearGradient><linearGradient id="paint14_linear" x1="535.134" y1="269.925" x2="565.705" y2="269.925" gradientUnits="userSpaceOnUse"><stop stop-color="#5655C4"/><stop offset=".644" stop-color="#3E3C9D"/><stop offset="1" stop-color="#34318D"/></linearGradient><linearGradient id="paint15_linear" x1="494.515" y1="229.859" x2="494.515" y2="160.2" gradientUnits="userSpaceOnUse"><stop stop-color="#BBBFE2"/><stop offset="1" stop-color="#A5ACD4"/></linearGradient><linearGradient id="paint16_linear" x1="345.744" y1="-19.376" x2="501.857" y2="251.019" gradientUnits="userSpaceOnUse"><stop offset=".576" stop-color="#FF7F36"/><stop offset=".612" stop-color="#FF5A35"/></linearGradient><linearGradient id="paint17_linear" x1="375.129" y1="179.597" x2="413.213" y2="113.633" gradientUnits="userSpaceOnUse"><stop stop-color="#FF7F36"/><stop offset="1" stop-color="#FF5A35"/></linearGradient><linearGradient id="paint18_linear" x1="361.354" y1="172.054" x2="361.354" y2="117.236" gradientUnits="userSpaceOnUse"><stop stop-color="#FFAD02"/><stop offset="1" stop-color="#EF4E16"/></linearGradient><linearGradient id="paint19_linear" x1="441.408" y1="218.072" x2="441.408" y2="167.436" gradientUnits="userSpaceOnUse"><stop stop-color="#FFAD02"/><stop offset="1" stop-color="#EF4E16"/></linearGradient><linearGradient id="paint20_linear" x1="295.258" y1="110.872" x2="352.646" y2="110.872" gradientUnits="userSpaceOnUse"><stop stop-color="#D1D7F3"/><stop offset=".048" stop-color="#D5DAF3"/><stop offset=".306" stop-color="#E5E7F5"/><stop offset=".599" stop-color="#EEEFF6"/><stop offset="1" stop-color="#F1F1F6"/></linearGradient><linearGradient id="paint21_linear" x1="242.384" y1="-16.701" x2="350.893" y2="171.241" gradientUnits="userSpaceOnUse"><stop offset=".552" stop-color="#FF8037"/><stop offset=".651" stop-color="#FF5B36"/></linearGradient><linearGradient id="paint22_linear" x1="235.995" y1="139.24" x2="257.71" y2="139.24" gradientUnits="userSpaceOnUse"><stop stop-color="#FD9009"/><stop offset="1" stop-color="#EF4E16"/></linearGradient><linearGradient id="paint23_linear" x1="209.027" y1="163.518" x2="230.742" y2="163.518" gradientUnits="userSpaceOnUse"><stop stop-color="#CCD1F6"/><stop offset="1" stop-color="#A1A7CE"/></linearGradient><linearGradient id="paint24_linear" x1="182.059" y1="186.096" x2="203.774" y2="186.096" gradientUnits="userSpaceOnUse"><stop stop-color="#5652CC"/><stop offset="1" stop-color="#423EAF"/></linearGradient><linearGradient id="paint25_linear" x1="461.172" y1="341.353" x2="527.728" y2="341.353" gradientUnits="userSpaceOnUse"><stop stop-color="#C2C7E3"/><stop offset=".253" stop-color="#DDE0EF"/><stop offset=".543" stop-color="#F6F7FB"/><stop offset=".72" stop-color="#fff"/></linearGradient><linearGradient id="paint26_linear" x1="439.27" y1="353.936" x2="502.973" y2="353.936" gradientUnits="userSpaceOnUse"><stop stop-color="#C2C7E3"/><stop offset=".253" stop-color="#DDE0EF"/><stop offset=".543" stop-color="#F6F7FB"/><stop offset=".72" stop-color="#fff"/></linearGradient><linearGradient id="paint27_linear" x1="417.368" y1="366.52" x2="475.999" y2="366.52" gradientUnits="userSpaceOnUse"><stop stop-color="#C2C7E3"/><stop offset=".253" stop-color="#DDE0EF"/><stop offset=".543" stop-color="#F6F7FB"/><stop offset=".72" stop-color="#fff"/></linearGradient><linearGradient id="paint28_linear" x1="483.074" y1="328.769" x2="549.63" y2="328.769" gradientUnits="userSpaceOnUse"><stop stop-color="#C2C7E3"/><stop offset=".253" stop-color="#DDE0EF"/><stop offset=".543" stop-color="#F6F7FB"/><stop offset=".72" stop-color="#fff"/></linearGradient><linearGradient id="paint29_linear" x1="185.939" y1="311.826" x2="250.821" y2="311.826" gradientUnits="userSpaceOnUse"><stop stop-color="#C4C9E5"/><stop offset=".252" stop-color="#CDD1E9"/><stop offset=".665" stop-color="#E6E8F4"/><stop offset="1" stop-color="#fff"/></linearGradient><linearGradient id="paint30_linear" x1="124.64" y1="311.826" x2="189.523" y2="311.826" gradientUnits="userSpaceOnUse"><stop stop-color="#C4C9E5"/><stop offset=".252" stop-color="#CDD1E9"/><stop offset=".665" stop-color="#E6E8F4"/><stop offset="1" stop-color="#fff"/></linearGradient><linearGradient id="paint31_linear" x1="170.294" y1="329.623" x2="176.692" y2="308.804" gradientUnits="userSpaceOnUse"><stop stop-color="#FF5B36"/><stop offset=".215" stop-color="#FF7050"/><stop offset=".569" stop-color="#FF8D51"/><stop offset="1" stop-color="#FFAD02"/></linearGradient><linearGradient id="paint32_linear" x1="252.529" y1="358.987" x2="263.697" y2="339.643" gradientUnits="userSpaceOnUse"><stop stop-color="#FF5B36"/><stop offset=".215" stop-color="#FF7050"/><stop offset=".569" stop-color="#FF8D51"/><stop offset="1" stop-color="#FFAD02"/></linearGradient><linearGradient id="paint33_linear" x1="230.428" y1="346.218" x2="241.599" y2="326.87" gradientUnits="userSpaceOnUse"><stop stop-color="#C4C9E5"/><stop offset=".252" stop-color="#CDD1E9"/><stop offset=".665" stop-color="#E6E8F4"/><stop offset="1" stop-color="#fff"/></linearGradient><linearGradient id="paint34_linear" x1="288.457" y1="370.864" x2="293.63" y2="364.845" gradientUnits="userSpaceOnUse"><stop stop-color="#FF5B36"/><stop offset=".215" stop-color="#FF7050"/><stop offset=".569" stop-color="#FF8D51"/><stop offset="1" stop-color="#FFAD02"/></linearGradient></defs></svg>