<svg width="138" height="34" viewBox="0 0 138 34" xmlns="http://www.w3.org/2000/svg"><g data-name="Слой 2"><path d="M18.163 27.187s.002-.003 0 0zM26.53 1.06l-8.367 26.127h-4.824a1.704 1.76 0 01-1.617-2.311.326.337 0 00.013-.036c.095-.3 1.041-3.234 7.677-23.835H9.092L1.287 25.353A5.637 5.819 0 006.52 33h20.108l7.72-24.153-4.159 1.12 8.205-8.907zM11.735 24.873v-.018zM62.87 1.083l-22.087.044 2.63 8.845-3.556-1.12-7.707 24.014h10.26l3.31-10.016h10.29a11.485 11.855 0 0010.918-8.174l1.082-3.38c3.097-9.674-3.481-10.213-5.14-10.213zm-6.154 5.645a1.702 1.756 0 011.608 2.303l-1.86 5.76a3.42 3.531 0 01-3.242 2.414h-5.743l3.384-10.477z" fill="#3564af"/><path d="M94.13 11.337H83.472l3.295-10.262H76.32L66.122 32.954h20.44a11.829 12.21 0 0011.226-8.379l1.551-4.831c.771-2.36 1.158-8.407-5.21-8.407zm-4.963 7.935l-1.832 5.674a3.378 3.487 0 01-3.197 2.378h-5.773l3.308-10.433h6.109c.886-.007 2.028.368 1.385 2.381zm30.931-18.176l-2.615 8.163-10.388.026 2.615-8.19zm-4.04 12.637l-6.13 19.213H99.525l6.13-19.213zm12.061 10.55l2.347-7.322h4.716l1.817-5.554-4.738-.018L135.636 1l-10.496.09-7.655 24.177a5.715 5.899 0 005.49 7.728l9.677-.085 1.802-5.65h-4.251a2.196 2.267 0 01-2.084-2.977z" fill="#253d83"/></g></svg>