<svg width="30" height="30" viewBox="0 0 30 30" fill="none" xmlns="http://www.w3.org/2000/svg"><path d="M15 30c8.313 0 15-6.688 15-15 0-8.313-6.688-15-15-15C6.687 0 0 6.687 0 15c0 8.313 6.687 15 15 15z" fill="#2775CA"/><path d="M19.125 17.375c0-2.187-1.313-2.937-3.938-3.25-1.875-.25-2.25-.75-2.25-1.625s.626-1.437 1.875-1.437c1.125 0 1.75.375 2.063 1.312a.47.47 0 00.438.313h1c.25 0 .437-.188.437-.438v-.062a3.122 3.122 0 00-2.813-2.563v-1.5c0-.25-.187-.437-.5-.5H14.5c-.25 0-.438.188-.5.5v1.438c-1.875.25-3.063 1.5-3.063 3.062 0 2.063 1.25 2.875 3.875 3.188 1.75.312 2.313.687 2.313 1.687s-.875 1.688-2.063 1.688c-1.625 0-2.187-.688-2.375-1.625-.062-.25-.25-.375-.437-.375h-1.063a.427.427 0 00-.437.437v.063c.25 1.562 1.25 2.687 3.312 3v1.5c0 .25.188.437.5.5h.938c.25 0 .437-.188.5-.5v-1.5c1.875-.313 3.125-1.625 3.125-3.313z" fill="#fff"/><path d="M11.812 23.937c-4.875-1.75-7.375-7.187-5.562-12 .937-2.625 3-4.625 5.562-5.562.25-.125.375-.313.375-.625v-.875c0-.25-.125-.438-.375-.5-.062 0-.187 0-.25.062-5.937 1.875-9.187 8.188-7.312 14.125a11.244 11.244 0 007.312 7.313c.25.125.5 0 .563-.25.062-.063.062-.125.062-.25V24.5c0-.188-.187-.438-.375-.563zm6.625-19.5c-.25-.125-.5 0-.562.25-.063.063-.063.125-.063.25v.875c0 .25.188.5.375.625 4.875 1.75 7.375 7.188 5.563 12-.938 2.625-3 4.625-5.563 5.563-.25.125-.375.312-.375.625v.875c0 .25.125.438.375.5.063 0 .188 0 .25-.063 5.938-1.875 9.188-8.187 7.313-14.125a11.335 11.335 0 00-7.313-7.375z" fill="#fff"/></svg>