<svg width="40" height="40" viewBox="0 0 40 40" xmlns="http://www.w3.org/2000/svg"><path d="M11.142 14.517c4.893-4.689 12.825-4.689 17.717 0l.59.564a.583.583 0 010 .85l-2.015 1.93a.323.323 0 01-.443 0l-.81-.776c-3.414-3.272-8.948-3.272-12.361 0l-.868.831a.323.323 0 01-.443 0l-2.014-1.93a.583.583 0 010-.85zm21.884 3.993l1.792 1.718a.583.583 0 010 .849l-8.083 7.747a.646.646 0 01-.886 0l-5.737-5.498a.161.161 0 00-.222 0l-5.737 5.498a.646.646 0 01-.886 0l-8.083-7.747a.583.583 0 010-.85l1.793-1.717a.646.646 0 01.885 0l5.738 5.498a.16.16 0 00.221 0l5.737-5.498a.646.646 0 01.886 0l5.737 5.498c.061.059.16.059.222 0l5.737-5.498a.646.646 0 01.886 0z" fill="#3b99fc"/></svg>