<svg width="30" height="30" viewBox="0 0 30 30" fill="none" xmlns="http://www.w3.org/2000/svg"><path d="M24.462 6.296l-.824.824a11.661 11.661 0 010 15.738l.824.824a12.839 12.839 0 000-17.405v.02zm-17.323.071a11.661 11.661 0 0115.738 0l.824-.823a12.84 12.84 0 00-17.405 0l.843.823zm-.772 16.5a11.661 11.661 0 010-15.73l-.823-.824a12.84 12.84 0 000 17.405l.823-.851zm16.499.76a11.66 11.66 0 01-15.738 0l-.824.824a12.839 12.839 0 0017.405 0l-.843-.824z" fill="#5A5564"/><path d="M20.2 12.252c-.164-1.72-1.647-2.296-3.522-2.472V7.414h-1.45v2.322H14.07V7.414h-1.438v2.383H9.69v1.551s1.07-.019 1.054 0a.75.75 0 01.824.637v6.524a.507.507 0 01-.176.354.501.501 0 01-.373.127c.02.016-1.054 0-1.054 0l-.275 1.732h2.913v2.422h1.45v-2.386h1.159v2.375h1.452v-2.394c2.45-.149 4.157-.753 4.371-3.045.173-1.845-.694-2.67-2.08-3.001.842-.415 1.364-1.184 1.246-2.441zm-2.031 5.156c0 1.801-3.086 1.595-4.07 1.595v-3.196c.984.003 4.07-.28 4.07 1.601zm-.673-4.503c0 1.648-2.575 1.447-3.394 1.447v-2.905c.819 0 3.394-.258 3.394 1.458z" fill="#F09242"/><path d="M14.997 30a15 15 0 11.006-30 15 15 0 01-.006 30zm0-28.83a13.822 13.822 0 10.022 27.644 13.822 13.822 0 00-.022-27.644z" fill="#282138"/></svg>