<svg width="30" height="30" viewBox="0 0 30 30" fill="none" xmlns="http://www.w3.org/2000/svg"><circle cx="15" cy="15" r="15" fill="#EFEFEF"/><g clip-path="url(#clip0)"><path d="M15.024 6.907v.008c.008.04.008.088.008.137v5.812c-.008.032-.032.04-.056.056-.17.08-.331.153-.5.226-.234.104-.476.217-.71.322l-.846.387c-.234.105-.468.21-.693.314-.274.13-.556.25-.83.38-.234.104-.468.217-.71.322-.193.088-.387.169-.572.258a.114.114 0 01-.049.016c-.008 0-.008 0-.016-.008l.218-.363c.42-.693.83-1.378 1.25-2.072.443-.741.894-1.483 1.337-2.225.412-.685.83-1.37 1.242-2.055.298-.5.604-1 .903-1.5.008-.015.016-.024.016-.04h.008c-.008.008 0 .016 0 .025z" fill="#9D9D9D"/><path d="M19.973 15.137l.008.008-1.185.7-3.724 2.202a.178.178 0 00-.04.024c-.025 0-.025-.024-.025-.033v-5.054c0-.024 0-.056.008-.08.008-.033.033-.024.057-.016.105.048.218.096.322.145.315.145.629.29.943.427.274.12.54.25.814.37.275.122.549.25.823.371.233.105.475.218.71.323.233.105.475.218.708.322.186.081.371.17.557.25 0 .024.008.033.024.04z" fill="#4B4B4B"/><path d="M15.023 23.077c0 .008-.008.016-.008.024h-.008c0-.016-.016-.024-.024-.04-.5-.702-1-1.411-1.5-2.112-.507-.718-1.023-1.443-1.53-2.16-.492-.694-.992-1.395-1.484-2.088-.129-.186-.258-.363-.387-.549-.008-.016-.016-.024-.032-.048.024 0 .04.016.048.024.701.411 1.395.822 2.096 1.233.806.476 1.604.952 2.41 1.427l.411.242c.016.016.016.032.016.048v3.886c0 .04 0 .08-.008.113z" fill="#9D9D9D"/><path d="M10.042 15.153v-.008c.258-.113.508-.234.766-.347.33-.153.66-.298.991-.451.25-.113.508-.234.758-.347.37-.17.733-.33 1.104-.5.25-.113.5-.226.758-.347.177-.08.363-.16.54-.241.016-.008.04-.017.049-.033.008 0 .008.008 0 .017v5.118c0 .024-.009.049.008.065-.017.024-.033 0-.04-.008a3.064 3.064 0 01-.218-.13c-1.556-.918-3.12-1.845-4.676-2.764a.174.174 0 00-.04-.024zm9.915.951h.008c0 .016-.016.032-.024.048-1.483 2.088-2.967 4.184-4.45 6.272-.153.217-.314.435-.467.653-.008-.008-.008-.016-.008-.025v-4.03l1.007-.596c1.306-.774 2.612-1.54 3.91-2.314.008.008.016 0 .024-.008z" fill="#494949"/><path d="M15.016 12.896V6.979c0-.024-.008-.04.008-.064 1.636 2.716 3.272 5.424 4.9 8.141.017.024.041.057.05.089-.114-.04-.219-.097-.323-.145-.13-.057-.266-.121-.395-.178-.08-.04-.17-.072-.25-.113-.137-.064-.274-.12-.411-.185a2.917 2.917 0 01-.242-.113l-.532-.242a9.14 9.14 0 00-.274-.12l-.387-.17a3.076 3.076 0 01-.242-.113l-.532-.242a9.264 9.264 0 00-.274-.12l-.387-.17c-.089-.04-.17-.08-.258-.12a8.175 8.175 0 00-.468-.21c.025-.008.017-.008.017-.008z" fill="#494949"/></g><defs><clipPath id="clip0"><path fill="#fff" transform="translate(6.818 6.818)" d="M0 0h16.364v16.364H0z"/></clipPath></defs></svg>