<svg width="36" height="36" viewBox="0 0 36 36" fill="none" xmlns="http://www.w3.org/2000/svg">
<path d="M18 35.46C27.6429 35.46 35.46 27.6429 35.46 18C35.46 8.35715 27.6429 0.540039 18 0.540039C8.35715 0.540039 0.540039 8.35715 0.540039 18C0.540039 27.6429 8.35715 35.46 18 35.46Z" fill="url(#paint0_linear)"/>
<path d="M25.6413 24.957L19.7373 10.683C19.4043 9.94496 18.9093 9.58496 18.2568 9.58496H17.7348C17.0823 9.58496 16.5873 9.94496 16.2543 10.683L13.6848 16.902H11.7408C11.1603 16.9065 10.6878 17.3745 10.6833 17.9595V17.973C10.6878 18.5535 11.1603 19.026 11.7408 19.0305H12.7848L10.3323 24.957C10.2873 25.0875 10.2603 25.2225 10.2603 25.362C10.2603 25.695 10.3638 25.956 10.5483 26.1585C10.7328 26.361 10.9983 26.46 11.3313 26.46C11.5518 26.4555 11.7633 26.388 11.9388 26.2575C12.1278 26.127 12.2583 25.938 12.3618 25.722L15.0618 19.026H16.9338C17.5143 19.0215 17.9868 18.5535 17.9913 17.9685V17.9415C17.9868 17.361 17.5143 16.8885 16.9338 16.884H15.9348L17.9958 11.7495L23.6118 25.7175C23.7153 25.9335 23.8458 26.1225 24.0348 26.253C24.2103 26.3835 24.4263 26.451 24.6423 26.4555C24.9753 26.4555 25.2363 26.3565 25.4253 26.154C25.6143 25.9515 25.7133 25.6905 25.7133 25.3575C25.7178 25.2225 25.6953 25.083 25.6413 24.957Z" fill="white"/>
<defs>
<linearGradient id="paint0_linear" x1="31.018" y1="7.04643" x2="5.03748" y2="28.9063" gradientUnits="userSpaceOnUse">
<stop stop-color="#B6509E"/>
<stop offset="1" stop-color="#2EBAC6"/>
</linearGradient>
</defs>
</svg>
