<svg width="36" height="36" viewBox="0 0 36 36" fill="none" xmlns="http://www.w3.org/2000/svg">
<path d="M17.9854 35.3907C27.5981 35.3907 35.3907 27.5981 35.3907 17.9854C35.3907 8.3727 27.5981 0.580078 17.9854 0.580078C8.3727 0.580078 0.580078 8.3727 0.580078 17.9854C0.580078 27.5981 8.3727 35.3907 17.9854 35.3907Z" fill="#F2E3EE"/>
<path d="M17.9855 35.971C27.9186 35.971 35.971 27.9186 35.971 17.9855C35.971 8.05238 27.9186 0 17.9855 0C8.05238 0 0 8.05238 0 17.9855C0 27.9186 8.05238 35.971 17.9855 35.971Z" fill="#D9327C"/>
<path fill-rule="evenodd" clip-rule="evenodd" d="M17.2892 9.48566C17.1442 9.6017 16.9701 9.80476 16.8541 10.1819C16.7381 10.559 16.0999 12.4156 15.2876 14.7363H20.7123C19.9 12.4156 19.2618 10.559 19.1458 10.1819C19.0298 9.80476 18.8557 9.6017 18.7107 9.48566C18.5656 9.36963 18.3626 9.2826 17.9855 9.2826C17.6083 9.2826 17.4343 9.36963 17.2892 9.48566ZM9.2828 14.7363H12.9669C13.8662 12.0965 14.6494 9.89178 14.7655 9.48566C14.9975 8.78945 15.3747 8.18026 15.9548 7.74513C16.535 7.31 17.2312 7.10693 17.9565 7.10693C18.6817 7.10693 19.3779 7.28099 19.9581 7.74513C20.5382 8.18026 20.9154 8.78945 21.1474 9.48566C21.2925 9.89178 22.0467 12.0674 22.946 14.7363H26.6881C27.2973 14.7363 27.7905 15.2294 27.7905 15.8386C27.7905 16.4478 27.2973 16.9409 26.6881 16.9409H23.7582H21.4665H14.5334H12.2417H9.2828C8.67361 16.9409 8.20947 16.4478 8.20947 15.8386C8.20947 15.2294 8.70262 14.7363 9.2828 14.7363ZM9.2828 19.0876C8.67361 19.0876 8.20947 19.5807 8.20947 20.1899C8.20947 20.7991 8.70262 21.2923 9.2828 21.2923H10.7332L10.1531 22.9748L9.57289 24.6573L9.34082 25.2955C9.13776 25.8757 9.45685 26.4849 10.008 26.6879C10.5882 26.891 11.1974 26.5719 11.4004 26.0207L11.6325 25.3825L12.2127 23.7C12.4448 23.0038 12.7349 22.1915 13.054 21.2923H22.975C23.2651 22.1625 23.5552 23.0038 23.8162 23.7L24.3964 25.3825L24.6285 26.0207C24.8316 26.6009 25.4407 26.891 26.0209 26.6879C26.6011 26.4849 26.8912 25.8757 26.6881 25.2955L26.456 24.6573L25.8759 22.9748L25.2957 21.2923H26.7461C27.3553 21.2923 27.8485 20.7991 27.8485 20.1899C27.8485 19.5807 27.3553 19.0876 26.7461 19.0876H24.5415H22.2498H13.8372H11.5455H9.2828ZM25.6148 25.6146L26.6301 25.2665C26.6301 25.2665 26.6301 25.2665 25.6148 25.6146ZM25.6148 25.6146C24.5995 25.9627 24.5995 25.9627 24.5995 25.9627L25.6148 25.6146ZM10.3851 25.6146L11.4004 25.9627C11.4004 25.9627 11.4004 25.9627 10.3851 25.6146ZM10.3851 25.6146C9.36983 25.2665 9.36983 25.2665 9.36983 25.2665L10.3851 25.6146Z" fill="white"/>
</svg>
