<svg width="36" height="36" viewBox="0 0 36 36" fill="none" xmlns="http://www.w3.org/2000/svg">
<path d="M18 36C27.9411 36 36 27.9411 36 18C36 8.05887 27.9411 0 18 0C8.05887 0 0 8.05887 0 18C0 27.9411 8.05887 36 18 36Z" fill="url(#paint0_linear)" fill-opacity="0.05"/>
<path d="M32.0625 16.8076C32.1863 14.2145 30.375 12.4933 28.3275 11.312L27 19.1251C27.2741 19.0871 27.5531 19.1085 27.8182 19.1881C28.0832 19.2678 28.3279 19.4036 28.5356 19.5864C28.7736 19.8199 28.9159 20.1339 28.9347 20.4668C28.9534 20.7997 28.8472 21.1276 28.6369 21.3864C29.9194 21.1726 31.9163 19.9408 32.0625 16.8076Z" fill="url(#paint1_linear)"/>
<path fill-rule="evenodd" clip-rule="evenodd" d="M14.625 7.72317L13.05 6.13129C15.435 5.83879 21.7294 6.21004 27.8213 10.0294C27.877 10.3703 27.877 10.7179 27.8213 11.0588L28.3331 11.3175C28.7424 11.9963 29.0119 12.75 29.1258 13.5343C29.2398 14.3187 29.196 15.1179 28.9969 15.885C28.4681 18 27.5625 18.9338 27.1575 19.125C26.3419 19.125 24.9525 19.5975 24.5025 21.69C24.0525 23.7825 23.1863 24.2382 22.815 24.2044L13.815 24.3113L7.87502 20.8125L7.02002 13.5732L8.70752 11.3232L11.7225 8.85942L13.8713 7.98192L14.625 7.72317ZM25.2619 10.6875C25.0078 10.9569 24.7114 11.183 24.3844 11.3569C22.0725 10.8619 21.2344 9.66942 21.2344 9.66942C23.2003 9.6107 25.1451 10.0891 26.8594 11.0532C26.3374 10.8894 25.8032 10.7671 25.2619 10.6875Z" fill="url(#paint2_linear)"/>
<path fill-rule="evenodd" clip-rule="evenodd" d="M24.4237 21.6898C22.7114 22.5133 20.8336 22.9347 18.9337 22.9217C13.2581 22.9217 8.66244 19.3555 8.66244 14.9623C8.66244 11.7111 11.1712 8.92109 14.7656 7.68359C7.92557 8.07734 2.42432 13.573 2.42432 20.3567C2.42432 28.1867 9.40494 34.6555 17.9999 34.6555C20.9869 34.6308 23.9133 33.8104 26.478 32.279C29.0426 30.7475 31.1527 28.5603 32.5912 25.9423C28.7381 26.8086 24.1874 25.1605 24.4237 21.6898Z" fill="url(#paint3_linear)"/>
<defs>
<linearGradient id="paint0_linear" x1="18" y1="12.5944" x2="18" y2="36.4725" gradientUnits="userSpaceOnUse">
<stop stop-color="#01E8F8"/>
<stop offset="1" stop-color="#01E8F8" stop-opacity="0"/>
</linearGradient>
<linearGradient id="paint1_linear" x1="29.1938" y1="13.5958" x2="29.9925" y2="23.1414" gradientUnits="userSpaceOnUse">
<stop stop-color="#01E8F7"/>
<stop offset="1" stop-color="#00C2FF"/>
</linearGradient>
<linearGradient id="paint2_linear" x1="13.4719" y1="8.46567" x2="22.7419" y2="23.1807" gradientUnits="userSpaceOnUse">
<stop stop-color="#01E8F7"/>
<stop offset="1" stop-color="#00B3EC"/>
</linearGradient>
<linearGradient id="paint3_linear" x1="926.436" y1="1053.11" x2="961.894" y2="-85.9157" gradientUnits="userSpaceOnUse">
<stop stop-color="#01E8F7"/>
<stop offset="1" stop-color="#00C2FF"/>
</linearGradient>
</defs>
</svg>
