<svg width="36" height="36" viewBox="0 0 36 36" fill="none" xmlns="http://www.w3.org/2000/svg">
<path fill-rule="evenodd" clip-rule="evenodd" d="M18 0C27.9396 0 36 8.0604 36 18C36 27.9396 27.9396 36 18 36C8.0604 36 0 27.9396 0 18C0 8.0604 8.0604 0 18 0Z" fill="#1E1E1E"/>
<path d="M18.2701 25.5238C12.5137 25.5238 7.84814 23.8606 7.84814 21.6322C7.84814 20.4694 9.11894 19.4218 11.1529 18.6838C12.7405 19.7026 15.4045 20.2246 18.4249 20.2246C21.3733 20.2246 23.9797 19.5874 25.5817 18.6118C27.5005 19.3426 28.6921 20.3614 28.6921 21.4846C28.6921 23.7166 24.0265 25.5238 18.2701 25.5238Z" fill="white"/>
<path d="M18.3312 19.7242C13.968 19.7242 10.4292 18.3562 10.4292 16.6678C10.4292 15.7318 11.52 14.893 13.23 14.335C14.4504 14.9722 16.2792 15.379 18.3312 15.379C20.3832 15.379 22.212 14.9722 23.4324 14.335C25.146 14.8966 26.2332 15.7318 26.2332 16.6678C26.2368 18.3562 22.698 19.7242 18.3312 19.7242Z" fill="white"/>
<path d="M18.3021 14.8715C14.9289 14.8715 12.1929 13.7411 12.1929 12.3515C12.1929 10.9619 14.9289 9.83154 18.3021 9.83154C21.6753 9.83154 24.4113 10.9619 24.4113 12.3515C24.4113 13.7411 21.6753 14.8715 18.3021 14.8715Z" fill="white"/>
</svg>
