<svg width="36" height="36" viewBox="0 0 36 36" fill="none" xmlns="http://www.w3.org/2000/svg">
<path d="M18 36C27.9411 36 36 27.9411 36 18C36 8.05887 27.9411 0 18 0C8.05887 0 0 8.05887 0 18C0 27.9411 8.05887 36 18 36Z" fill="#516AFF"/>
<path d="M21.1499 13.0502L24.2999 14.8502V5.8502L17.9999 2.7002L8.2124 8.2127V27.7877L17.9999 33.4127L27.6749 27.6752V18.0002L18.3374 12.3752L15.1874 13.9502L24.5249 19.4627L24.6374 26.1002L17.9999 29.8127L11.2499 25.9877V9.7877L17.9999 6.0752L21.1499 7.7627V13.0502Z" fill="white"/>
<path d="M17.6625 18.45L19.8 17.325L22.1625 18.7875L15.1875 22.725V14.625L17.6625 16.0875" fill="white"/>
</svg>
