<!-- Generator: Adobe Illustrator 16.0.0, SVG Export Plug-In . SVG Version: 6.00 Build 0)  -->
<svg id="Your_design" width="177" height="37" enable-background="new 0 0 632.014 126.611" version="1.1" viewBox="0 0 177 37" xml:space="preserve" xmlns="http://www.w3.org/2000/svg"><g fill="#f3ba2f">
<polygon transform="matrix(.27644 0 0 .27644 1.1511 1)" points="62.759 0 23.864 38.896 38.171 53.203 62.759 28.616 87.36 53.216 101.67 38.909"/>
<rect transform="matrix(.70711 .7071 -.70711 .7071 0 0)" x="13.788" y="6.7808" width="5.5932" height="5.5934" stroke-width=".27644"/>
<polygon transform="matrix(.27644 0 0 .27644 1.1511 1)" points="101.67 87.703 62.759 126.61 23.863 87.716 23.843 87.696 38.171 73.408 62.759 97.995 87.359 73.396 101.67 87.695"/>
<rect transform="matrix(-.70711 .7071 -.70711 -.7071 0 0)" x="-12.374" y="-38.539" width="5.5934" height="5.5932" stroke-width=".27644"/>
<polygon transform="matrix(.27644 0 0 .27644 1.1511 1)" points="52.029 59.509 50.797 60.742 48.254 63.285 48.254 63.285 48.234 63.305 48.254 63.326 62.759 77.831 77.277 63.313 77.284 63.305 77.271 63.298 77.277 63.298 62.759 48.78 52.03 59.509"/><g stroke-width=".27644">
<path d="m42.167 9.4808h8.6021c2.135 0 3.7494 0.5479 4.8436 1.6437 0.84674 0.84866 1.27 1.9005 1.27 3.1552v0.0531c0 0.5302-0.06552 0.99876-0.19738 1.4051-0.13159 0.40691-0.3074 0.77319-0.52718 1.1002-0.21922 0.3273-0.4741 0.61452-0.76381 0.86165-0.28999 0.24769-0.60154 0.45999-0.9352 0.63636 1.0732 0.40692 1.918 0.95896 2.5339 1.6572 0.61564 0.69856 0.92387 1.6664 0.92387 2.9034v0.0528c0 0.84867-0.1631 1.5909-0.48958 2.2275-0.32648 0.63609-0.79422 1.1666-1.4032 1.5909s-1.3413 0.74223-2.1972 0.95454c-0.85587 0.21203-1.8043 0.3179-2.8451 0.3179h-8.8146zm7.7421 7.5033c0.90176 0 1.6177-0.15426 2.1477-0.46387 0.53022-0.30933 0.79532-0.80885 0.79532-1.498v-0.0531c0-0.61839-0.23-1.0911-0.68945-1.4184-0.45972-0.32703-1.1226-0.49068-1.9885-0.49068h-4.0303v3.924zm1.0872 7.4774c0.90148 0 1.6081-0.1631 2.1211-0.4904 0.51252-0.32703 0.76906-0.8354 0.76906-1.5248v-0.0528c0-0.61867-0.23885-1.1091-0.71599-1.4718-0.47742-0.36186-1.2462-0.5432-2.3069-0.5432h-4.7197v4.0832h4.8524z"/>
<path d="m63.04 9.4808h4.0836v18.56h-4.0836z"/>
<path d="m73.308 9.4808h3.7646l8.6972 11.428v-11.428h4.0303v18.56h-3.4732l-8.9888-11.799v11.799h-4.03z"/>
<path d="m102.16 9.3484h3.7649l7.9549 18.693h-4.2691l-1.6971-4.1626h-7.8485l-1.6968 4.1626h-4.1635zm4.2954 10.924-2.4662-6.0186-2.4653 6.0186z"/>
<path d="m118.29 9.4808h3.7654l8.6966 11.428v-11.428h4.0303v18.56h-3.4732l-8.9888-11.799v11.799h-4.0303z"/>
<path d="m149.48 28.359c-1.3618 0-2.6251-0.24769-3.792-0.74224-1.1669-0.49454-2.1742-1.171-3.0226-2.0285-0.84868-0.85724-1.5119-1.8693-1.9884-3.0358-0.47742-1.1668-0.71599-2.413-0.71599-3.7388v-0.0528c0-1.3258 0.23857-2.5673 0.71599-3.7253 0.47686-1.1577 1.1398-2.1742 1.9884-3.0491 0.84813-0.87493 1.8649-1.5646 3.0489-2.0683 1.184-0.50367 2.493-0.7555 3.9246-0.7555 0.86554 0 1.6564 0.07104 2.3724 0.21203 0.71599 0.14181 1.3654 0.33587 1.9492 0.58328 0.58357 0.24769 1.1221 0.54818 1.6177 0.90146 0.494 0.35384 0.954 0.74251 1.3783 1.1668l-2.598 2.996c-0.72567-0.65377-1.4632-1.1668-2.2143-1.5378-0.75165-0.37098-1.5954-0.55674-2.5322-0.55674-0.77791 0-1.4983 0.15038-2.1607 0.45086-0.66291 0.30049-1.2332 0.7157-1.7106 1.2459-0.47686 0.5302-0.84812 1.1447-1.1138 1.8427-0.26456 0.69856-0.39698 1.4452-0.39698 2.2405v0.0528c0 0.79531 0.13242 1.547 0.39698 2.2535 0.26566 0.7074 0.63167 1.3258 1.1008 1.856 0.46802 0.53021 1.0339 0.95039 1.6965 1.2597 0.66346 0.30961 1.3924 0.46387 2.1878 0.46387 1.061 0 1.9572-0.19434 2.6909-0.58329 0.73368-0.38839 1.4632-0.91888 2.1878-1.5909l2.5986 2.625c-0.47742 0.5128-0.97308 0.97251-1.4848 1.3786-0.5128 0.40691-1.074 0.75578-1.6841 1.0477-0.60955 0.29137-1.2774 0.5128-2.0014 0.66262-0.72539 0.15011-1.5381 0.22558-2.439 0.22558z"/>
<path d="m161.89 9.4808h13.973v3.6327h-9.9428v3.7651h8.75v3.6324h-8.75v3.8978h10.076v3.6324h-14.107z"/>
</g></g></svg>
