<!-- Generator: Adobe Illustrator 16.0.0, SVG Export Plug-In . SVG Version: 6.00 Build 0)  -->
<svg id="Your_design" width="40" height="40" enable-background="new 0 0 632.014 126.611" version="1.1" viewBox="0 0 40 40" xml:space="preserve" xmlns="http://www.w3.org/2000/svg"><g fill="#f3ba2f">
<polygon transform="matrix(.25274 0 0 .25274 4.1382 4)" points="23.864 38.896 38.171 53.203 62.759 28.616 87.36 53.216 101.67 38.909 62.759 0"/>
<rect transform="matrix(.7071 .70711 -.7071 .70711 0 0)" x="16.97" y="6.1994" width="5.1137" height="5.1139" stroke-width=".25274"/>
<polygon transform="matrix(.25274 0 0 .25274 4.1382 4)" points="62.759 126.61 23.863 87.716 23.843 87.696 38.171 73.408 62.759 97.995 87.359 73.396 101.67 87.695 101.67 87.703"/>
<rect transform="matrix(-.7071 .70711 -.7071 -.70711 0 0)" x="-11.313" y="-39.599" width="5.1139" height="5.1137" stroke-width=".25274"/>
<polygon transform="matrix(.25274 0 0 .25274 4.1382 4)" points="50.797 60.742 48.254 63.285 48.254 63.285 48.234 63.305 48.254 63.326 62.759 77.831 77.277 63.313 77.284 63.305 77.271 63.298 77.277 63.298 62.759 48.78 52.03 59.509 52.029 59.509"/>







</g></svg>
