<svg id="layer" width="157" height="39" version="1.1" viewBox="0 0 157 39" xml:space="preserve" xmlns="http://www.w3.org/2000/svg">
<style type="text/css">
	.st0{fill:#0082D7;}
</style>
<g id="Symbols" transform="matrix(.25829 0 0 .2573 -4.2691 -63.094)">
	<g id="bittrex-logo-mark">
		<path id="Logo-Mark" class="st0" d="m49.5 249.1v22.3h14v-8.3h84.1v84.2h-84v-45.2h-14v59.3h112.2v-112.3zm-29.1 31.6v112.2h112.2v-23.2h-14v9.2h-84.2v-84.2h84.1v44.3h14v-58.4h-112.1z" fill="#0082d7"/>
	</g>
</g><g fill="#333" stroke-width=".2578">
<path d="m56.171 27.605h-4.5201v-7.0758h4.7009c2.4796 0 4.0552 1.4409 4.0552 3.628-0.02583 2.1356-1.5756 3.4478-4.236 3.4478zm-4.5201-15.644h3.9518c2.4796 0 3.8744 1.2093 3.8744 3.1648 0 2.2643-1.4464 3.6794-3.6419 3.6794h-4.2101l0.02583-6.8442c-0.02583 0 0 0 0 0zm6.8964 7.5132c2.0663-0.61752 3.177-2.2385 3.177-4.5285 0-3.0362-2.273-4.8373-6.1215-4.8373h-6.1215v19.272h6.6897c4.0552 0 6.4573-1.9555 6.4573-5.2747 0-2.2642-1.5239-4.0139-4.081-4.6314z"/>
<path d="m108.09 10.135v19.271h2.1699v-7.4609h4.1836l4.2109 7.4609h2.582l-4.416-7.1523-0.56836-0.56641c2.5829-0.5918 4.2109-2.5469 4.2109-5.6602 0-3.7052-2.5054-5.8926-6.793-5.8926zm2.1465 1.8516h3.8476c2.6346 0 4.1856 1.4934 4.1856 4.0664 0 2.8046-1.7316 4.1934-4.3145 4.1934h-3.6934z"/>
<path d="m136.29 20.606h-8.1361v6.9986h9.066v1.8268h-11.236v-19.298h11.158v1.8268h-8.9885v6.8957h8.1361zm-68.809 8.7997h2.1696v-19.298h-2.1696zm12.295-17.445h-5.4499v-1.8268h13.044v1.8268h-5.4241v17.445h-2.1696zm10.719 0h5.4758v17.445h2.1696v-17.445h5.4241v-1.8268h-13.044l-0.02583 1.8268h1e-6zm59.536 7.6161 5.7599-9.4172h-2.6346l-4.3134 7.6419-0.1808 0.74617-0.18081-0.74617-4.3134-7.6419h-2.6087l5.7599 9.4172-5.9148 9.8547h2.6604l4.4426-7.9249 0.1808-0.74617 0.18081 0.74617 4.4684 7.9249h2.6604z"/>


</g></svg>
