<svg width="36" height="36" viewBox="0 0 36 36" fill="none" xmlns="http://www.w3.org/2000/svg">
<path d="M18 36C27.9411 36 36 27.9411 36 18C36 8.05887 27.9411 0 18 0C8.05887 0 0 8.05887 0 18C0 27.9411 8.05887 36 18 36Z" fill="#000D2B"/>
<path d="M17.91 6.61475L12.8273 9.59262L17.91 12.5716L23.0884 9.59262L17.91 6.61475ZM18.7459 22.5155V28.4724L25.65 24.5337V18.5757L18.7459 22.5155ZM23.9243 11.4657V17.4237L18.7448 20.4027V14.4447L23.9243 11.4657ZM11.457 17.4237L16.6365 20.4027V14.4447L11.457 11.4657V17.4237ZM11.457 25.4945L16.6365 28.4724V22.5155L11.457 19.5376V25.4934V25.4945Z" fill="white"/>
</svg>
