<!-- Generator: Adobe Illustrator 23.0.6, SVG Export Plug-In . SVG Version: 6.00 Build 0)  -->
<svg width="40" height="40" version="1.1" viewBox="0 0 40 40" xml:space="preserve" xmlns="http://www.w3.org/2000/svg">
<style type="text/css">
	.st0{fill:url(#SVGID_1_);}
	.st1{fill:#2059EB;}
</style>

<g transform="matrix(.2027 0 0 .2027 4.7973 4.7973)">
	
		<linearGradient id="SVGID_1_" x1="75" x2="75" y1="149" y2="1" gradientUnits="userSpaceOnUse">
			<stop stop-color="#1447EA" offset="0"/>
			<stop stop-color="#2B65FB" offset="1"/>
		</linearGradient>
		<path class="st0" d="m75 1c-40.9 0-74 33.1-74 74s33.1 74 74 74 74-33.1 74-74-33.1-74-74-74zm0 117.3c-23.9 0-43.3-19.4-43.3-43.3s19.4-43.3 43.3-43.3 43.3 19.4 43.3 43.3-19.4 43.3-43.3 43.3z" fill="url(#SVGID_1_)"/>
		<path class="st1" d="m85.5 88.9h-21c-1.8 0-3.3-1.5-3.3-3.3v-21.1c0-1.8 1.5-3.3 3.3-3.3h21.1c1.8 0 3.3 1.5 3.3 3.3v21.1c0 1.8-1.5 3.3-3.4 3.3z" fill="#2059eb"/>
	
</g>
</svg>
