<svg width="36" height="36" viewBox="0 0 36 36" fill="none" xmlns="http://www.w3.org/2000/svg">
<path d="M18 36C27.9414 36 36 27.9414 36 18C36 8.0586 27.9414 0 18 0C8.0586 0 0 8.0586 0 18C0 27.9414 8.0586 36 18 36Z" fill="#070A0E"/>
<path fill-rule="evenodd" clip-rule="evenodd" d="M10.3984 24.0356C9.86016 23.7062 9.53076 23.1212 9.53076 22.4912V18.974C9.53076 18.5564 9.87096 18.218 10.2886 18.2198C10.4218 18.2198 10.5532 18.2558 10.6684 18.3224L18.6046 22.9502C19.069 23.2202 19.3552 23.717 19.3552 24.2552V27.8984C19.357 28.3988 18.952 28.8056 18.4516 28.8056C18.2842 28.8056 18.1186 28.7588 17.9764 28.6724L10.3984 24.0356ZM22.228 17.3594C22.6924 17.6294 22.9768 18.128 22.9786 18.6644V26.0588C22.9786 26.2766 22.8616 26.4782 22.6708 26.5844L20.9338 27.5618C20.9122 27.5744 20.8888 27.5834 20.8636 27.5906V23.4848C20.8636 22.9538 20.5846 22.4606 20.1274 22.187L13.1578 18.0182V13.3832C13.1578 12.9656 13.498 12.6272 13.9156 12.629C14.0488 12.629 14.1802 12.665 14.2954 12.7316L22.228 17.3594ZM25.702 11.8982C26.1682 12.1682 26.4544 12.6668 26.4544 13.205V24.005C26.4526 24.2264 26.3302 24.4298 26.1358 24.536L24.4888 25.4252V17.9066C24.4888 17.3756 24.2098 16.8842 23.7562 16.6106L16.6318 12.3374V7.9418C16.6318 7.8086 16.6678 7.6772 16.7326 7.562C16.9432 7.202 17.4058 7.0796 17.7658 7.2884L25.702 11.8982Z" fill="#00D395"/>
</svg>
