<svg width="36" height="36" viewBox="0 0 36 36" fill="none" xmlns="http://www.w3.org/2000/svg">
<path d="M20.0616 19.4013C20.7701 19.0531 21.3668 18.5132 21.7838 17.8429C22.2008 17.1727 22.4215 16.3988 22.4207 15.6094C22.4207 13.28 20.5374 11.3922 18.2161 11.3922C15.8948 11.3922 14.0106 13.2799 14.0106 15.6092C14.0096 16.3989 14.2304 17.173 14.6478 17.8434C15.0652 18.5137 15.6624 19.0535 16.3714 19.4011V24.6096H20.0614V19.4013H20.0616ZM18.2162 31.5C10.7954 31.5 4.75891 25.4444 4.75891 18C4.75891 10.5556 10.7963 4.50108 18.2162 4.50108C24.2718 4.50108 29.4047 8.53308 31.0888 14.062H35.7268C33.9373 6.01506 26.7769 0 18.2162 0C8.30653 0 0.272949 8.05878 0.272949 18C0.272949 27.9412 8.30653 36 18.2162 36C26.7769 36 33.9373 29.9849 35.727 21.9379H31.089C29.4036 27.468 24.2718 31.5 18.2162 31.5Z" fill="#3AB03E"/>
</svg>
