<svg width="30" height="30" viewBox="0 0 30 30" fill="none" xmlns="http://www.w3.org/2000/svg">
<path d="M15 0C23.285 0 30 6.71632 30 15C30 23.285 23.285 30 15 30C6.71632 30 0 23.2844 0 15C0 6.71632 6.71632 0 15 0Z" fill="#F5AC37"/>
<path d="M15.5479 16.0519H21.2476C21.3691 16.0519 21.4265 16.0519 21.4353 15.8926C21.4818 15.3128 21.4818 14.7295 21.4353 14.149C21.4353 14.0363 21.3792 13.9897 21.2571 13.9897H9.91358C9.77318 13.9897 9.73538 14.0363 9.73538 14.1679V15.8366C9.73538 16.0519 9.73538 16.0519 9.96016 16.0519H15.5479ZM20.7987 12.0396C20.8149 11.9971 20.8149 11.9505 20.7987 11.9087C20.7036 11.7015 20.5908 11.5037 20.4599 11.3181C20.2628 11.0008 20.0306 10.7085 19.766 10.446C19.6411 10.2873 19.4967 10.1449 19.3347 10.0241C18.5233 9.33354 17.5587 8.84484 16.5219 8.59914C15.9988 8.48168 15.4642 8.42566 14.9282 8.43038H9.89401C9.7536 8.43038 9.7347 8.48641 9.7347 8.60859V11.9364C9.7347 12.0768 9.7347 12.1146 9.91291 12.1146H20.7312C20.7312 12.1146 20.8251 12.0957 20.844 12.0396H20.7981H20.7987ZM20.7987 18.002C20.6394 17.9844 20.4788 17.9844 20.3195 18.002H9.92303C9.78263 18.002 9.73538 18.002 9.73538 18.1896V21.4432C9.73538 21.593 9.73538 21.6308 9.92303 21.6308H14.723C14.9525 21.6484 15.182 21.6322 15.4068 21.5842C16.1034 21.5343 16.7885 21.3831 17.4419 21.134C17.6795 21.0517 17.909 20.9443 18.1257 20.8154H18.1912C19.3164 20.2302 20.2304 19.3108 20.8068 18.1822C20.8068 18.1822 20.8723 18.0405 20.7987 18.0033V18.002ZM7.85144 23.3177V23.2616V21.0773V20.3368V18.1336C7.85144 18.0114 7.85144 17.9932 7.70158 17.9932H5.66711C5.55439 17.9932 5.50781 17.9932 5.50781 17.8434V16.062H7.68268C7.80419 16.062 7.85144 16.062 7.85144 15.9027V14.1403C7.85144 14.0275 7.85144 13.9999 7.70158 13.9999H5.66711C5.55439 13.9999 5.50781 13.9999 5.50781 13.85V12.2003C5.50781 12.097 5.50781 12.0693 5.65766 12.0693H7.67323C7.81364 12.0693 7.85144 12.0693 7.85144 11.8911V6.83804C7.85144 6.68819 7.85144 6.65039 8.03909 6.65039H15.07C15.5803 6.67064 16.0872 6.72667 16.5887 6.81914C17.6222 7.01017 18.6151 7.3794 19.523 7.90658C20.1251 8.26096 20.6793 8.68891 21.1727 9.18167C21.5439 9.5671 21.8788 9.98425 22.1758 10.4284C22.4707 10.8786 22.7158 11.3599 22.9081 11.8628C22.9318 11.9937 23.0573 12.0822 23.1883 12.0599H24.8663C25.0817 12.0599 25.0817 12.0599 25.0911 12.2664V13.8041C25.0911 13.954 25.0351 13.9918 24.8846 13.9918H23.5906C23.4596 13.9918 23.4218 13.9918 23.4313 14.1605C23.4826 14.7316 23.4826 15.3047 23.4313 15.8757C23.4313 16.035 23.4313 16.0539 23.6101 16.0539H25.0904C25.1559 16.1383 25.0904 16.2227 25.0904 16.3077C25.0999 16.4164 25.0999 16.5264 25.0904 16.6351V17.7698C25.0904 17.9291 25.0439 17.9763 24.9028 17.9763H23.1309C23.0074 17.9527 22.8872 18.0317 22.8589 18.1545C22.437 19.2514 21.762 20.2349 20.8899 21.0233C20.5713 21.3102 20.2365 21.5802 19.8868 21.8293C19.5115 22.0453 19.1463 22.27 18.7616 22.4483C18.0535 22.7669 17.311 23.0018 16.5489 23.1509C15.8253 23.2805 15.0916 23.3393 14.3551 23.3291H7.84874V23.3197L7.85144 23.3177Z" fill="#FEFEFD"/>
</svg>
