<svg width="24" height="24" fill="none" version="1.1" viewBox="0 0 24 24" xmlns="http://www.w3.org/2000/svg">
 <path d="m3.5911 16.855c-0.61708 0.3563-1.4139 0.147-1.6955-0.5075-0.82801-1.9244-1.0928-4.0546-0.7486-6.1393 0.41455-2.5109 1.6869-4.8004 3.6003-6.4783 1.9133-1.678 4.3493-2.6406 6.8929-2.7239 2.5435-0.08327 5.0372 0.71798 7.0562 2.2672s3.4384 3.7506 4.0163 6.229c0.5779 2.4785 0.2785 5.0806-0.847 7.363-1.1256 2.2825-3.0078 4.1041-5.3259 5.1544-1.9245 0.872-4.0506 1.1675-6.1238 0.8658-0.7051-0.1026-1.1134-0.8181-0.929-1.5064 0.1844-0.6882 0.8925-1.086 1.6008-1.0088 1.491 0.1625 3.0068-0.0755 4.3871-0.701 1.7743-0.8039 3.215-2.1982 4.0765-3.9452 0.8616-1.747 1.0907-3.7388 0.6484-5.6358-0.4424-1.8971-1.5288-3.5821-3.0742-4.7679-1.5454-1.1858-3.4541-1.7991-5.401-1.7354-1.9469 0.06374-3.8115 0.80056-5.276 2.0849-1.4645 1.2844-2.4384 3.0368-2.7557 4.9588-0.24685 1.4951-0.08445 3.0209 0.45841 4.419 0.25791 0.6642 0.05691 1.4511-0.56016 1.8074z" fill="#ff5934"/>
</svg>
