<svg width="36" height="36" viewBox="0 0 36 36" fill="none" xmlns="http://www.w3.org/2000/svg">
<circle cx="18" cy="18" r="18" fill="#E2E8FF"/>
<g clip-path="url(#clip0)">
<path d="M18.0293 8.28781V8.29748C18.039 8.34585 18.039 8.40389 18.039 8.46192V15.4362C18.0293 15.4749 18.0003 15.4846 17.9713 15.5039C17.7682 15.6007 17.5747 15.6877 17.3716 15.7748C17.091 15.9005 16.8008 16.0359 16.5203 16.1617L15.5047 16.626C15.2241 16.7518 14.9436 16.8775 14.6728 17.0033C14.3439 17.158 14.0053 17.3031 13.6764 17.4579C13.3959 17.5836 13.1154 17.7191 12.8252 17.8448C12.5931 17.9512 12.3609 18.048 12.1384 18.1544C12.1191 18.164 12.0997 18.1737 12.0804 18.1737C12.0707 18.1737 12.0707 18.1737 12.061 18.164L12.3222 17.7287C12.8252 16.8969 13.3185 16.0746 13.8215 15.2428C14.3536 14.3528 14.8952 13.4629 15.4273 12.573C15.9206 11.7508 16.4236 10.9286 16.9169 10.1063C17.2748 9.50662 17.6424 8.90689 18.0003 8.30715C18.01 8.28781 18.0197 8.27814 18.0197 8.25879H18.0293C18.0197 8.26846 18.0293 8.27814 18.0293 8.28781Z" fill="#8A92B2"/>
<path d="M23.9679 18.164L23.9776 18.1737L22.5556 19.0152L18.0867 21.656C18.0673 21.6656 18.048 21.6753 18.0383 21.685C18.0093 21.685 18.0093 21.656 18.0093 21.6463V21.5592V15.5813C18.0093 15.5523 18.0093 15.5136 18.019 15.4845C18.0286 15.4458 18.0576 15.4555 18.0867 15.4652C18.2124 15.5232 18.3478 15.5813 18.4736 15.6393C18.8508 15.8134 19.2281 15.9875 19.6053 16.152C19.9342 16.2971 20.2534 16.4518 20.5823 16.5969C20.9112 16.742 21.2401 16.8968 21.569 17.0419C21.8495 17.1677 22.1397 17.3031 22.4202 17.4288C22.7007 17.5546 22.9909 17.69 23.2714 17.8158C23.4939 17.9125 23.7164 18.0189 23.9389 18.1156C23.9389 18.1446 23.9486 18.1543 23.9679 18.164Z" fill="#454A75"/>
<path d="M18.0288 27.6919C18.0288 27.7016 18.0192 27.7113 18.0192 27.7209H18.0095C18.0095 27.7016 17.9901 27.6919 17.9805 27.6726C17.3807 26.831 16.781 25.9798 16.1813 25.1382C15.5719 24.2773 14.9528 23.4068 14.3434 22.5458C13.7533 21.714 13.1536 20.8724 12.5635 20.0405C12.4088 19.818 12.254 19.6052 12.0992 19.3827C12.0896 19.3634 12.0799 19.3537 12.0605 19.3247C12.0896 19.3247 12.1089 19.3441 12.1186 19.3537C12.9601 19.8471 13.792 20.3404 14.6336 20.8337C15.6009 21.4044 16.5585 21.9751 17.5258 22.5458L18.0192 22.836C18.0385 22.8554 18.0385 22.8747 18.0385 22.8941V27.5565C18.0385 27.6049 18.0385 27.6532 18.0288 27.6919Z" fill="#8A92B2"/>
<path d="M12.0508 18.1834V18.1737C12.3603 18.0383 12.6602 17.8932 12.9697 17.7578C13.3663 17.574 13.7629 17.3999 14.1595 17.2161C14.4594 17.0806 14.7689 16.9355 15.0688 16.8001C15.5137 16.597 15.949 16.4035 16.394 16.2004C16.6939 16.065 16.9937 15.9295 17.3033 15.7845C17.5161 15.6877 17.7386 15.591 17.9514 15.4943C17.9707 15.4846 17.9997 15.4749 18.0094 15.4556C18.0191 15.4556 18.0191 15.4652 18.0094 15.4749V21.6173C18.0094 21.6463 17.9997 21.6754 18.0191 21.6947C17.9997 21.7237 17.9804 21.6947 17.9707 21.685C17.8837 21.6367 17.7966 21.5883 17.7095 21.5303C15.8426 20.4275 13.9661 19.3151 12.0991 18.2124C12.0895 18.2027 12.0701 18.193 12.0508 18.1834Z" fill="#62688F"/>
<path d="M23.9486 19.3247H23.9583C23.9583 19.3441 23.939 19.3634 23.9293 19.3827C22.1495 21.8881 20.3696 24.4031 18.5898 26.9084C18.406 27.1696 18.2125 27.4308 18.0287 27.6919C18.019 27.6823 18.019 27.6726 18.019 27.6629V27.6049V22.9134V22.8264C18.4253 22.5845 18.8219 22.3524 19.2282 22.1106C20.7952 21.1819 22.3623 20.263 23.9196 19.3344C23.9293 19.3441 23.939 19.3344 23.9486 19.3247Z" fill="#62688F"/>
<path d="M18.0189 15.4748V15.4554V15.3974V8.37475C18.0189 8.34573 18.0092 8.32638 18.0285 8.29736C19.9922 11.5572 21.9558 14.8073 23.9098 18.0672C23.9291 18.0962 23.9581 18.1349 23.9678 18.1736C23.8324 18.1252 23.7066 18.0575 23.5809 17.9995C23.4261 17.9318 23.2617 17.8544 23.1069 17.7867C23.0102 17.7383 22.9038 17.6996 22.807 17.6512C22.6426 17.5739 22.4782 17.5061 22.3137 17.4288C22.217 17.3901 22.1202 17.3417 22.0235 17.2933L21.3851 17.0031C21.2787 16.9548 21.1723 16.9064 21.0562 16.858L20.5919 16.6549C20.4952 16.6162 20.3984 16.5679 20.3017 16.5195L19.6633 16.2293C19.5569 16.1809 19.4505 16.1326 19.3344 16.0842L18.8701 15.8811C18.7637 15.8327 18.667 15.7843 18.5606 15.736C18.3768 15.6489 18.193 15.5619 17.9995 15.4845C18.0285 15.4748 18.0189 15.4748 18.0189 15.4748Z" fill="#62688F"/>
</g>
<defs>
<clipPath id="clip0">
<rect width="19.6364" height="19.6364" fill="white" transform="translate(8.18164 8.18164)"/>
</clipPath>
</defs>
</svg>
