<!-- Generator: Adobe Illustrator 19.2.1, SVG Export Plug-In . SVG Version: 6.00 Build 0)  -->
<svg id="layer" width="40" height="40" version="1.1" viewBox="0 0 40 40" xml:space="preserve" xmlns="http://www.w3.org/2000/svg">
<style type="text/css">
	.st0{fill:#133444;}
	.st1{fill:#C42370;}
	.st2{fill:#1C4D6B;}
	.st3{fill:#1D4259;}
	.st4{fill:#4B6B9A;}
	.st5{fill:#343535;}
	.st6{fill:#3E5578;}
	.st7{fill:#6DB2D8;}
	.st8{fill:#335F8A;}
	.st9{fill:#529BBA;}
</style>
<g transform="matrix(.16541 0 0 .1642 6.6752 -32.964)">
	
		
			
				<polygon class="st0" points="22 336.2 26.4 334.3 80.6 310.7 139.2 336.2 117.2 381.7 63.4 389.3 22.9 345.6" fill="#133444"/>
				<path class="st1" d="m127.1 308.2c-9.7-11.7-23.4-19.2-38.4-21.2l-1-0.1c-4.7-0.6-9.4-0.6-14.1 0l-1 0.1c-15 2-28.7 9.6-38.4 21.2l-2.4 4-4.1 6.7-3 4.9c0 0.1-0.1 0.3-0.2 0.4v0.1l6.5 3.9 41.5 24.6 8 4.7v-58.7l-8 3.6v-8.8l8-3.6 8 3.6 40.8 18.6z" fill="#c42370"/>
				<path class="st2" d="m141 350.8c-0.1 19.3-8.8 37.5-23.7 49.7-5.7 4.7-12.1 8.2-19.1 10.6-5.7 1.9-11.6 2.8-17.6 2.8-33.4 0-60.5-29.7-60.5-63.1 0-4.9 0.6-9.8 1.8-14.6l58.6 34.7 58.6-34.7c1.3 4.8 2 9.7 1.9 14.6z" fill="#1c4d6b"/>
				<polygon points="72.6 286.4 73.6 286.9 80.6 290 72.6 293.7"/>
				<polygon points="72.6 352.8 72.6 302.5 80.6 298.8 80.6 357.6"/>
				<polygon class="st3" points="136.8 324.4 80.6 298.8 80.6 357.6" fill="#1d4259"/>
				<polygon class="st4" points="136.8 324.4 80.6 231.2 80.6 298.8" fill="#4b6b9a"/>
				<path class="st5" d="m80.6 298.8v58.7l-8-4.7-48.1-28.4h-0.1 0.1c0-0.1 0.1-0.3 0.2-0.4l7-11.7 40.8-18.5v8.7z" fill="#343535"/>
				<polygon class="st6" points="24.6 324.3 72.6 302.5 80.6 298.8 80.6 357.6 72.6 352.8 24.5 324.4" fill="#3e5578"/>
				<polygon class="st7" points="24.5 324.4 80.6 231.2 80.6 298.8" fill="#6db2d8"/><g fill="#335f8a">
				<path class="st8" d="m57.9 409.1c0.8 0.4 1.7 0.7 2.5 1-0.8-0.3-1.6-0.7-2.5-1z"/>
				<path class="st8" d="m60.4 410.1c0.8 0.3 1.7 0.7 2.6 0.9-0.8-0.2-1.7-0.5-2.6-0.9z"/>
				<path class="st8" d="m65.3 411.7c0.7 0.2 1.3 0.4 2 0.5-0.7-0.1-1.4-0.3-2-0.5z"/>
				</g><path class="st7" d="m22 336.2 58.6 34.7c-0.8 5.3-2.2 10.4-4.2 15.4-4.7 11.4-14.1 23.4-32.5 14.2-14.9-12.2-23.6-30.4-23.7-49.7 0-4.9 0.6-9.8 1.8-14.6z" fill="#6db2d8"/>
				<path class="st9" d="m117.3 400.5-0.2 0.1c-0.3 0.2-0.6 0.5-0.9 0.7l-0.1 0.1c-0.3 0.3-0.7 0.5-1 0.8-0.4 0.3-0.7 0.6-1.1 0.8s-0.8 0.5-1.1 0.8c-0.4 0.3-0.7 0.4-1 0.7l-0.2 0.1c-0.4 0.2-0.7 0.4-1 0.7 0 0-0.1 0-0.1 0.1-0.4 0.2-0.7 0.4-1.1 0.7-0.4 0.2-0.8 0.4-1.2 0.7l-4.8 2.4c-0.8 0.4-1.7 0.7-2.5 1s-1.7 0.6-2.6 0.9c-0.3 0.1-0.7 0.2-1 0.3l-1.2 0.4c-0.7 0.2-1.3 0.4-2 0.5-0.2 0.1-0.5 0.1-0.8 0.2l-0.4 0.1-1.1 0.2c-0.4 0.1-0.6 0.1-1 0.2-0.3 0.1-0.6 0.1-0.9 0.2-0.3 0-0.7 0.1-1 0.2-0.2 0-0.3 0-0.5 0.1l-0.8 0.1h-0.4c-0.3 0-0.6 0.1-0.8 0.1-0.3 0-0.7 0.1-1 0.1h-0.8-0.7-0.8-1.1-2.4-1.1-0.8-0.7-0.8c-0.3 0-0.7-0.1-1-0.1s-0.6 0-0.8-0.1h-0.4c-0.2 0-0.5-0.1-0.8-0.1-0.2 0-0.3 0-0.5-0.1-0.3 0-0.7-0.1-1-0.2-0.3 0-0.6-0.1-0.9-0.2-0.3 0-0.7-0.1-1-0.2s-0.7-0.2-1.1-0.2l-0.4-0.1c-0.3 0-0.6-0.1-0.8-0.1-0.7-0.2-1.4-0.4-2-0.5l-1.2-0.4c-0.4-0.1-0.7-0.2-1-0.3-0.9-0.3-1.7-0.6-2.6-0.9s-1.7-0.7-2.5-1l-4.8-2.4c-0.4-0.2-0.8-0.4-1.2-0.7-0.4-0.2-0.7-0.4-1.1-0.7l-0.1-0.1c-0.4-0.2-0.7-0.4-1-0.7l-0.2-0.1c-0.3-0.2-0.7-0.4-1-0.7-0.3-0.2-0.8-0.5-1.1-0.8-0.4-0.3-0.8-0.5-1.1-0.8l-1-0.8-0.1-0.1c-0.3-0.2-0.6-0.5-0.9-0.7l-0.2-0.1c18.3 9.1 27.8-2.9 32.5-14.2 2-4.9 3.4-10.1 4.2-15.4 0.8 5.3 2.2 10.4 4.2 15.4 4.1 11.2 13.6 23.2 31.9 14.1z" fill="#529bba"/><g fill="#335f8a">
				<path class="st8" d="m94 412.3c0.7-0.2 1.4-0.4 2-0.5-0.6 0.1-1.3 0.3-2 0.5z"/>
				<path class="st8" d="m98.2 411c0.9-0.3 1.7-0.6 2.6-0.9-0.8 0.4-1.7 0.7-2.6 0.9z"/>
				<path class="st8" d="m100.8 410.1c0.8-0.3 1.7-0.7 2.5-1-0.8 0.3-1.6 0.7-2.5 1z"/>
				</g><path class="st4" d="m141 350.8c-0.1 19.3-8.8 37.5-23.7 49.7-18.3 9.1-27.8-2.9-32.5-14.2-2-4.9-3.4-10.1-4.2-15.4l58.6-34.7c1.2 4.8 1.8 9.7 1.8 14.6z" fill="#4b6b9a"/>
			
		
		
		
		
		
		
		
	
</g>
</svg>
