<svg width="149" height="41" viewBox="0 0 149 41" fill="none" xmlns="http://www.w3.org/2000/svg">
<path fill-rule="evenodd" clip-rule="evenodd" d="M19.3019 0.0733917C19.7021 0.025672 20.0993 0.000604047 20.4925 0H20.5387C21.7616 0.00302024 22.947 0.241921 24.082 0.769858C24.6852 1.05021 25.2388 1.44906 25.7831 1.84112C25.8046 1.85665 25.8262 1.87216 25.8477 1.88765C26.2053 2.14497 26.1811 2.22773 25.8933 2.58472C25.8256 2.66808 25.7543 2.74962 25.6785 2.82573C25.5086 2.99583 25.3387 3.16596 25.1688 3.3361C24.1493 4.35682 23.1295 5.37789 22.1059 6.39475C21.8437 6.6555 21.5769 6.91187 21.3101 7.16824C21.0346 7.43301 20.7591 7.69778 20.4886 7.96738C20.1423 8.31192 19.8007 8.66067 19.4591 9.00941C19.1865 9.28767 18.9139 9.56593 18.639 9.84204C18.4396 10.0424 18.2374 10.2399 18.0353 10.4375C17.7758 10.6911 17.5163 10.9447 17.2627 11.2042C16.9167 11.5575 16.5744 11.9141 16.2322 12.2707C15.8421 12.6772 15.4521 13.0837 15.0567 13.4851C14.764 13.7825 14.4648 14.0736 14.1655 14.3645C13.8866 14.6358 13.6077 14.9069 13.3342 15.1833C13.0054 15.5163 12.6815 15.8542 12.3576 16.1921C12.0733 16.4886 11.789 16.7852 11.5013 17.0785C11.2459 17.3388 10.9869 17.5956 10.7278 17.8525C10.4283 18.1495 10.1286 18.4466 9.83438 18.7493C9.514 19.0781 9.19911 19.4126 8.88412 19.7472C8.64621 20 8.40824 20.2527 8.16782 20.5032C8.0358 20.6409 7.89909 20.7743 7.76239 20.9077C7.63044 21.0364 7.49849 21.1652 7.37078 21.2978C7.11127 21.5675 6.85382 21.839 6.5964 22.1105C6.31214 22.4103 6.02793 22.7101 5.74106 23.0073C5.42204 23.3381 5.09998 23.6658 4.77784 23.9935C4.57297 24.2019 4.36807 24.4104 4.16389 24.6198C3.93178 24.8581 3.70103 25.0981 3.47022 25.3382C3.34063 25.473 3.21102 25.6078 3.08114 25.7424C3.07079 25.7531 3.06049 25.7638 3.05018 25.7746C2.99849 25.8286 2.94666 25.8827 2.88875 25.9293C2.51726 26.2301 2.3146 26.2329 2.03734 25.8439C2.01506 25.8126 1.99274 25.7813 1.9704 25.7499C1.5874 25.2128 1.19992 24.6694 0.9114 24.0812C0.338159 22.9148 -0.0547735 21.6871 0.00623525 20.7436C0.0261688 18.2715 0.669479 16.4132 2.02707 14.82C2.23145 14.58 2.45696 14.358 2.68253 14.136C2.8013 14.0191 2.92009 13.9021 3.03583 13.7825C3.23907 13.5727 3.44121 13.3616 3.64336 13.1505C4.01078 12.7669 4.37827 12.3831 4.75254 12.0063C5.18696 11.5691 5.62652 11.1368 6.06613 10.7044C6.3802 10.3955 6.69428 10.0866 7.00654 9.7759C7.23736 9.54623 7.46555 9.3138 7.69373 9.08138C7.94236 8.82813 8.19098 8.5749 8.44296 8.32528C8.75064 8.01992 9.06202 7.71804 9.37341 7.41615C9.58868 7.20745 9.80395 6.99875 10.018 6.78889C10.5179 6.29991 11.0159 5.80912 11.5103 5.31531C11.8604 4.96578 12.2089 4.61469 12.5575 4.26361C13.1696 3.64698 13.7817 3.03038 14.4022 2.42223C15.7661 1.08577 17.394 0.299909 19.3019 0.0733917ZM26.8595 8.68831C27.5822 7.80429 28.5438 7.46089 29.6538 7.41891C29.7154 7.41649 29.7764 7.41528 29.8368 7.41528C31.0147 7.41528 31.9833 7.85805 32.8238 8.72456C34.5357 10.489 36.2832 12.2205 38.034 13.9468C39.2149 15.1121 39.4155 15.3648 39.8039 15.9641C40.8522 17.5784 41.0845 19.0589 41.1385 19.4521C41.1693 19.6777 41.2717 20.4947 41.1515 21.5597C40.9129 23.6699 39.9863 25.1087 39.7172 25.5047C39.4448 25.9073 39.0793 26.325 38.3228 27.1359C37.7109 27.7898 37.0763 28.4237 36.4396 29.0538C36.099 29.3909 35.7525 29.7223 35.406 30.0537C35.1186 30.3286 34.8312 30.6035 34.5472 30.8816C34.1621 31.259 33.7816 31.6411 33.401 32.0232C33.2255 32.1994 33.0499 32.3757 32.8739 32.5515C32.6177 32.8075 32.3612 33.0633 32.1047 33.3191C31.7521 33.6708 31.3996 34.0224 31.0476 34.3745C30.7636 34.6585 30.4801 34.9431 30.1965 35.2277C29.8341 35.5914 29.4718 35.9551 29.1083 36.3177C28.8468 36.5786 28.5889 36.8436 28.331 37.1085C27.7244 37.7318 27.1178 38.3552 26.4644 38.9248C25.1983 40.0305 23.7229 40.7291 22.0213 40.9245C21.5937 40.9731 21.1696 40.9994 20.7495 41H20.7235C19.4858 40.9982 18.2829 40.7711 17.1316 40.2344C16.5653 39.9705 16.044 39.6034 15.5285 39.2403C15.4723 39.2008 15.4163 39.1613 15.3602 39.122C15.028 38.8889 15.0253 38.707 15.3061 38.4105C15.6365 38.06 15.9791 37.7215 16.3217 37.383C16.4631 37.2434 16.6045 37.1037 16.745 36.9632C16.8364 36.8718 16.9275 36.78 17.0185 36.6882C17.2042 36.501 17.3899 36.3138 17.5792 36.1302C18.0655 35.6563 18.5538 35.1845 19.0422 34.7127C19.1589 34.6 19.2756 34.4873 19.3922 34.3745C19.4154 34.3523 19.44 34.3316 19.4646 34.3108C19.4949 34.2853 19.5252 34.2597 19.5529 34.2314C19.7437 34.0356 19.9339 33.8392 20.1241 33.6428C20.4941 33.2608 20.864 32.8788 21.2388 32.5014C21.56 32.178 21.8857 31.8593 22.2113 31.5406C22.4231 31.3334 22.6348 31.1262 22.8453 30.9179C23.0867 30.6777 23.3226 30.4332 23.5589 30.1885L23.5595 30.1879C23.6105 30.135 23.6598 30.0802 23.709 30.0254C23.7678 29.9601 23.8265 29.8948 23.8881 29.8327C23.9949 29.7257 24.1016 29.6187 24.2083 29.5117C24.822 28.8965 25.4355 28.2814 26.0543 27.6711C26.3519 27.3771 26.6533 27.0868 26.9546 26.7966C27.2213 26.5397 27.4881 26.2828 27.7522 26.0233C27.9528 25.8264 28.1544 25.6304 28.356 25.4345C28.951 24.8561 29.546 24.2777 30.115 23.6747C30.7746 22.9758 31.1062 22.0954 31.2207 21.1546C31.3572 20.0408 31.0268 19.0242 30.4372 18.0858C30.1113 17.5675 29.6891 17.5213 29.237 17.9577C28.5564 18.6138 27.8776 19.2719 27.1989 19.93C26.8475 20.2706 26.4962 20.6113 26.1446 20.9517C25.9165 21.1726 25.6884 21.3936 25.4603 21.6145C24.594 22.4539 23.7276 23.2933 22.8594 24.1308C22.5349 24.4438 22.2087 24.7551 21.8824 25.0664C21.4046 25.5223 20.9267 25.9783 20.4541 26.4397C19.9302 26.9515 19.4105 27.4676 18.8908 27.9838C18.4446 28.427 17.9984 28.8702 17.5496 29.3105C17.2474 29.6069 16.9389 29.8967 16.6304 30.1866C16.4425 30.3631 16.2546 30.5396 16.0681 30.7176C15.5898 31.1743 15.1126 31.632 14.6352 32.0898C14.414 32.302 14.1927 32.5142 13.9712 32.7264C13.5846 33.0973 13.1062 33.3032 12.6036 33.4473C11.9193 33.6436 11.2177 33.6373 10.5227 33.5156C9.79391 33.3884 9.1796 33.0311 8.6583 32.5083C8.30178 32.1515 7.94425 31.7958 7.58674 31.4401C7.09169 30.9476 6.59666 30.4551 6.10439 29.9598C5.75314 29.6068 5.76522 29.5615 6.10107 29.2277C7.41268 27.9264 8.72262 26.6234 10.0325 25.3205C10.4911 24.8644 10.9496 24.4083 11.4082 23.9523C12.2106 23.1546 13.0133 22.3573 13.816 21.5599C14.3503 21.0292 14.8846 20.4985 15.4188 19.9677C15.642 19.7457 15.8649 19.5235 16.0878 19.3012C16.587 18.8033 17.0862 18.3054 17.5894 17.8115C17.8678 17.5389 18.1494 17.2698 18.431 17.0008C18.7581 16.6882 19.0852 16.3756 19.407 16.0577C19.7237 15.7447 20.0349 15.426 20.3461 15.1073C20.5982 14.8491 20.8504 14.5909 21.1056 14.3355C21.4285 14.0118 21.7549 13.6916 22.0813 13.3714C22.3053 13.1517 22.5293 12.9319 22.7522 12.711C23.017 12.4487 23.2807 12.1854 23.5444 11.9222C23.9399 11.5273 24.3354 11.1324 24.7344 10.7412C25.1724 10.3123 25.6147 9.88795 26.0571 9.46358C26.2609 9.26813 26.4646 9.07268 26.668 8.87678C26.6862 8.85927 26.705 8.84207 26.7237 8.82486C26.7713 8.78122 26.8189 8.73748 26.8595 8.68831ZM50.3812 16.6352C50.3812 17.2109 50.6977 17.6654 51.3311 17.9995C51.9641 18.3332 52.7355 18.621 53.6449 18.8626C54.5543 19.1046 55.4697 19.3867 56.3906 19.7089C57.3114 20.0312 58.0885 20.5781 58.7219 21.3492C59.3549 22.1209 59.6715 23.0934 59.6715 24.2677C59.6715 25.9255 59.0327 27.2263 57.7548 28.1704C56.4769 29.1142 54.8711 29.5863 52.9369 29.5863C51.2332 29.5863 49.7711 29.2296 48.5506 28.5156C47.3305 27.8019 46.444 26.8119 45.8916 25.5455L49.1033 23.6805C49.702 25.3383 50.9798 26.1671 52.9369 26.1671C54.894 26.1671 55.8726 25.5226 55.8726 24.2332C55.8726 23.6805 55.5561 23.2317 54.9227 22.8862C54.2894 22.541 53.5183 22.2474 52.6086 22.0055C51.6992 21.7639 50.7841 21.4818 49.8632 21.1592C48.9421 20.837 48.1653 20.3018 47.5319 19.5534C46.8989 18.8053 46.5821 17.8554 46.5821 16.7044C46.5821 15.1154 47.1867 13.8376 48.3954 12.8708C49.6041 11.9037 51.1064 11.4202 52.9025 11.4202C54.3299 11.4202 55.602 11.7367 56.7186 12.3697C57.8354 13.0031 58.6932 13.8838 59.2915 15.0118L56.149 16.7732C55.55 15.461 54.4682 14.8047 52.9025 14.8047C52.1885 14.8047 51.5899 14.9602 51.1064 15.271C50.6228 15.5818 50.3812 16.0366 50.3812 16.6352ZM82.8454 11.869H86.7826L81.3604 29.1372H77.6995L74.1079 17.4984L70.4815 29.1372H66.8206L61.3984 11.869H65.3356L68.6853 23.7841L72.3117 11.869H75.8693L79.4609 23.7841L82.8454 11.869ZM93.068 8.58811C92.6077 9.04869 92.055 9.27883 91.4105 9.27883C90.7657 9.27883 90.2075 9.04295 89.7355 8.57089C89.2634 8.09883 89.0275 7.54069 89.0275 6.89587C89.0275 6.25135 89.2577 5.69291 89.7183 5.22085C90.1785 4.74908 90.7427 4.5129 91.4105 4.5129C92.0783 4.5129 92.6421 4.74908 93.1027 5.22085C93.5633 5.69291 93.7935 6.25135 93.7935 6.89587C93.7935 7.54069 93.5518 8.10457 93.068 8.58811ZM93.2755 29.1372V11.869H89.5455V29.1372H93.2755ZM107.366 11.4202C109.738 11.4202 111.764 12.3009 113.445 14.062C115.125 15.8234 115.966 17.9705 115.966 20.5032C115.966 23.059 115.125 25.2115 113.445 26.9614C111.764 28.7113 109.738 29.5863 107.366 29.5863C104.742 29.5863 102.727 28.6192 101.323 26.6854V36.0445H97.5923V11.869H101.323V14.3558C102.727 12.3987 104.742 11.4202 107.366 11.4202ZM102.877 24.4748C103.913 25.5111 105.213 26.0291 106.779 26.0291C108.345 26.0291 109.646 25.5053 110.682 24.4576C111.718 23.4102 112.236 22.0919 112.236 20.5032C112.236 18.9146 111.718 17.5966 110.682 16.5488C109.646 15.5011 108.345 14.9774 106.779 14.9774C105.213 14.9774 103.913 15.5011 102.877 16.5488C101.84 17.5966 101.323 18.9146 101.323 20.5032C101.323 22.0919 101.84 23.4159 102.877 24.4748ZM122.286 22.0919C122.562 23.4045 123.195 24.4117 124.185 25.1139C125.176 25.8161 126.384 26.1671 127.812 26.1671C129.792 26.1671 131.277 25.4534 132.267 24.026L135.341 25.8219C133.637 28.3314 131.116 29.5863 127.777 29.5863C124.968 29.5863 122.7 28.7288 120.973 27.0133C119.247 25.2982 118.383 23.1281 118.383 20.5032C118.383 17.9246 119.235 15.766 120.939 14.0275C122.643 12.2894 124.83 11.4202 127.501 11.4202C130.034 11.4202 132.111 12.3066 133.735 14.0795C135.358 15.8524 136.169 18.0052 136.169 20.5377C136.169 20.9291 136.124 21.4474 136.031 22.0919H122.286ZM122.251 19.0526H132.405C132.152 17.6482 131.57 16.589 130.661 15.8753C129.751 15.1616 128.687 14.8047 127.467 14.8047C126.085 14.8047 124.934 15.1846 124.013 15.9445C123.092 16.7044 122.505 17.7403 122.251 19.0526ZM142.998 25.5806V26.0519H141.463V30.5806H140.963V26.0519H139.427V25.5806H142.998ZM148.284 25.5806V30.5806H147.784V26.3376L146.034 29.2665H145.963L144.212 26.3376V30.5806H143.713V25.5806H144.334L145.999 28.3664L147.663 25.5806H148.284Z" fill="#FF5934"/>
</svg>
