<svg width="338" height="337" viewBox="0 0 338 337" fill="none" xmlns="http://www.w3.org/2000/svg">
<g id="Group 2" filter="url(#filter0_d)">
<path id="Oval" fill-rule="evenodd" clip-rule="evenodd" d="M169 257C218.153 257 258 217.377 258 168.5C258 119.623 218.153 80 169 80C119.847 80 80 119.623 80 168.5C80 217.377 119.847 257 169 257Z" fill="url(#paint0_linear)"/>
<path id="Clip 2" fill-rule="evenodd" clip-rule="evenodd" d="M164.451 110.588C159.125 111.228 154.576 113.45 150.767 117.223C148.048 119.919 145.389 122.673 142.694 125.393C141.312 126.789 139.921 128.175 138.526 129.556C137.064 131.005 135.583 132.436 134.127 133.895C132.778 135.248 131.464 136.636 130.117 137.992C128.025 140.097 125.902 142.176 123.822 144.292C122.202 145.942 120.628 147.638 119.029 149.308C118.091 150.288 117.083 151.203 116.214 152.24C112.421 156.736 110.626 161.986 110.569 168.968C110.399 171.633 111.497 175.099 113.096 178.394C113.95 180.153 115.111 181.768 116.241 183.372C117.016 184.471 117.581 184.463 118.618 183.614C118.813 183.458 118.982 183.268 119.155 183.087C120.165 182.029 121.168 180.967 122.179 179.916C123.647 178.394 125.126 176.889 126.584 175.362C128.111 173.763 129.609 172.134 131.134 170.534C131.862 169.771 132.635 169.052 133.36 168.289C134.92 166.646 136.444 164.966 138.014 163.336C139.546 161.742 141.13 160.201 142.668 158.619C144.386 156.845 146.062 155.029 147.787 153.263C149.369 151.646 151.017 150.09 152.596 148.469C154.669 146.339 156.689 144.162 158.757 142.026C160.017 140.722 161.328 139.471 162.598 138.178C164.328 136.423 166.028 134.633 167.764 132.884C169.251 131.386 170.792 129.939 172.282 128.442C175.616 125.093 178.935 121.726 182.256 118.361C182.468 118.147 182.668 117.916 182.856 117.681C183.66 116.672 183.728 116.441 182.73 115.713C181.152 114.562 179.548 113.379 177.798 112.556C174.606 111.055 171.272 110.381 167.832 110.381C166.715 110.381 165.588 110.451 164.451 110.588ZM193.752 132.271C190.642 132.387 187.95 133.351 185.925 135.835C185.767 136.029 185.57 136.19 185.388 136.363C183.583 138.111 181.766 139.843 179.973 141.604C178.109 143.435 176.276 145.296 174.42 147.138C172.886 148.663 171.333 150.169 169.807 151.701C168.21 153.305 166.656 154.949 165.049 156.541C163.372 158.204 161.643 159.812 159.96 161.468C157.92 163.475 155.904 165.505 153.878 167.527C150.133 171.259 146.389 174.988 142.644 178.723C137.69 183.662 132.74 188.608 127.779 193.544C126.839 194.482 126.803 194.608 127.788 195.598C130.163 197.997 132.561 200.37 134.941 202.761C136.401 204.23 138.122 205.233 140.164 205.591C142.111 205.932 144.076 205.95 145.993 205.399C147.4 204.995 148.739 204.417 149.822 203.374C151.783 201.491 153.736 199.607 155.696 197.73C157.077 196.408 158.486 195.116 159.847 193.777C162.57 191.098 165.256 188.382 167.984 185.71C170.21 183.529 172.481 181.389 174.721 179.223C177.794 176.252 180.858 173.269 183.921 170.292C186.81 167.488 189.692 164.677 192.584 161.878C193.852 160.654 195.034 160.783 195.947 162.239C197.599 164.874 198.523 167.732 198.142 170.862C197.822 173.505 196.892 175.98 195.044 177.941C192.91 180.21 190.645 182.355 188.427 184.54C186.849 186.093 185.242 187.613 183.669 189.171C181.636 191.183 179.62 193.216 177.602 195.243C177.285 195.566 176.995 195.915 176.683 196.243C176.019 196.928 175.359 197.617 174.68 198.292C173.185 199.778 171.666 201.242 170.181 202.741C168.592 204.346 167.032 205.983 165.457 207.603C165.319 207.747 165.153 207.865 165.007 208.004C163.315 209.647 161.619 211.287 159.93 212.936C159.141 213.705 158.372 214.497 157.593 215.278C156.246 216.629 154.871 217.954 153.562 219.343C152.776 220.177 152.783 220.686 153.715 221.343C155.312 222.468 156.918 223.647 158.676 224.468C163.018 226.498 167.621 226.952 172.372 226.406C177.14 225.859 181.271 223.896 184.819 220.789C187.428 218.506 189.769 215.921 192.225 213.463C194.04 211.649 195.844 209.823 197.656 208.004C199.361 206.296 201.067 204.59 202.772 202.882C204.333 201.318 205.884 199.739 207.46 198.191C209.215 196.467 211.015 194.787 212.759 193.055C214.544 191.284 216.323 189.504 218.036 187.666C220.155 185.388 221.177 184.216 221.941 183.084C222.696 181.971 225.291 177.929 225.959 172C226.296 169.008 226.01 166.714 225.922 166.078C225.772 164.974 225.121 160.813 222.185 156.277C221.096 154.593 220.534 153.883 217.226 150.611C212.322 145.76 207.429 140.894 202.632 135.937C200.278 133.504 197.563 132.261 194.265 132.261C194.095 132.261 193.925 132.264 193.752 132.271Z" fill="white"/>
</g>
<defs>
<filter id="filter0_d" x="0" y="0" width="338" height="337" filterUnits="userSpaceOnUse" color-interpolation-filters="sRGB">
<feFlood flood-opacity="0" result="BackgroundImageFix"/>
<feColorMatrix in="SourceAlpha" type="matrix" values="0 0 0 0 0 0 0 0 0 0 0 0 0 0 0 0 0 0 127 0"/>
<feOffset/>
<feGaussianBlur stdDeviation="40"/>
<feColorMatrix type="matrix" values="0 0 0 0 1 0 0 0 0 0.340766 0 0 0 0 0.113725 0 0 0 0.261691 0"/>
<feBlend mode="normal" in2="BackgroundImageFix" result="effect1_dropShadow"/>
<feBlend mode="normal" in="SourceGraphic" in2="effect1_dropShadow" result="shape"/>
</filter>
<linearGradient id="paint0_linear" x1="45.6008" y1="156.672" x2="157.88" y2="291.135" gradientUnits="userSpaceOnUse">
<stop stop-color="#FF3E3E"/>
<stop offset="1" stop-color="#FFA416"/>
</linearGradient>
</defs>
</svg>
