<svg width="20" height="20" viewBox="0 0 20 20" fill="none" xmlns="http://www.w3.org/2000/svg">
<g id="Group 2">
<path id="Oval" fill-rule="evenodd" clip-rule="evenodd" d="M10 19.8876C15.5228 19.8876 20 15.4356 20 9.94382C20 4.452 15.5228 0 10 0C4.47715 0 0 4.452 0 9.94382C0 15.4356 4.47715 19.8876 10 19.8876Z" fill="url(#paint0_linear)"/>
<path id="Clip 2" fill-rule="evenodd" clip-rule="evenodd" d="M9.48877 3.43691C8.89025 3.50877 8.37919 3.75841 7.95121 4.18233C7.64567 4.48531 7.34687 4.79478 7.04406 5.10035C6.88883 5.25722 6.7325 5.41297 6.57581 5.56816C6.41147 5.73095 6.24513 5.8917 6.08152 6.0556C5.92993 6.20765 5.78235 6.36359 5.63094 6.516C5.39591 6.7525 5.15742 6.98603 4.92366 7.22383C4.74165 7.40921 4.56473 7.59978 4.38509 7.78738C4.27978 7.89758 4.16645 8.00036 4.0688 8.11685C3.64264 8.62207 3.44095 9.21192 3.43457 9.99642C3.41544 10.2959 3.53879 10.6854 3.71843 11.0556C3.81445 11.2532 3.9449 11.4347 4.07189 11.6149C4.15898 11.7384 4.22239 11.7375 4.33899 11.6421C4.36086 11.6245 4.3798 11.6032 4.3993 11.5828C4.51281 11.4639 4.6254 11.3447 4.73909 11.2265C4.90398 11.0556 5.07015 10.8865 5.23394 10.7148C5.40557 10.5352 5.57392 10.3522 5.74518 10.1724C5.82699 10.0866 5.9139 10.0059 5.99534 9.92012C6.17061 9.73548 6.34187 9.54676 6.51824 9.3636C6.69042 9.18451 6.86842 9.01135 7.04114 8.83356C7.23427 8.63429 7.42248 8.4302 7.61634 8.23186C7.79416 8.05018 7.97927 7.87535 8.15673 7.69312C8.38958 7.45384 8.61659 7.2092 8.84889 6.96918C8.99046 6.82269 9.13786 6.68213 9.28052 6.53693C9.47492 6.33969 9.66586 6.13857 9.86099 5.94208C10.0281 5.77373 10.2012 5.61113 10.3686 5.44297C10.7432 5.06665 11.1161 4.68829 11.4893 4.3103C11.5131 4.28622 11.5356 4.2603 11.5567 4.23381C11.6471 4.12047 11.6547 4.09455 11.5425 4.01269C11.3652 3.88342 11.185 3.75045 10.9884 3.65803C10.6297 3.48932 10.2551 3.41357 9.86864 3.41357C9.74311 3.41357 9.61648 3.42154 9.48877 3.43691ZM12.7812 5.87315C12.4317 5.88623 12.1293 5.99456 11.9017 6.27368C11.884 6.29542 11.8619 6.31347 11.8414 6.333C11.6385 6.52939 11.4344 6.72395 11.233 6.92181C11.0235 7.1276 10.8175 7.33671 10.609 7.5436C10.4367 7.71494 10.2621 7.88425 10.0907 8.05632C9.91122 8.2365 9.73668 8.42129 9.55611 8.60018C9.36768 8.78699 9.1734 8.96773 8.98423 9.1538C8.75505 9.37931 8.5286 9.60739 8.30088 9.83455C7.88015 10.2539 7.45943 10.6728 7.0387 11.0925C6.482 11.6474 5.92585 12.2032 5.36841 12.7578C5.26278 12.8632 5.25876 12.8774 5.36951 12.9886C5.63635 13.2582 5.90574 13.5247 6.17313 13.7934C6.33725 13.9584 6.53062 14.0712 6.75999 14.1113C6.97876 14.1497 7.19954 14.1517 7.41502 14.0898C7.57311 14.0445 7.72352 13.9794 7.84524 13.8623C8.06548 13.6508 8.28498 13.4391 8.50521 13.2281C8.66038 13.0796 8.81865 12.9345 8.97162 12.7839C9.27757 12.4829 9.57932 12.1778 9.88581 11.8775C10.136 11.6325 10.3912 11.3921 10.6428 11.1487C10.9881 10.8149 11.3324 10.4797 11.6765 10.1452C12.0011 9.83013 12.325 9.51435 12.6499 9.19986C12.7923 9.06224 12.9252 9.07679 13.0277 9.24039C13.2134 9.53646 13.3172 9.85758 13.2745 10.2093C13.2385 10.5063 13.1339 10.7843 12.9263 11.0046C12.6865 11.2596 12.4321 11.5006 12.1828 11.7462C12.0055 11.9206 11.8249 12.0914 11.6482 12.2664C11.4198 12.4925 11.1933 12.7209 10.9665 12.9486C10.9309 12.9849 10.8983 13.0242 10.8632 13.061C10.7887 13.138 10.7145 13.2154 10.6383 13.2913C10.4703 13.4582 10.2996 13.6228 10.1327 13.7912C9.95417 13.9715 9.7789 14.1554 9.60198 14.3374C9.58644 14.3536 9.5678 14.3669 9.55135 14.3825C9.36128 14.5671 9.17065 14.7514 8.98094 14.9367C8.8923 15.0231 8.80586 15.1121 8.71831 15.1998C8.56698 15.3516 8.41255 15.5005 8.26542 15.6565C8.17715 15.7503 8.17788 15.8074 8.2826 15.8813C8.46208 16.0077 8.64246 16.1401 8.84003 16.2324C9.32783 16.4605 9.84506 16.5115 10.3789 16.4502C10.9146 16.3887 11.3788 16.1681 11.7774 15.819C12.0706 15.5626 12.3336 15.272 12.6096 14.9959C12.8135 14.7921 13.0162 14.5869 13.2198 14.3825C13.4113 14.1906 13.6031 13.999 13.7946 13.807C13.9701 13.6312 14.1442 13.4538 14.3213 13.2799C14.5185 13.0863 14.7209 12.8974 14.9168 12.7029C15.1173 12.5039 15.3172 12.3038 15.5097 12.0973C15.7478 11.8414 15.8626 11.7097 15.9485 11.5826C16.0333 11.4575 16.3248 11.0033 16.3999 10.3371C16.4378 10.0009 16.4056 9.74317 16.3957 9.67168C16.3789 9.5477 16.3058 9.08011 15.9759 8.57052C15.8535 8.38131 15.7904 8.30154 15.4187 7.93381C14.8676 7.38884 14.3179 6.84204 13.7789 6.2851C13.5144 6.0117 13.2094 5.87205 12.8387 5.87205C12.8197 5.87205 12.8005 5.87242 12.7812 5.87315Z" fill="white"/>
</g>
<defs>
<linearGradient id="paint0_linear" x1="-3.86508" y1="8.61479" x2="8.7506" y2="23.723" gradientUnits="userSpaceOnUse">
<stop stop-color="#FF3E3E"/>
<stop offset="1" stop-color="#FFA416"/>
</linearGradient>
</defs>
</svg>
