<svg width="601" height="400" viewBox="0 0 601 400" fill="none" xmlns="http://www.w3.org/2000/svg">
<path d="M64.9351 246.981C66.7283 248.015 69.6385 248.015 71.4317 246.981C73.2249 245.947 73.2249 244.266 71.4317 243.229C69.6385 242.195 66.7283 242.195 64.9351 243.229C63.1419 244.266 63.1419 245.947 64.9351 246.981Z" fill="#E8ECF7"/>
<path d="M80.8317 256.159C82.6249 257.193 85.5351 257.193 87.3283 256.159C89.1214 255.125 89.1214 253.444 87.3283 252.407C85.5351 251.373 82.6249 251.373 80.8317 252.407C79.0385 253.444 79.0385 255.125 80.8317 256.159Z" fill="#E8ECF7"/>
<path d="M96.7319 265.337C98.5251 266.371 101.435 266.371 103.228 265.337C105.022 264.303 105.022 262.622 103.228 261.585C101.435 260.551 98.5251 260.551 96.7319 261.585C94.9354 262.622 94.9354 264.303 96.7319 265.337Z" fill="#E8ECF7"/>
<path d="M119.125 270.763C117.329 269.729 114.422 269.729 112.629 270.763C110.835 271.797 110.835 273.478 112.629 274.515C114.425 275.549 117.332 275.549 119.125 274.515C120.922 273.481 120.922 271.8 119.125 270.763Z" fill="#E8ECF7"/>
<path d="M49.0384 256.159C50.8316 257.193 53.7418 257.193 55.5349 256.159C57.3314 255.125 57.3314 253.444 55.5349 252.407C53.7418 251.373 50.8316 251.373 49.0384 252.407C47.2452 253.444 47.2452 255.125 49.0384 256.159Z" fill="#E8ECF7"/>
<path d="M64.9351 265.337C66.7283 266.371 69.6385 266.371 71.4317 265.337C73.2249 264.303 73.2249 262.622 71.4317 261.585C69.6385 260.551 66.7283 260.551 64.9351 261.585C63.1419 262.622 63.1419 264.303 64.9351 265.337Z" fill="#E8ECF7"/>
<path d="M80.8317 274.515C82.6282 275.549 85.5351 275.549 87.3283 274.515C89.1214 273.481 89.1214 271.8 87.3283 270.763C85.5351 269.729 82.6249 269.729 80.8317 270.763C79.0385 271.8 79.0385 273.481 80.8317 274.515Z" fill="#E8ECF7"/>
<path d="M103.228 279.944C101.435 278.91 98.525 278.907 96.7319 279.944C94.9387 280.978 94.9387 282.659 96.7319 283.693C98.525 284.727 101.435 284.727 103.228 283.693C105.022 282.659 105.022 280.978 103.228 279.944Z" fill="#E8ECF7"/>
<path d="M33.1383 265.337C34.9348 266.371 37.8417 266.371 39.6349 265.337C41.4281 264.303 41.4281 262.622 39.6349 261.585C37.8384 260.551 34.9315 260.551 33.1383 261.585C31.3452 262.622 31.3452 264.303 33.1383 265.337Z" fill="#E8ECF7"/>
<path d="M49.0384 274.515C50.8316 275.549 53.7418 275.549 55.5349 274.515C57.3314 273.481 57.3314 271.8 55.5349 270.763C53.7418 269.729 50.8316 269.729 49.0384 270.763C47.2452 271.8 47.2452 273.481 49.0384 274.515Z" fill="#E8ECF7"/>
<path d="M64.9351 283.693C66.7283 284.727 69.6385 284.727 71.4317 283.693C73.2249 282.659 73.2249 280.979 71.4317 279.944C69.6385 278.907 66.7283 278.907 64.9351 279.944C63.1419 280.979 63.1419 282.659 64.9351 283.693Z" fill="#E8ECF7"/>
<path d="M84.0834 293.65C86.6206 293.65 88.6774 292.463 88.6774 290.999C88.6774 289.534 86.6206 288.347 84.0834 288.347C81.5462 288.347 79.4894 289.534 79.4894 290.999C79.4894 292.463 81.5462 293.65 84.0834 293.65Z" fill="#E8ECF7"/>
<path d="M20.4899 275.291C23.0271 275.291 25.0839 274.104 25.0839 272.639C25.0839 271.175 23.0271 269.987 20.4899 269.987C17.9527 269.987 15.8959 271.175 15.8959 272.639C15.8959 274.104 17.9527 275.291 20.4899 275.291Z" fill="#E8ECF7"/>
<path d="M33.1417 283.693C34.9349 284.727 37.8451 284.727 39.6383 283.693C41.4314 282.659 41.4314 280.979 39.6383 279.941C37.8451 278.907 34.9349 278.907 33.1417 279.941C31.3452 280.979 31.3452 282.659 33.1417 283.693Z" fill="#E8ECF7"/>
<path d="M49.0384 292.875C50.8316 293.909 53.7418 293.909 55.5349 292.875C57.3314 291.837 57.3314 290.16 55.5349 289.123C53.7418 288.088 50.8316 288.088 49.0384 289.123C47.2452 290.157 47.2452 291.837 49.0384 292.875Z" fill="#E8ECF7"/>
<path d="M71.4317 298.301C69.6385 297.266 66.7283 297.266 64.9351 298.301C63.1419 299.335 63.1419 301.015 64.9351 302.053C66.7283 303.087 69.6385 303.087 71.4317 302.053C73.2282 301.015 73.2282 299.335 71.4317 298.301Z" fill="#E8ECF7"/>
<path d="M7.84146 279.941C6.04828 278.907 3.13808 278.907 1.34489 279.941C-0.448297 280.979 -0.448297 282.656 1.34489 283.693C3.13808 284.727 6.04828 284.727 7.84146 283.693C9.63796 282.659 9.63796 280.979 7.84146 279.941Z" fill="#E8ECF7"/>
<path d="M23.7415 289.123C21.9483 288.088 19.0381 288.088 17.2449 289.123C15.4517 290.157 15.4517 291.837 17.2449 292.875C19.0381 293.909 21.9483 293.909 23.7415 292.875C25.5347 291.837 25.5347 290.157 23.7415 289.123Z" fill="#E8ECF7"/>
<path d="M39.6382 298.301C37.845 297.266 34.9348 297.266 33.1416 298.301C31.3485 299.335 31.3485 301.015 33.1416 302.053C34.9348 303.087 37.845 303.087 39.6382 302.053C41.4314 301.019 41.4314 299.335 39.6382 298.301Z" fill="#E8ECF7"/>
<path d="M55.5349 307.479C53.7418 306.444 50.8316 306.444 49.0384 307.479C47.2452 308.513 47.2452 310.193 49.0384 311.231C50.8349 312.265 53.7418 312.265 55.5349 311.231C57.3314 310.193 57.3314 308.513 55.5349 307.479Z" fill="#E8ECF7"/>
<path d="M573.438 196.871C573.438 199.606 571.499 200.723 569.132 199.357L450.387 130.798C448.021 129.433 446.082 126.075 446.082 123.341V23.9032C446.082 21.1687 448.021 20.0517 450.387 21.4173L569.132 89.976C571.499 91.3416 573.438 94.6993 573.438 97.4338V196.871Z" fill="#F6F6FB"/>
<path d="M572.006 199.732L572.009 199.735L572.069 199.702C572.046 199.715 572.026 199.722 572.006 199.732Z" fill="#CED3F8"/>
<path d="M572.722 87.9044L453.974 19.349C452.8 18.6728 451.733 18.6065 450.954 19.044L450.944 19.0507C450.934 19.054 450.928 19.0606 450.921 19.0639L447.368 21.1157C448.147 20.6781 449.214 20.7444 450.387 21.4206L569.132 89.9793C571.499 91.3449 573.438 94.7026 573.438 97.4371V196.874C573.438 198.184 572.99 199.115 572.268 199.589L575.595 197.67L575.592 197.667C576.467 197.262 577.024 196.268 577.024 194.806V95.3688C577.027 92.6277 575.088 89.2733 572.722 87.9044Z" fill="url(#paint0_linear)"/>
<path d="M569.132 89.976L450.387 21.4206C448.021 20.055 446.082 21.172 446.082 23.9065V28.6696L573.438 102.2V97.4338C573.438 94.6993 571.499 91.3449 569.132 89.976Z" fill="#FFAD02"/>
<path d="M450.52 24.4071L453.911 26.366V30.2805L450.52 28.3216V24.4071Z" fill="white"/>
<path d="M457.159 28.2419L460.546 30.1975V34.1121L457.159 32.1532V28.2419Z" fill="white"/>
<path d="M463.798 32.0736L467.185 34.0292V37.9437L463.798 35.9881V32.0736Z" fill="white"/>
<path d="M481.057 58.7395L455.223 43.8239V39.0741L481.057 53.9897V58.7395Z" fill="#FFAD02"/>
<path d="M568.532 122.724L463.798 62.2563V59.8831L568.532 120.351V122.724Z" fill="#FFAD02"/>
<path d="M568.532 128.319L450.987 60.4531V58.0798L568.532 125.943V128.319Z" fill="#FFAD02"/>
<path d="M568.532 133.911L450.987 66.0447V63.6715L568.532 131.537V133.911Z" fill="#FFAD02"/>
<path d="M568.532 139.506L450.987 71.6398V69.2666L568.532 137.129V139.506Z" fill="#FFAD02"/>
<path d="M568.532 145.098L450.987 77.2315V74.8583L568.532 142.724V145.098Z" fill="#FFAD02"/>
<path d="M568.532 150.692L450.987 82.8265V80.4532L568.532 148.316V150.692Z" fill="#FFAD02"/>
<path d="M568.532 156.284L450.987 88.4182V86.0449L568.532 153.911V156.284Z" fill="#FFAD02"/>
<path d="M568.532 161.879L450.987 94.0131V91.6399L568.532 159.503V161.879Z" fill="#FFAD02"/>
<path d="M568.532 167.471L450.987 99.6049V97.2317L568.532 165.098V167.471Z" fill="#FFAD02"/>
<path d="M512.018 140.437L450.987 105.2V102.827L512.018 138.064V140.437Z" fill="#807DFB"/>
<path d="M563.746 191.72C562.741 191.14 561.714 190.222 561.353 188.923L560.063 184.76C559.41 182.685 561.14 181.982 562.188 181.893L560.163 176.666C559.536 176.719 558.525 176.613 557.61 176.085C556.991 175.728 556.414 175.174 556.029 174.345L554.011 170.265C553 168.237 554.286 166.825 555.148 166.341L552.277 161.369C551.644 161.73 550.458 162.038 549.377 161.412C548.996 161.19 548.628 160.855 548.3 160.364L545.691 156.645C544.385 154.796 545.148 152.777 545.758 151.926L542.237 147.547C541.72 148.266 540.583 149.188 539.35 148.478C539.128 148.352 538.906 148.17 538.681 147.928L535.661 144.819C534.153 143.284 534.339 140.789 534.657 139.628L530.723 136.141C530.428 137.239 529.536 138.889 527.832 137.882L524.61 135.611C523.003 134.484 522.595 131.687 522.599 130.295L518.522 127.941C518.518 129.33 518.101 131.65 516.496 130.921C516.496 130.928 514.107 129.87 512.88 129.41C511.525 128.495 510.693 125.952 510.411 124.564L506.47 123.506C506.748 124.865 506.907 127.156 505.863 127.484C504.471 127.252 503.112 127.113 501.786 127.066C500.557 126.357 499.43 124.133 498.919 122.817L498.628 122.843V115.515C498.628 112.117 496.218 107.948 493.278 106.247L446.088 79.0015V123.347C446.088 126.082 448.027 129.436 450.394 130.805L498.631 158.654V152.569C503.583 147.696 511.544 147.275 520.51 152.453C531.657 158.889 541.207 172.158 545.327 185.615L565.778 197.421C566 197.451 566.215 197.491 566.404 197.541L565.36 192.406C564.919 192.287 564.339 192.062 563.746 191.72Z" fill="#DAE0F5"/>
<path d="M226.096 186.059C223.978 184.836 221.197 184.226 218.42 184.226H193.544V196.762H218.42C221.197 196.762 223.975 196.148 226.096 194.925C228.218 193.699 229.278 192.098 229.278 190.494C229.278 188.889 228.221 187.285 226.096 186.059Z" fill="url(#paint1_linear)"/>
<path d="M323.038 154.922C320.92 153.699 318.139 153.089 315.361 153.089H247.482V165.625H315.358C318.136 165.625 320.913 165.011 323.035 163.788C325.156 162.562 326.217 160.961 326.217 159.357C326.22 157.749 325.159 156.145 323.038 154.922Z" fill="url(#paint2_linear)"/>
<path d="M271.201 170.49C269.083 169.267 266.302 168.657 263.525 168.657H220.515V181.193H263.525C266.302 181.193 269.08 180.58 271.201 179.357C273.323 178.13 274.383 176.529 274.383 174.925C274.383 173.318 273.323 171.717 271.201 170.49Z" fill="url(#paint3_linear)"/>
<path d="M591.741 289.712C592.069 289.368 592.474 289.119 592.911 288.943H598.075L600.233 284.22L598.287 283.918C597.697 283.829 597.021 283.633 596.468 283.315C595.841 282.954 595.377 282.43 595.387 281.714C595.434 281.088 595.43 280.458 595.38 279.835C595.337 278.486 596.988 277.826 598.241 277.631L600.19 277.329L597.979 272.609H592.818C592.649 272.54 592.484 272.463 592.328 272.374C592.076 272.228 591.841 272.052 591.635 271.84C591.138 271.283 590.594 270.74 590.001 270.209C588.801 269.049 589.66 267.999 590.578 267.465L592 266.64L586.013 263.182L584.592 264.008C583.677 264.541 581.864 265.042 579.858 264.352C578.937 264.011 577.996 263.696 577.034 263.411C576.666 263.292 576.361 263.156 576.11 263.01C574.959 262.347 574.9 261.459 575.172 260.862L575.685 259.739L567.525 258.472L567.011 259.599C566.683 260.325 565.549 261.287 563.219 261.27C562.135 261.24 561.048 261.24 559.971 261.267C558.731 261.277 557.826 261.011 557.2 260.647C556.65 260.329 556.315 259.937 556.153 259.599L555.625 258.469L547.482 259.735L548.009 260.859C548.35 261.588 548.201 262.745 546.176 263.405C545.218 263.69 544.28 264.004 543.362 264.346C541.366 265.035 539.55 264.535 538.625 264.004L537.193 263.179L531.243 266.636L532.672 267.462C533.594 267.995 534.465 269.046 533.282 270.206C532.695 270.74 532.155 271.283 531.664 271.837C530.534 273.01 528.539 273.103 527.283 272.911L525.33 272.609L523.172 277.329L525.121 277.631C525.708 277.723 526.388 277.916 526.938 278.234C527.564 278.595 528.028 279.119 528.022 279.835C527.972 280.461 527.975 281.091 528.025 281.714C528.038 282.208 527.826 282.612 527.488 282.931H514.183V288.943H525.423H530.587C530.753 289.01 530.915 289.086 531.071 289.175C531.323 289.321 531.558 289.497 531.767 289.712C532.264 290.269 532.811 290.809 533.405 291.343C533.633 291.565 533.786 291.781 533.879 291.989H526.152V298.367H537.839V298.108L538.814 297.541C539.729 297.008 541.542 296.507 543.55 297.2C543.908 297.333 544.273 297.458 544.638 297.584V303.08H555.811V303.07L555.881 303.08L556.398 301.953C556.434 301.874 556.484 301.791 556.54 301.708V303.083H567.78L575.924 301.82L575.397 300.694C575.092 300.044 575.185 299.049 576.66 298.373H586.212L592.159 294.916L590.73 294.091C589.805 293.557 588.934 292.507 590.12 291.346C590.714 290.809 591.251 290.266 591.741 289.712ZM572.573 287.047C566.583 290.528 556.832 290.531 550.799 287.051C544.767 283.567 544.74 277.919 550.73 274.439C556.726 270.955 566.474 270.955 572.507 274.439C578.536 277.919 578.569 283.564 572.573 287.047Z" fill="url(#paint4_linear)"/>
<path d="M563.961 250.68C563.879 250.859 563.829 251.068 563.829 251.286L563.799 261.466C563.799 261.247 563.852 261.041 563.932 260.859L564.445 259.735L564.475 249.556L563.961 250.68Z" fill="#BBBFE2"/>
<path d="M536.802 250.68L536.275 249.556L536.245 259.735L536.772 260.859C536.858 261.045 536.915 261.26 536.915 261.489L536.944 251.31C536.944 251.081 536.888 250.866 536.802 250.68Z" fill="#CED2F4"/>
<path d="M579.368 257.283C578.774 257.627 578.204 258.191 578.204 258.857L578.175 269.036C578.178 268.367 578.745 267.806 579.338 267.462L580.76 266.636L580.79 256.457L579.368 257.283Z" fill="#BBBFE2"/>
<path d="M521.469 257.283L520.04 256.457L520.01 266.636L521.439 267.462C522.042 267.81 522.626 268.38 522.622 269.059L522.652 258.88C522.655 258.201 522.072 257.631 521.469 257.283Z" fill="#CED2F4"/>
<path d="M587.034 267.452C585.798 267.644 584.177 268.29 584.171 269.603L584.141 279.782C584.144 278.469 585.765 277.826 587.005 277.631L588.954 277.329L588.983 267.15L587.034 267.452Z" fill="#BBBFE2"/>
<path d="M584.211 270.673L584.181 280.852C584.181 281.141 584.167 281.429 584.147 281.714L584.177 271.535C584.201 271.247 584.211 270.962 584.211 270.673Z" fill="#BBBFE2"/>
<path d="M516.808 271.336L516.812 269.653C516.818 268.937 516.354 268.413 515.728 268.052C515.178 267.733 514.498 267.541 513.911 267.448L511.962 267.147L511.933 277.326L513.882 277.627C514.468 277.72 515.148 277.912 515.698 278.231C516.228 278.536 516.639 278.96 516.749 279.52L516.745 280.71C516.745 281.045 516.759 281.38 516.782 281.714L516.812 271.535C516.812 271.469 516.812 271.403 516.808 271.336Z" fill="#CED2F4"/>
<path d="M516.815 271.585L516.785 281.764C516.785 281.747 516.785 281.731 516.785 281.711L516.815 271.532C516.815 271.552 516.815 271.568 516.815 271.585Z" fill="#242D3C"/>
<path d="M589.023 274.041L588.993 284.217L586.835 288.943L586.865 278.764L589.023 274.041Z" fill="#BBBFE2"/>
<path d="M514.216 278.764L514.187 288.943L511.979 284.22L512.006 274.041L514.216 278.764Z" fill="#CED2F4"/>
<path d="M584.913 278.459C583.657 278.267 581.658 278.357 580.528 279.533C580.037 280.09 579.5 280.63 578.91 281.164C578.499 281.565 578.337 281.953 578.337 282.311L578.307 292.49C578.307 292.132 578.473 291.744 578.881 291.343C579.471 290.813 580.007 290.269 580.498 289.712C581.628 288.536 583.627 288.446 584.883 288.638L586.835 288.943L586.865 278.764L584.913 278.459Z" fill="url(#paint5_linear)"/>
<path d="M522.198 281.164C521.604 280.63 521.054 280.09 520.56 279.533C520.355 279.321 520.12 279.146 519.864 278.996C518.714 278.333 517.186 278.3 516.159 278.459L514.216 278.764L514.187 288.943L516.129 288.639C517.156 288.479 518.684 288.513 519.835 289.175C520.086 289.321 520.322 289.497 520.531 289.712C521.028 290.269 521.575 290.81 522.168 291.343C522.589 291.751 522.758 292.145 522.755 292.51L522.784 282.331C522.784 281.966 522.619 281.572 522.198 281.164Z" fill="url(#paint6_linear)"/>
<path d="M580.949 284.731L580.919 294.91L574.972 298.367L574.999 288.188L580.949 284.731Z" fill="#BBBFE2"/>
<path d="M526.185 288.188L526.156 298.367L520.169 294.91L520.199 284.731L526.185 288.188Z" fill="#CED2F4"/>
<path d="M573.567 287.362C572.642 286.832 570.829 286.332 568.831 287.024C567.916 287.366 566.978 287.681 566.017 287.966C564.512 288.456 564.041 289.222 564.041 289.881L564.011 300.061C564.015 299.401 564.482 298.635 565.987 298.145C566.948 297.856 567.886 297.545 568.801 297.203C570.796 296.511 572.613 297.011 573.537 297.541L574.969 298.367L574.999 288.188L573.567 287.362Z" fill="url(#paint7_linear)"/>
<path d="M536.089 288.363C535.834 288.217 535.529 288.082 535.161 287.962C534.2 287.677 533.262 287.362 532.344 287.021C530.335 286.328 528.522 286.832 527.607 287.362L526.185 288.188L526.156 298.367L527.577 297.541C528.492 297.008 530.305 296.507 532.314 297.2C533.232 297.541 534.17 297.856 535.131 298.141C535.499 298.261 535.808 298.397 536.059 298.542C536.862 299.006 537.133 299.577 537.133 300.084L537.163 289.905C537.163 289.401 536.891 288.827 536.089 288.363Z" fill="url(#paint8_linear)"/>
<path d="M564.714 291.635L564.684 301.814L556.54 303.077L556.57 292.901L564.714 291.635Z" fill="#BBBFE2"/>
<path d="M556.04 291.771C555.881 291.429 555.546 291.038 554.996 290.72C554.369 290.359 553.468 290.094 552.225 290.104C551.147 290.13 550.06 290.13 548.976 290.1C546.649 290.084 545.519 291.045 545.184 291.771L544.667 292.898L544.637 303.077L545.155 301.95C545.489 301.224 546.62 300.263 548.946 300.279C550.03 300.309 551.117 300.309 552.195 300.283C553.434 300.273 554.339 300.538 554.966 300.899C555.516 301.217 555.851 301.608 556.01 301.95L556.537 303.077L556.567 292.898L556.04 291.771Z" fill="url(#paint9_linear)"/>
<path d="M579.52 283.909L580.945 284.734L574.999 288.191L573.567 287.366C572.642 286.835 570.829 286.335 568.831 287.028C567.916 287.369 566.978 287.684 566.017 287.969C563.991 288.628 563.842 289.785 564.184 290.511L564.711 291.638L556.567 292.901L556.04 291.774C555.881 291.433 555.546 291.041 554.996 290.723C554.369 290.362 553.468 290.097 552.225 290.107C551.147 290.133 550.06 290.133 548.976 290.103C546.649 290.087 545.519 291.048 545.184 291.774L544.667 292.901L536.507 291.638L537.024 290.508C537.292 289.911 537.233 289.03 536.083 288.367C535.827 288.221 535.522 288.085 535.155 287.966C534.193 287.681 533.255 287.366 532.337 287.024C530.329 286.331 528.515 286.835 527.601 287.366L526.179 288.191L520.193 284.734L521.614 283.909C522.529 283.375 523.391 282.324 522.191 281.164C521.598 280.63 521.048 280.09 520.554 279.533C520.348 279.321 520.113 279.145 519.858 278.996C518.708 278.333 517.18 278.3 516.152 278.459L514.21 278.764L511.999 274.041L513.945 273.739C515.197 273.544 516.848 272.884 516.808 271.532C516.759 270.909 516.755 270.279 516.805 269.653C516.812 268.937 516.348 268.413 515.721 268.052C515.171 267.733 514.491 267.541 513.905 267.448L511.956 267.147L514.114 262.427L516.066 262.728C517.322 262.921 519.317 262.831 520.448 261.654C520.938 261.098 521.479 260.554 522.065 260.02C523.252 258.86 522.38 257.81 521.455 257.276L520.027 256.451L525.973 252.993L527.405 253.819C528.327 254.352 530.143 254.85 532.142 254.16C533.06 253.819 533.998 253.504 534.956 253.219C536.981 252.559 537.13 251.402 536.789 250.673L536.262 249.55L544.406 248.283L544.933 249.414C545.092 249.755 545.43 250.143 545.98 250.461C546.606 250.822 547.511 251.091 548.751 251.081C549.828 251.054 550.915 251.054 551.999 251.084C554.326 251.101 555.46 250.14 555.791 249.414L556.308 248.287L564.469 249.553L563.952 250.677C563.68 251.273 563.739 252.158 564.89 252.824C565.142 252.97 565.446 253.106 565.814 253.225C566.776 253.511 567.717 253.825 568.638 254.167C570.644 254.856 572.457 254.356 573.372 253.822L574.794 252.997L580.78 256.454L579.358 257.279C578.443 257.813 577.581 258.864 578.781 260.024C579.371 260.554 579.918 261.098 580.415 261.654C580.621 261.867 580.856 262.042 581.108 262.188C582.258 262.851 583.789 262.884 584.817 262.725L586.759 262.423L588.97 267.143L587.021 267.445C585.768 267.641 584.117 268.3 584.161 269.649C584.21 270.272 584.214 270.902 584.167 271.529C584.157 272.245 584.621 272.768 585.248 273.13C585.798 273.448 586.477 273.64 587.067 273.733L589.013 274.034L586.855 278.758L584.903 278.453C583.647 278.26 581.648 278.35 580.518 279.527C580.027 280.084 579.49 280.624 578.9 281.157C577.724 282.324 578.595 283.375 579.52 283.909ZM539.589 276.872C545.622 280.355 555.373 280.352 561.363 276.868C567.359 273.385 567.326 267.74 561.293 264.256C555.261 260.773 545.513 260.773 539.516 264.256C533.527 267.74 533.557 273.388 539.589 276.872Z" fill="#F0F0F5"/>
<path d="M544.671 292.901L544.641 303.077L536.48 301.814L536.51 291.635L544.671 292.901Z" fill="#CED2F4"/>
<path d="M579.484 261.237H550.362V279.47H579.484V261.237Z" fill="url(#paint10_linear)"/>
<path d="M565.791 278.38C557.359 283.279 543.636 283.285 535.145 278.383C531.111 276.053 528.989 273.037 528.771 269.984C528.505 273.398 530.63 276.865 535.145 279.47C543.633 284.373 557.359 284.366 565.791 279.467C570.223 276.892 572.311 273.481 572.069 270.11C571.834 273.12 569.742 276.083 565.791 278.38Z" fill="url(#paint11_linear)"/>
<path d="M561.197 262.755C555.208 259.298 545.526 259.285 539.573 262.745C534.28 265.821 532.526 271.23 537.889 275.645C538.386 275.238 538.943 274.847 539.573 274.479C545.526 271.018 555.208 271.021 561.197 274.479C561.853 274.856 562.437 275.264 562.951 275.692C568.055 271.323 566.554 265.847 561.197 262.755Z" fill="#807EF1"/>
<path d="M565.695 260.63C557.206 255.728 543.484 255.725 535.045 260.63C530.62 263.202 528.532 266.616 528.771 269.987C528.989 273.04 531.111 276.056 535.144 278.386C543.633 283.289 557.359 283.282 565.791 278.383C569.745 276.086 571.837 273.123 572.069 270.117C572.334 266.703 570.209 263.235 565.695 260.63ZM539.573 263.245C545.526 259.785 555.208 259.788 561.197 263.245C564.442 265.118 565.934 267.624 565.678 270.077C565.46 272.148 563.995 274.184 561.267 275.771C555.317 279.228 545.635 279.232 539.646 275.774C536.881 274.177 535.39 272.122 535.164 270.034C534.903 267.591 536.371 265.105 539.573 263.245Z" fill="#E0E0EB"/>
<path d="M572.069 270.113C572.334 266.702 570.21 263.235 565.695 260.63C565.407 260.464 565.109 260.302 564.807 260.146H550.359V260.65C554.276 260.65 558.198 261.512 561.194 263.245C564.439 265.118 565.931 267.624 565.675 270.077C565.457 272.148 563.992 274.183 561.264 275.771C558.261 277.515 554.31 278.376 550.359 278.363V278.386H565.788C569.742 276.083 571.834 273.12 572.069 270.113Z" fill="url(#paint12_linear)"/>
<path d="M539.944 254.773C545.695 251.432 555.042 251.432 560.826 254.773C563.962 256.583 565.4 259.003 565.152 261.369C564.943 263.371 563.524 265.337 560.889 266.868C555.145 270.206 545.791 270.209 540.007 266.868C537.336 265.327 535.897 263.342 535.682 261.323C535.436 258.97 536.852 256.57 539.944 254.773Z" fill="#807EF1"/>
<path d="M564.369 258.048C565.009 259.122 565.274 260.252 565.155 261.369C564.943 263.371 563.527 265.337 560.892 266.868C555.148 270.206 545.794 270.209 540.011 266.868C537.339 265.327 535.9 263.341 535.685 261.323C535.566 260.203 535.828 259.072 536.467 257.998C535.45 259.314 535.012 260.75 535.161 262.165C535.383 264.256 536.875 266.311 539.643 267.906C545.632 271.363 555.317 271.359 561.264 267.902C563.992 266.318 565.457 264.283 565.675 262.208C565.825 260.799 565.387 259.367 564.369 258.048Z" fill="url(#paint13_linear)"/>
<path d="M565.698 261.489C565.708 261.731 565.705 261.973 565.679 262.215C565.46 264.286 563.995 266.321 561.267 267.909C555.317 271.366 545.635 271.37 539.646 267.912C536.882 266.315 535.39 264.26 535.165 262.172C535.141 261.946 535.135 261.721 535.141 261.492H535.135V269.583C535.138 269.732 535.148 269.881 535.161 270.034C535.383 272.125 536.875 274.18 539.643 275.775C545.632 279.232 555.317 279.228 561.264 275.771C563.991 274.187 565.456 272.152 565.675 270.077C565.692 269.911 565.702 269.745 565.702 269.58H565.705V261.489H565.698Z" fill="url(#paint14_linear)"/>
<path d="M476.908 202.128L461.14 211.289C461.133 211.293 461.127 211.296 461.124 211.299L476.891 202.138C476.898 202.135 476.904 202.131 476.908 202.128Z" fill="#18C3CA"/>
<path d="M474.995 229.201L490.762 220.04C490.355 220.275 490.02 220.62 489.798 220.928L474.03 230.09C474.252 229.781 474.587 229.44 474.995 229.201Z" fill="#A5ACD4"/>
<path d="M471.154 186.175L455.386 195.336C454.965 195.582 454.475 195.701 454.08 195.734L469.848 186.573C470.242 186.54 470.733 186.42 471.154 186.175Z" fill="#F0F0F5"/>
<path d="M486.801 239.53L502.569 230.368C501.926 230.743 501.502 231.644 501.313 232.334L485.545 241.495C485.734 240.806 486.158 239.904 486.801 239.53Z" fill="#A5ACD4"/>
<path d="M467.998 170.842L452.23 180.003C451.581 180.381 450.57 180.285 449.87 180.099L465.638 170.938C466.337 171.123 467.348 171.22 467.998 170.842Z" fill="#F0F0F5"/>
<path d="M498.558 246.842L514.326 237.68C513.709 238.24 513.514 239.596 513.51 240.531L497.743 249.692C497.746 248.758 497.942 247.402 498.558 246.842Z" fill="#A5ACD4"/>
<path d="M448.777 165.446L464.544 156.284C465.376 156.765 466.695 157.298 467.491 157.01L451.723 166.171C450.931 166.46 449.612 165.926 448.777 165.446Z" fill="#F0F0F5"/>
<path d="M509.874 250.637L525.642 241.475C525.204 242.297 525.353 243.918 525.565 244.972L509.798 254.134C509.586 253.076 509.437 251.459 509.874 250.637Z" fill="#A5ACD4"/>
<path d="M450.878 152.774L466.645 143.612C467.076 143.994 467.653 144.438 468.24 144.776C468.797 145.097 469.363 145.326 469.821 145.313L454.053 154.474C453.596 154.484 453.029 154.259 452.472 153.934C451.886 153.596 451.309 153.152 450.878 152.774Z" fill="#F0F0F5"/>
<path d="M520.196 250.494L535.963 241.333C535.701 242.383 536.218 244.22 536.653 245.353L520.885 254.515C520.448 253.381 519.934 251.545 520.196 250.494Z" fill="#A5ACD4"/>
<path d="M456.022 142.946L471.79 133.785C472.416 134.56 473.42 135.611 474.335 136.141C474.581 136.284 474.822 136.387 475.045 136.436L459.277 145.598C459.052 145.548 458.813 145.445 458.568 145.303C457.653 144.776 456.649 143.722 456.022 142.946Z" fill="#F0F0F5"/>
<path d="M463.871 136.639L479.639 127.477C480.265 128.564 481.449 130.238 482.529 130.865L466.762 140.026C465.681 139.403 464.501 137.726 463.871 136.639Z" fill="#E2E4F7"/>
<path d="M528.777 246.474L544.545 237.312C544.459 238.545 545.367 240.514 546.02 241.648L530.252 250.809C529.596 249.676 528.691 247.707 528.777 246.474Z" fill="#BBBFE2"/>
<path d="M466.761 140.026L482.529 130.865C484.03 130.513 485.3 130.119 486.632 129.844L470.865 139.005C469.536 139.28 468.266 139.675 466.761 140.026Z" fill="#F0F0F5"/>
<path d="M531.88 243.487L547.647 234.326C546.689 235.433 545.658 236.437 544.545 237.312L528.777 246.474C529.891 245.599 530.922 244.594 531.88 243.487Z" fill="#A5ACD4"/>
<path d="M470.344 134.58L486.112 125.415L489.645 125.11L473.878 134.275L470.344 134.58Z" fill="#F5F5FA"/>
<path d="M537.256 243.269L553.023 234.107L550.972 236.984L535.204 246.146L537.256 243.269Z" fill="#A5ACD4"/>
<path d="M535.015 238.847L550.783 229.685C550.889 231.094 552.175 233.053 553.02 234.107L537.253 243.269C536.408 242.218 535.121 240.259 535.015 238.847Z" fill="#BBBFE2"/>
<path d="M473.878 134.275L489.645 125.114C490.156 126.43 491.286 128.654 492.512 129.363L476.745 138.525C475.519 137.812 474.392 135.588 473.878 134.275Z" fill="#E2E4F7"/>
<path d="M476.748 138.521L492.516 129.36C493.842 129.406 495.201 129.545 496.593 129.777L480.825 138.939C479.433 138.707 478.074 138.571 476.748 138.521Z" fill="#F0F0F5"/>
<path d="M496.752 129.708L480.984 138.869C480.935 138.899 480.882 138.922 480.825 138.939L496.593 129.777C496.649 129.761 496.702 129.738 496.752 129.708Z" fill="#18C3CA"/>
<path d="M536.825 234.68L552.593 225.519C552.069 226.997 551.469 228.393 550.783 229.685L535.015 238.847C535.701 237.557 536.301 236.159 536.825 234.68Z" fill="#A5ACD4"/>
<path d="M481.432 134.965L497.199 125.8L501.14 126.86L485.373 136.022L481.432 134.965Z" fill="#F0F0F5"/>
<path d="M485.373 136.022L501.14 126.861C501.422 128.249 502.254 130.792 503.61 131.707L487.842 140.868C486.487 139.953 485.655 137.411 485.373 136.022Z" fill="#E2E4F7"/>
<path d="M541.419 232.407L557.187 223.245L556.123 227.163L540.355 236.324L541.419 232.407Z" fill="#A5ACD4"/>
<path d="M538.486 228.084L554.253 218.923C554.512 220.501 556.179 222.354 557.186 223.248L541.419 232.41C540.411 231.512 538.744 229.662 538.486 228.084Z" fill="#D7DBF2"/>
<path d="M487.842 140.868L503.61 131.706C504.833 132.167 507.226 133.225 507.226 133.218L491.458 142.379C491.458 142.386 489.069 141.329 487.842 140.868Z" fill="#F0F0F5"/>
<path d="M539.009 223.331L554.777 214.17C554.677 215.821 554.502 217.408 554.253 218.92L538.486 228.081C538.731 226.57 538.91 224.985 539.009 223.331Z" fill="#BBBFE2"/>
<path d="M508.26 133.231L492.493 142.393C492.221 142.552 491.879 142.572 491.458 142.38L507.226 133.218C507.647 133.41 507.988 133.39 508.26 133.231Z" fill="#F0F0F5"/>
<path d="M539.341 223.003L555.108 213.842C554.976 213.918 554.863 214.027 554.777 214.173L539.009 223.335C539.095 223.189 539.205 223.079 539.341 223.003Z" fill="#A5ACD4"/>
<path d="M493.484 139.4L509.251 130.238L513.328 132.592L497.561 141.753L493.484 139.4Z" fill="#F0F0F5"/>
<path d="M497.561 141.753L513.328 132.591C513.325 133.98 513.732 136.781 515.34 137.908L499.573 147.07C497.962 145.943 497.557 143.145 497.561 141.753Z" fill="#E2E4F7"/>
<path d="M542.47 218.973L558.237 209.811L558.224 214.488L542.457 223.653L542.47 218.973Z" fill="#A5ACD4"/>
<path d="M538.923 214.932L554.691 205.771C555.075 207.567 557.104 209.158 558.237 209.811L542.47 218.973C541.336 218.32 539.308 216.729 538.923 214.932Z" fill="#D7DBF2"/>
<path d="M499.573 147.07L515.34 137.908L518.562 140.179L502.794 149.34L499.573 147.07Z" fill="#F0F0F5"/>
<path d="M538.373 210.199L554.14 201.037C554.379 202.628 554.565 204.21 554.691 205.771L538.923 214.932C538.797 213.371 538.612 211.787 538.373 210.199Z" fill="#A5ACD4"/>
<path d="M539 209.089L554.767 199.927C554.412 200.133 554.167 200.481 554.14 201.034L538.373 210.196C538.4 209.645 538.645 209.297 539 209.089Z" fill="#A5ACD4"/>
<path d="M520.252 140.301L504.485 149.463C504.047 149.718 503.487 149.748 502.791 149.34L518.558 140.179C519.255 140.59 519.815 140.556 520.252 140.301Z" fill="#F0F0F5"/>
<path d="M535.029 196.221L550.796 187.06L552.085 191.223L536.318 200.385L535.029 196.221Z" fill="#BBBFE2"/>
<path d="M510.623 156.277L526.391 147.116L529.41 150.222L513.643 159.387L510.623 156.277Z" fill="#F0F0F5"/>
<path d="M509.619 151.09L525.386 141.929C525.068 143.089 524.886 145.585 526.391 147.119L510.623 156.281C509.115 154.746 509.301 152.247 509.619 151.09Z" fill="#BBBFE2"/>
<path d="M505.685 147.6L521.452 138.438L525.386 141.925L509.619 151.09L505.685 147.6Z" fill="#F0F0F5"/>
<path d="M536.318 200.385L552.085 191.223C552.447 192.522 553.477 193.44 554.478 194.021C555.068 194.362 555.652 194.587 556.086 194.7L540.319 203.862C539.884 203.746 539.304 203.52 538.711 203.182C537.71 202.602 536.679 201.684 536.318 200.385Z" fill="#E2E4F7"/>
<path d="M540.319 203.862L556.086 194.7L557.13 199.834L541.363 208.996L540.319 203.862Z" fill="#BBBFE2"/>
<path d="M535.847 193.755L551.615 184.594C550.909 185.005 550.388 185.764 550.796 187.06L535.029 196.221C534.621 194.925 535.141 194.163 535.847 193.755Z" fill="#A5ACD4"/>
<path d="M531.996 150.735L516.228 159.897C515.685 160.212 515.012 160.338 514.313 159.933C514.091 159.807 513.868 159.625 513.643 159.383L529.41 150.222C529.633 150.464 529.858 150.646 530.08 150.772C530.779 151.18 531.452 151.054 531.996 150.735Z" fill="#E2E4F7"/>
<path d="M528.973 181.723L544.74 172.559L546.762 176.642L530.995 185.804L528.973 181.723Z" fill="#F0F0F5"/>
<path d="M520.653 168.1L536.421 158.939L539.026 162.658L523.259 171.819L520.653 168.1Z" fill="#F0F0F5"/>
<path d="M517.196 159.005L532.964 149.841L536.487 154.219L520.72 163.384L517.196 159.005Z" fill="#F0F0F5"/>
<path d="M520.72 163.384L536.487 154.222C535.88 155.071 535.115 157.09 536.421 158.942L520.653 168.104C519.347 166.251 520.11 164.232 520.72 163.384Z" fill="#BBBFE2"/>
<path d="M535.128 188.124L550.896 178.962L552.921 184.193L537.153 193.354L535.128 188.124Z" fill="#BBBFE2"/>
<path d="M530.995 185.804L546.762 176.642C547.147 177.471 547.723 178.021 548.343 178.382C549.258 178.909 550.269 179.019 550.895 178.962L535.128 188.124C534.501 188.177 533.491 188.071 532.576 187.541C531.953 187.186 531.376 186.632 530.995 185.804Z" fill="#E2E4F7"/>
<path d="M530.083 177.816L545.851 168.654C544.992 169.155 543.743 170.557 544.744 172.562L528.976 181.723C527.975 179.715 529.222 178.313 530.083 177.816Z" fill="#BBBFE2"/>
<path d="M523.259 171.819L539.026 162.658C539.354 163.149 539.722 163.487 540.103 163.705C541.187 164.332 542.374 164.02 543.004 163.662L527.236 172.824C526.603 173.185 525.416 173.493 524.336 172.867C523.955 172.648 523.587 172.313 523.259 171.819Z" fill="#E2E4F7"/>
<path d="M527.239 172.824L543.007 163.662L545.877 168.634L530.11 177.799L527.239 172.824Z" fill="#F0F0F5"/>
<path d="M542.457 223.653L542.47 218.976C541.336 218.323 539.311 216.729 538.923 214.936C538.797 213.374 538.612 211.793 538.373 210.202C538.443 208.638 540.279 208.711 541.363 209.002L540.319 203.868C539.884 203.752 539.304 203.527 538.711 203.189C537.707 202.609 536.679 201.69 536.318 200.391L535.029 196.228C534.376 194.153 536.106 193.45 537.153 193.361L535.128 188.131C534.502 188.184 533.491 188.077 532.576 187.547C531.956 187.189 531.379 186.636 530.995 185.807L528.976 181.727C527.965 179.698 529.255 178.286 530.113 177.802L527.243 172.83C526.61 173.192 525.423 173.5 524.342 172.874C523.961 172.655 523.593 172.317 523.265 171.826L520.657 168.107C519.351 166.258 520.113 164.239 520.723 163.387L517.203 159.009C516.686 159.728 515.549 160.649 514.316 159.94C514.094 159.814 513.872 159.632 513.646 159.39L510.627 156.281C509.119 154.746 509.304 152.25 509.622 151.09L505.688 147.603C505.393 148.7 504.501 150.351 502.798 149.343L499.576 147.073C497.968 145.946 497.561 143.148 497.564 141.756L493.487 139.403C493.484 140.792 493.066 143.112 491.462 142.383C491.462 142.389 489.072 141.332 487.846 140.871C486.49 139.956 485.658 137.414 485.376 136.025L481.435 134.968C481.714 136.327 481.873 138.617 480.829 138.945C479.436 138.713 478.077 138.574 476.752 138.528C475.522 137.819 474.395 135.594 473.885 134.279L470.351 134.584C470.858 135.883 471.458 138.12 470.872 139.012C469.539 139.284 468.27 139.681 466.768 140.033C465.688 139.41 464.504 137.732 463.878 136.645L460.988 138.293C461.66 139.459 462.605 141.521 462.453 142.751C461.319 143.586 460.258 144.537 459.284 145.604C459.058 145.555 458.82 145.452 458.575 145.309C457.66 144.782 456.655 143.728 456.029 142.953L453.984 145.833C454.763 146.798 455.913 148.541 456.175 149.91C455.369 151.315 454.663 152.84 454.06 154.481C453.603 154.491 453.036 154.265 452.479 153.944C451.892 153.606 451.312 153.162 450.885 152.781L449.814 156.688C450.646 157.428 451.912 158.803 452.486 160.142C452.118 162.038 451.862 164.057 451.73 166.178C450.938 166.466 449.619 165.933 448.783 165.452L448.77 170.129C449.599 170.606 450.901 171.584 451.697 172.777C451.813 175.114 452.061 177.487 452.429 179.874C451.803 180.404 450.649 180.308 449.877 180.106L450.918 185.234C451.349 185.353 451.925 185.575 452.509 185.913C452.98 186.185 453.454 186.53 453.865 186.951C454.501 189.499 455.26 192.058 456.142 194.604C455.721 195.373 454.766 195.684 454.087 195.741L456.112 200.978C456.735 200.918 457.746 201.034 458.896 201.707C460.013 204.282 461.253 206.831 462.585 209.334C462.393 210.308 461.674 210.994 461.13 211.306L464 216.278C464.551 215.96 465.522 215.688 466.48 216.039C467.995 218.442 469.605 220.786 471.289 223.036C471.349 224.173 470.901 225.181 470.514 225.718L474.034 230.096C474.425 229.549 475.171 228.897 476.049 228.916C477.852 230.975 479.725 232.924 481.654 234.767C481.965 236 481.82 237.279 481.617 238.015L485.545 241.499C485.754 240.743 486.248 239.722 487.007 239.437C488.943 240.978 490.918 242.407 492.937 243.693C493.5 244.939 493.673 246.437 493.669 247.345L497.746 249.699C497.749 248.764 497.942 247.408 498.562 246.848C500.527 247.813 502.466 248.622 504.359 249.248C505.151 250.411 505.658 252.059 505.864 253.083L509.801 254.14C509.589 253.086 509.443 251.465 509.878 250.643C511.681 250.948 513.424 251.084 515.111 251.068C516.086 252.029 516.931 253.739 517.352 254.826L520.885 254.522C520.451 253.388 519.934 251.552 520.196 250.501C521.701 250.173 523.133 249.702 524.488 249.089C525.565 249.722 526.739 251.379 527.365 252.463L530.256 250.816C529.599 249.682 528.694 247.713 528.781 246.477C529.894 245.602 530.928 244.598 531.883 243.491C532.128 243.534 532.397 243.643 532.672 243.802C533.587 244.329 534.588 245.38 535.208 246.149L537.256 243.272C536.411 242.218 535.125 240.259 535.019 238.85C535.705 237.558 536.305 236.162 536.828 234.684C537.322 234.492 538.048 234.747 538.757 235.158C539.347 235.499 539.928 235.943 540.358 236.328L541.422 232.41C540.415 231.515 538.744 229.665 538.489 228.084C538.738 226.573 538.913 224.985 539.013 223.335C539.583 222.354 541.402 223.043 542.457 223.653ZM495.29 226.149C480.335 217.514 468.246 196.569 468.296 179.39C468.346 162.197 480.514 155.273 495.469 163.904C510.424 172.539 522.506 193.464 522.456 210.656C522.407 227.839 510.245 234.783 495.29 226.149Z" fill="#CED2F4"/>
<path d="M468.296 179.39C468.246 196.569 480.338 217.514 495.29 226.149C506.927 232.867 516.871 230.149 520.733 220.517C517.726 220.106 514.465 218.956 511.057 216.987C496.102 208.353 484.014 187.408 484.063 170.228C484.073 166.42 484.683 163.119 485.78 160.374C475.595 158.975 468.333 166.122 468.296 179.39Z" fill="url(#paint15_linear)"/>
<path d="M499.967 228.376C498.445 227.803 496.884 227.07 495.29 226.149C480.335 217.514 468.246 196.569 468.296 179.39C468.346 162.197 480.514 155.273 495.469 163.904C497.004 164.789 498.505 165.813 499.97 166.94V147.348L499.572 147.07C497.965 145.943 497.557 143.145 497.56 141.753L493.484 139.4C493.48 140.788 493.063 143.109 491.458 142.379C491.458 142.386 489.069 141.329 487.842 140.868C486.486 139.953 485.655 137.411 485.373 136.022L481.432 134.965C481.71 136.324 481.869 138.614 480.825 138.942C479.433 138.71 478.074 138.571 476.748 138.525C475.519 137.815 474.392 135.591 473.881 134.275L470.348 134.58C470.855 135.88 471.455 138.117 470.868 139.008C469.536 139.28 468.266 139.678 466.765 140.029C465.684 139.406 464.501 137.729 463.874 136.642L460.984 138.289C461.657 139.456 462.602 141.518 462.449 142.747C461.316 143.583 460.255 144.534 459.28 145.601C459.055 145.551 458.816 145.449 458.571 145.306C457.656 144.779 456.652 143.725 456.025 142.95L453.98 145.83C454.759 146.794 455.91 148.538 456.171 149.907C455.366 151.312 454.66 152.837 454.057 154.478C453.599 154.488 453.032 154.262 452.476 153.941C451.889 153.603 451.309 153.158 450.881 152.777L449.811 156.685C450.643 157.424 451.909 158.8 452.482 160.139C452.114 162.035 451.859 164.053 451.726 166.175C450.934 166.463 449.615 165.929 448.78 165.449L448.767 170.126C449.595 170.603 450.898 171.581 451.693 172.774C451.809 175.111 452.058 177.484 452.426 179.871C451.799 180.401 450.646 180.305 449.874 180.103L450.914 185.23C451.345 185.35 451.922 185.572 452.505 185.91C452.976 186.182 453.45 186.526 453.861 186.947C454.498 189.496 455.257 192.055 456.138 194.601C455.717 195.37 454.763 195.681 454.083 195.737L456.108 200.975C456.731 200.915 457.742 201.031 458.893 201.704C460.01 204.279 461.249 206.828 462.582 209.331C462.389 210.305 461.67 210.991 461.127 211.303L463.997 216.275C464.547 215.956 465.518 215.685 466.476 216.036C467.991 218.439 469.602 220.782 471.286 223.033C471.345 224.17 470.898 225.178 470.51 225.715L474.03 230.093C474.421 229.546 475.167 228.893 476.046 228.913C477.849 230.971 479.721 232.92 481.651 234.763C481.962 235.996 481.816 237.276 481.614 238.012L485.542 241.495C485.751 240.74 486.245 239.719 487.004 239.434C488.939 240.975 490.915 242.403 492.933 243.69C493.497 244.936 493.669 246.434 493.666 247.342L497.743 249.696C497.746 248.761 497.938 247.405 498.558 246.845C499.029 247.077 499.5 247.299 499.967 247.511V228.376Z" fill="#F1F1F6" fill-opacity="0.4"/>
<path d="M485.677 257.813C485.677 261.21 483.268 262.599 480.328 260.902L300.608 157.142C297.665 155.442 295.258 151.276 295.258 147.875V12.3186C295.258 8.92115 297.665 7.53234 300.608 9.2294L480.328 112.989C483.271 114.689 485.677 118.859 485.677 122.257V257.813Z" fill="#FF5B36"/>
<path d="M484.365 110.659L304.645 6.89925C303.154 6.04078 301.805 5.97448 300.83 6.55785V6.55454L296.985 8.78525H296.995C297.947 8.32452 299.213 8.43059 300.605 9.23271L480.325 112.992C483.268 114.693 485.674 118.862 485.674 122.26V257.813C485.674 259.5 485.078 260.69 484.123 261.257L487.965 259.026H487.955C489.032 258.516 489.715 257.286 489.715 255.483V119.926C489.715 116.529 487.305 112.359 484.365 110.659Z" fill="url(#paint16_linear)"/>
<path d="M480.324 252.596L300.608 148.836V15.4077L480.324 119.171V252.596Z" fill="white"/>
<path d="M358.457 333.611C355.517 335.311 350.701 335.311 347.758 333.611L168.038 229.851C165.098 228.154 165.098 225.373 168.038 223.673L290.538 152.95C293.478 151.252 298.294 151.252 301.238 152.95L480.957 256.709C483.901 258.406 483.901 261.187 480.957 262.884L358.457 333.611Z" fill="#F1F1F6"/>
<path d="M301.427 167.663L292.636 162.588L297.032 160.053L305.819 165.124L301.427 167.663Z" fill="#DAE0F5"/>
<path d="M316.226 176.211L307.439 171.133L311.831 168.598L320.622 173.672L316.226 176.211Z" fill="#DAE0F5"/>
<path d="M331.029 184.756L322.242 179.682L326.637 177.143L335.424 182.221L331.029 184.756Z" fill="#DAE0F5"/>
<path d="M345.832 193.301L337.045 188.23L341.44 185.691L350.227 190.766L345.832 193.301Z" fill="#DAE0F5"/>
<path d="M360.635 201.849L351.848 196.775L356.243 194.239L365.03 199.314L360.635 201.849Z" fill="#DAE0F5"/>
<path d="M375.438 210.394L366.651 205.32L371.043 202.784L379.836 207.855L375.438 210.394Z" fill="#DAE0F5"/>
<path d="M390.241 218.943L381.454 213.868L385.849 211.329L394.636 216.404L390.241 218.943Z" fill="#DAE0F5"/>
<path d="M405.047 227.488L396.257 222.413L400.652 219.874L409.439 224.952L405.047 227.488Z" fill="#DAE0F5"/>
<path d="M419.847 236.036L411.06 230.961L415.455 228.422L424.245 233.497L419.847 236.036Z" fill="#DAE0F5"/>
<path d="M434.65 244.581L425.863 239.506L430.258 236.971L439.048 242.042L434.65 244.581Z" fill="#DAE0F5"/>
<path d="M449.456 253.129L440.666 248.055L445.061 245.516L453.851 250.59L449.456 253.129Z" fill="#DAE0F5"/>
<path d="M464.259 261.674L455.469 256.6L459.864 254.061L468.654 259.139L464.259 261.674Z" fill="#DAE0F5"/>
<path d="M293.634 180.258L277.833 171.133L286.62 166.062L302.424 175.184L293.634 180.258Z" fill="#DAE0F5"/>
<path d="M285.46 191.922L263.644 179.327L272.434 174.252L294.251 186.848L285.46 191.922Z" fill="#DAE0F5"/>
<path d="M276.67 203.941L248.841 187.872L257.631 182.801L285.457 198.866L276.67 203.941Z" fill="#DAE0F5"/>
<path d="M246.73 207.338L230.929 198.217L242.828 191.346L258.629 200.467L246.73 207.338Z" fill="#DAE0F5"/>
<path d="M268.546 219.934L252.742 210.812L264.642 203.941L280.445 213.063L268.546 219.934Z" fill="#DAE0F5"/>
<path d="M290.359 232.529L274.559 223.408L286.458 216.536L302.259 225.658L290.359 232.529Z" fill="#DAE0F5"/>
<path d="M365.577 275.957L349.78 266.832L361.676 259.964L377.48 269.086L365.577 275.957Z" fill="#DAE0F5"/>
<path d="M402.551 297.303L371.557 279.407L383.456 272.536L414.451 290.432L402.551 297.303Z" fill="#DAE0F5"/>
<path d="M343.8 263.381L296.375 236L308.275 229.132L355.7 256.513L343.8 263.381Z" fill="#DAE0F5"/>
<path d="M312.58 191.196L299.647 183.732L308.434 178.657L321.367 186.122L312.58 191.196Z" fill="#DAE0F5"/>
<path d="M304.406 202.86L291.473 195.393L300.263 190.318L313.193 197.782L304.406 202.86Z" fill="#DAE0F5"/>
<path d="M296.021 214.644L283.091 207.179L291.878 202.105L304.811 209.572L296.021 214.644Z" fill="#DAE0F5"/>
<path d="M314.967 225.582L302.037 218.117L310.824 213.043L323.757 220.507L314.967 225.582Z" fill="#DAE0F5"/>
<path d="M333.91 236.52L320.979 229.055L329.77 223.981L342.7 231.445L333.91 236.52Z" fill="#DAE0F5"/>
<path d="M352.859 247.461L339.926 239.994L348.716 234.919L361.646 242.387L352.859 247.461Z" fill="#DAE0F5"/>
<path d="M371.802 258.399L358.872 250.932L367.662 245.857L380.592 253.325L371.802 258.399Z" fill="#DAE0F5"/>
<path d="M390.748 269.334L377.818 261.87L386.605 256.792L399.538 264.26L390.748 269.334Z" fill="#DAE0F5"/>
<path d="M420.868 286.726L396.761 272.805L405.551 267.733L429.658 281.651L420.868 286.726Z" fill="#DAE0F5"/>
<path d="M323.353 213.795L310.419 206.331L319.209 201.256L332.14 208.724L323.353 213.795Z" fill="#DAE0F5"/>
<path d="M342.296 224.737L329.365 217.269L338.156 212.194L351.086 219.662L342.296 224.737Z" fill="#DAE0F5"/>
<path d="M361.238 235.675L348.308 228.21L357.098 223.132L370.032 230.6L361.238 235.675Z" fill="#DAE0F5"/>
<path d="M380.188 246.613L367.254 239.148L376.045 234.07L388.975 241.538L380.188 246.613Z" fill="#DAE0F5"/>
<path d="M399.134 257.551L386.2 250.083L394.991 245.009L407.924 252.476L399.134 257.551Z" fill="#DAE0F5"/>
<path d="M435.266 278.413L405.146 261.021L413.937 255.947L444.056 273.338L435.266 278.413Z" fill="#DAE0F5"/>
<path d="M331.527 202.135L318.593 194.67L327.383 189.595L340.313 197.06L331.527 202.135Z" fill="#DAE0F5"/>
<path d="M350.473 213.073L337.539 205.605L346.326 200.534L359.26 207.998L350.473 213.073Z" fill="#DAE0F5"/>
<path d="M369.415 224.011L356.485 216.543L365.272 211.472L378.206 218.936L369.415 224.011Z" fill="#DAE0F5"/>
<path d="M388.361 234.949L375.428 227.481L384.218 222.406L397.148 229.874L388.361 234.949Z" fill="#DAE0F5"/>
<path d="M407.308 245.887L394.374 238.419L403.164 233.348L416.098 240.812L407.308 245.887Z" fill="#DAE0F5"/>
<path d="M426.25 256.825L413.32 249.357L422.111 244.286L435.041 251.75L426.25 256.825Z" fill="#DAE0F5"/>
<path d="M449.456 270.219L432.266 260.295L441.057 255.221L458.243 265.148L449.456 270.219Z" fill="#DAE0F5"/>
<path d="M457.838 248.287L315.822 166.294L320.088 163.831L462.104 245.824L457.838 248.287Z" fill="#FF8037"/>
<path d="M343.797 273.978L271.327 232.135L226.295 258.134L298.765 299.974L343.797 273.978Z" fill="#DAE0F5"/>
<path d="M480.957 262.887L358.457 333.611C356.12 334.96 352.607 335.235 349.783 334.439C349.763 334.433 348.026 333.766 347.758 333.611L168.038 229.851C167.833 229.732 167.647 229.609 167.471 229.48C167.461 229.473 167.455 229.467 167.445 229.46C167.398 229.423 167.355 229.387 167.312 229.354C167.206 229.271 167.107 229.191 167.014 229.105C166.967 229.062 166.921 229.019 166.878 228.976C166.765 228.867 166.663 228.754 166.57 228.641C166.556 228.628 166.543 228.611 166.533 228.598C166.527 228.588 166.517 228.578 166.51 228.572C166.404 228.436 166.314 228.296 166.232 228.157C165.99 227.74 165.857 227.309 165.841 226.871H165.831V229.46H165.85C165.834 230.59 166.553 231.724 168.038 232.579L347.758 336.338C352.047 338.466 358.172 338.049 359.999 337.651C361.822 337.25 363.459 336.796 365.371 336.378L480.957 269.646C482.446 268.784 483.178 267.65 483.162 266.517V259.828C483.145 260.938 482.413 262.046 480.957 262.887Z" fill="#FF5B36"/>
<path d="M441.408 168.041C432.86 163.745 431.345 144.759 422.545 140.381C414.202 136.231 407.818 168.057 399.237 163.102C391.006 158.349 391.152 135.532 382.746 130.679C376.472 127.056 375.597 137.484 369.293 133.844C361.411 129.297 358.61 96.0317 351.606 91.9879C344.95 88.1463 343.9 100.039 339.349 97.4106C332.869 93.6684 336.548 71.653 328.029 66.7341C319.286 61.7987 320.273 82.9093 315.736 80.1449C311.198 77.3839 311.301 66.638 304.241 67.8213C304.241 70.0355 304.241 138.664 304.241 138.664L476.701 238.234V150.285C467.55 145.257 449.956 172.34 441.408 168.041Z" fill="url(#paint17_linear)"/>
<path d="M360.303 170.842L362.405 172.055V118.448L360.303 117.235V170.842Z" fill="url(#paint18_linear)"/>
<path d="M364.414 119.443C364.414 117.56 363.094 115.273 361.464 114.331C359.833 113.39 358.514 114.152 358.514 116.035C358.514 117.918 359.833 120.205 361.464 121.146C363.094 122.088 364.414 121.325 364.414 119.443Z" fill="black"/>
<path d="M440.357 216.858L442.459 218.071V168.647L440.357 167.434V216.858Z" fill="url(#paint19_linear)"/>
<path d="M444.358 169.353C444.358 167.471 443.039 165.184 441.408 164.242C439.777 163.301 438.458 164.063 438.458 165.946C438.458 167.829 439.777 170.116 441.408 171.057C443.039 171.995 444.358 171.233 444.358 169.353Z" fill="black"/>
<path d="M309.405 146.589L305.354 144.249V142.628L309.405 144.965V146.589Z" fill="#CED3F8"/>
<path d="M316.263 150.547L312.216 148.21V146.589L316.263 148.926V150.547Z" fill="#CED3F8"/>
<path d="M323.124 154.508L319.073 152.171V150.547L323.124 152.887V154.508Z" fill="#CED3F8"/>
<path d="M329.982 158.468L325.935 156.132V154.508L329.982 156.844V158.468Z" fill="#CED3F8"/>
<path d="M336.843 162.429L332.792 160.093V158.468L336.843 160.805V162.429Z" fill="#CED3F8"/>
<path d="M343.701 166.39L339.654 164.05V162.429L343.701 164.766V166.39Z" fill="#CED3F8"/>
<path d="M350.562 170.348L346.512 168.011V166.39L350.562 168.727V170.348Z" fill="#CED3F8"/>
<path d="M357.42 174.309L353.373 171.972V170.348L357.42 172.688V174.309Z" fill="#CED3F8"/>
<path d="M364.281 178.27L360.231 175.933V174.309L364.281 176.645V178.27Z" fill="#CED3F8"/>
<path d="M371.139 182.231L367.092 179.894V178.27L371.139 180.607V182.231Z" fill="#CED3F8"/>
<path d="M378 186.192L373.95 183.855V182.231L378 184.567V186.192Z" fill="#CED3F8"/>
<path d="M384.858 190.153L380.811 187.812V186.192L384.858 188.528V190.153Z" fill="#CED3F8"/>
<path d="M391.719 194.11L387.669 191.773V190.152L391.719 192.489V194.11Z" fill="#CED3F8"/>
<path d="M398.577 198.071L394.53 195.734V194.11L398.577 196.447V198.071Z" fill="#CED3F8"/>
<path d="M405.438 202.032L401.388 199.695V198.071L405.438 200.408V202.032Z" fill="#CED3F8"/>
<path d="M412.296 205.993L408.249 203.656V202.032L412.296 204.369V205.993Z" fill="#CED3F8"/>
<path d="M419.157 209.954L415.107 207.614V205.993L419.157 208.33V209.954Z" fill="#CED3F8"/>
<path d="M426.015 213.911L421.968 211.575V209.954L426.015 212.291V213.911Z" fill="#CED3F8"/>
<path d="M432.876 217.872L428.826 215.536V213.911L432.876 216.251V217.872Z" fill="#CED3F8"/>
<path d="M439.734 221.833L435.687 219.496V217.872L439.734 220.209V221.833Z" fill="#CED3F8"/>
<path d="M446.595 225.794L442.545 223.457V221.833L446.595 224.17V225.794Z" fill="#CED3F8"/>
<path d="M453.453 229.755L449.406 227.418V225.794L453.453 228.131V229.755Z" fill="#CED3F8"/>
<path d="M460.314 233.716L456.264 231.376V229.755L460.314 232.092V233.716Z" fill="#CED3F8"/>
<path d="M467.172 237.674L463.125 235.337V233.716L467.172 236.053V237.674Z" fill="#CED3F8"/>
<path d="M474.033 241.634L469.983 239.298V237.674L474.033 240.01V241.634Z" fill="#CED3F8"/>
<path d="M348.341 71.2154L295.259 40.5688V150.006L338.776 175.131L333.35 181.173H350.227C351.656 181.186 352.647 180.063 352.647 178.111V78.6732C352.647 75.9387 350.708 72.5844 348.341 71.2154Z" fill="url(#paint20_linear)" fill-opacity="0.55"/>
<path d="M335.464 178.104C335.464 180.838 333.525 181.955 331.159 180.59L212.414 112.034C210.047 110.669 208.108 107.311 208.108 104.577V5.1393C208.108 2.40478 210.047 1.28776 212.414 2.65337L331.159 71.2121C333.525 72.5777 335.464 75.9354 335.464 78.6699V178.104Z" fill="white"/>
<path d="M331.159 71.2121L212.414 2.65337C210.047 1.28776 208.108 2.40478 208.108 5.1393V9.90567L335.464 83.4363V78.6732C335.464 75.9354 333.525 72.5777 331.159 71.2121Z" fill="#FFAD02"/>
<path d="M212.547 5.63977L215.937 7.59869V11.5132L212.547 9.55429V5.63977Z" fill="white"/>
<path d="M219.186 9.47473L222.573 11.4303V15.3448L219.186 13.3859V9.47473Z" fill="white"/>
<path d="M225.822 13.3064L229.212 15.262V19.1765L225.822 17.2209V13.3064Z" fill="white"/>
<path d="M233.989 112.89L233.273 112.475V45.4148L233.989 45.8291V112.89Z" fill="#ECECEC"/>
<path d="M283.104 141.246L282.388 140.832V99.6777L283.104 100.092V141.246Z" fill="#ECECEC"/>
<path d="M281.788 110.188C276.922 107.377 274.569 103.241 272.083 98.859C268.977 93.3933 265.457 87.195 255.808 81.6265C248.735 77.543 246.223 71.5535 243.793 65.763C241.559 60.4331 239.448 55.4016 233.634 52.0439C227.674 48.6034 225.5 53.3333 223.203 58.3416C220.986 63.171 218.695 68.166 212.663 64.6824V63.0251C217.741 65.9585 219.752 61.5766 221.88 56.9362C224.148 51.9942 226.72 46.3926 233.637 50.3833C240.237 54.1951 242.663 59.9757 245.006 65.5641C247.33 71.1027 249.524 76.3331 255.812 79.9659C266.064 85.8858 269.972 92.7635 273.114 98.2922C275.603 102.674 277.545 106.101 281.917 108.597C289.723 113.022 294.397 108.266 299.806 102.764C306.691 95.7599 314.493 87.8215 330.98 97.3409V98.9982C315.226 89.903 307.652 97.6094 300.97 104.408C295.567 109.907 290.462 115.1 281.931 110.264C281.881 110.241 281.835 110.215 281.788 110.188Z" fill="#FFAD02"/>
<path d="M226.617 28.9678V37.1846L231.658 40.0948L233.631 43.5121L235.603 42.3719L240.644 45.2821V37.062L226.617 28.9678Z" fill="#E9E9E9"/>
<path d="M275.732 83.2274V91.4443L280.774 94.3545L282.746 97.7718L284.718 96.6349L289.76 99.5418V91.3249L275.732 83.2274Z" fill="#E9E9E9"/>
<path d="M219.905 109.936L215.341 107.301V105.849L219.905 108.488V109.936Z" fill="#DFE4F4"/>
<path d="M228.238 114.749L223.674 112.111V110.662L228.238 113.297V114.749Z" fill="#DFE4F4"/>
<path d="M236.571 119.559L232.007 116.923V115.472L236.571 118.11V119.559Z" fill="#DFE4F4"/>
<path d="M244.904 124.368L240.339 121.733V120.284L244.904 122.92V124.368Z" fill="#DFE4F4"/>
<path d="M253.236 129.181L248.672 126.546V125.094L253.236 127.729V129.181Z" fill="#DFE4F4"/>
<path d="M261.569 133.99L257.005 131.355V129.907L261.569 132.542V133.99Z" fill="#DFE4F4"/>
<path d="M269.902 138.803L265.338 136.168V134.716L269.902 137.351V138.803Z" fill="#DFE4F4"/>
<path d="M278.235 143.612L273.671 140.977V139.529L278.235 142.164V143.612Z" fill="#DFE4F4"/>
<path d="M286.568 148.425L282.004 145.79V144.338L286.568 146.973V148.425Z" fill="#DFE4F4"/>
<path d="M294.901 153.235L290.336 150.6V149.148L294.901 151.786V153.235Z" fill="#DFE4F4"/>
<path d="M303.233 158.047L298.669 155.409V153.961L303.233 156.596V158.047Z" fill="#DFE4F4"/>
<path d="M311.566 162.857L307.002 160.222V158.77L311.566 161.408V162.857Z" fill="#DFE4F4"/>
<path d="M319.899 167.67L315.335 165.031V163.583L319.899 166.218V167.67Z" fill="#DFE4F4"/>
<path d="M328.232 172.479L323.668 169.844V168.392L328.232 171.027V172.479Z" fill="#DFE4F4"/>
<path d="M334.745 69.1405L216 0.581771C214.827 -0.0944034 213.76 -0.160695 212.981 0.276829L212.971 0.283459C212.961 0.286773 212.954 0.293402 212.948 0.296717L209.395 2.34844C210.173 1.91092 211.241 1.97721 212.414 2.65338L331.159 71.2121C333.525 72.5777 335.465 75.9354 335.465 78.6699V178.107C335.465 179.417 335.017 180.348 334.298 180.822L337.626 178.903L337.622 178.899C338.497 178.495 339.054 177.501 339.054 176.039V76.6016C339.054 73.8638 337.115 70.5061 334.745 69.1405Z" fill="url(#paint21_linear)"/>
<path d="M235.994 112.857V159.353C235.994 160.958 237.055 162.559 239.173 163.785C243.412 166.235 250.286 166.235 254.529 163.785C256.647 162.559 257.708 160.958 257.708 159.353V112.857H235.994Z" fill="url(#paint22_linear)"/>
<path d="M239.173 108.422C243.412 105.972 250.286 105.972 254.529 108.422C256.647 109.645 257.708 111.249 257.708 112.856C257.708 114.461 256.647 116.062 254.529 117.288C250.286 119.738 243.412 119.738 239.173 117.288C237.055 116.062 235.994 114.461 235.994 112.856C235.994 111.252 237.055 109.648 239.173 108.422Z" fill="#FFAD02"/>
<path d="M209.026 145.843V174.925C209.026 176.53 210.087 178.131 212.205 179.357C216.444 181.806 223.319 181.806 227.561 179.357C229.679 178.131 230.74 176.53 230.74 174.925V145.843H209.026Z" fill="url(#paint23_linear)"/>
<path d="M212.205 141.408C216.444 138.959 223.319 138.959 227.561 141.408C229.679 142.631 230.74 144.236 230.74 145.843C230.74 147.447 229.679 149.048 227.561 150.275C223.319 152.724 216.444 152.724 212.205 150.275C210.087 149.048 209.026 147.447 209.026 145.843C209.026 144.239 210.087 142.631 212.205 141.408Z" fill="#E8ECF7"/>
<path d="M182.059 175.429V190.494C182.059 192.098 183.12 193.699 185.238 194.925C189.477 197.375 196.352 197.375 200.594 194.925C202.712 193.699 203.773 192.098 203.773 190.494V175.429H182.059Z" fill="url(#paint24_linear)"/>
<path d="M185.238 170.998C189.477 168.548 196.352 168.548 200.594 170.998C202.712 172.221 203.773 173.825 203.773 175.432C203.773 177.037 202.712 178.638 200.594 179.864C196.352 182.313 189.477 182.313 185.238 179.864C183.12 178.638 182.059 177.037 182.059 175.432C182.059 173.825 183.12 172.221 185.238 170.998Z" fill="#807DFB"/>
<path d="M510.822 331.592H461.173L478.081 341.354L461.173 351.115H510.822L527.73 341.354L510.822 331.592Z" fill="url(#paint25_linear)"/>
<path d="M486.066 344.174H439.271L456.178 353.936L439.271 363.697H486.066L502.973 353.936L486.066 344.174Z" fill="url(#paint26_linear)"/>
<path d="M459.092 356.76H417.368L434.275 366.521L417.368 376.283H459.092L475.999 366.521L459.092 356.76Z" fill="url(#paint27_linear)"/>
<path d="M532.722 319.007H483.073L499.98 328.768L483.073 338.53H532.722L549.629 328.768L532.722 319.007Z" fill="url(#paint28_linear)"/>
<path d="M466.165 281.764L483.072 291.525V338.53L466.165 328.768V281.764Z" fill="#CED2F4"/>
<path d="M499.98 281.764L483.073 291.525V338.53L499.98 328.768V281.764Z" fill="#BBBFE2"/>
<path d="M483.072 272.003L466.165 281.764L483.072 291.525L499.98 281.764L483.072 272.003Z" fill="#F5F5FA"/>
<path d="M466.165 281.764L483.072 291.525V310.518L466.165 300.757V281.764Z" fill="#FC780B"/>
<path d="M499.98 281.764L483.073 291.525V310.518L499.98 300.757V281.764Z" fill="#EF4E16"/>
<path d="M483.072 272.003L466.165 281.764L483.072 291.525L499.98 281.764L483.072 272.003Z" fill="#FFAD02"/>
<path d="M444.262 302.901L461.17 312.662V351.112L444.262 341.35V302.901Z" fill="#CED2F4"/>
<path d="M478.078 302.901L461.17 312.662V351.112L478.078 341.35V302.901Z" fill="#BBBFE2"/>
<path d="M461.17 293.14L444.262 302.901L461.17 312.662L478.078 302.901L461.17 293.14Z" fill="#F5F5FA"/>
<path d="M444.265 302.901L461.17 312.662V323.236L444.265 313.475V302.901Z" fill="#FC780B"/>
<path d="M478.077 302.901L461.17 312.662V323.236L478.077 313.475V302.901Z" fill="#EF4E16"/>
<path d="M461.17 293.14L444.265 302.901L461.17 312.662L478.077 302.901L461.17 293.14Z" fill="#FFAD02"/>
<path d="M422.363 293.027L439.27 302.788V363.697L422.363 353.936V293.027Z" fill="#5652CA"/>
<path d="M456.178 293.123L439.27 302.885V363.697L456.178 353.936V293.123Z" fill="#423EAD"/>
<path d="M439.27 283.458L422.363 293.219L439.27 302.981L456.178 293.219L439.27 283.458Z" fill="#6B67E7"/>
<path d="M400.46 346.186L417.368 355.947V376.282L400.46 366.521V346.186Z" fill="#CED2F4"/>
<path d="M434.275 346.186L417.368 355.947V376.282L434.275 366.521V346.186Z" fill="#BBBFE2"/>
<path d="M417.368 336.421L400.46 346.186L417.368 355.948L434.275 346.186L417.368 336.421Z" fill="#F6F6FB"/>
<path d="M233.939 399.998L298.105 362.948L291.824 359.322L227.657 396.369L233.939 399.998Z" fill="#DAE0F5"/>
<path d="M224.217 394.383L316.395 341.165L310.114 337.538L217.936 390.757L224.217 394.383Z" fill="#DAE0F5"/>
<path d="M214.495 388.772L316.395 329.938L310.114 326.312L208.214 385.146L214.495 388.772Z" fill="#DAE0F5"/>
<path d="M204.774 383.16L295.146 330.982L288.864 327.356L198.492 379.531L204.774 383.16Z" fill="#DAE0F5"/>
<path d="M195.052 377.545L249.497 346.11L243.216 342.484L188.771 373.919L195.052 377.545Z" fill="#DAE0F5"/>
<path d="M185.33 371.934L224.409 349.372L218.128 345.745L179.049 368.308L185.33 371.934Z" fill="#DAE0F5"/>
<path d="M175.609 366.319L224.409 338.145L218.128 334.519L169.327 362.693L175.609 366.319Z" fill="#DAE0F5"/>
<path d="M165.887 360.707L219.862 329.547L213.581 325.917L159.606 357.081L165.887 360.707Z" fill="#DAE0F5"/>
<path d="M156.165 355.096L227.89 313.683L221.608 310.057L149.884 351.466L156.165 355.096Z" fill="#DAE0F5"/>
<path d="M146.444 349.481L231.774 300.216L225.493 296.59L140.163 345.855L146.444 349.481Z" fill="#FD9009"/>
<path d="M136.722 343.869L212.331 300.216L206.05 296.59L130.441 340.243L136.722 343.869Z" fill="#FD9009"/>
<path d="M127 338.258L174.124 311.048L167.843 307.422L120.719 334.628L127 338.258Z" fill="#FD9009"/>
<path d="M117.279 332.643L180.13 296.358L173.849 292.729L110.998 329.017L117.279 332.643Z" fill="#DAE0F5"/>
<path d="M107.557 327.031L162.006 295.596L155.721 291.97L101.276 323.405L107.557 327.031Z" fill="#DAE0F5"/>
<path d="M233.916 288.261C220.82 280.697 203.001 277.541 185.944 278.764C198.244 279.646 210.15 282.805 219.597 288.261C242.136 301.274 242.136 322.374 219.597 335.387C210.15 340.84 198.244 344.002 185.94 344.884C202.997 346.11 220.82 342.948 233.916 335.387C256.455 322.374 256.458 301.277 233.916 288.261Z" fill="url(#paint29_linear)"/>
<path d="M155.867 288.261C165.311 282.808 177.22 279.646 189.524 278.764C172.467 277.538 154.644 280.7 141.548 288.261C119.006 301.274 119.006 322.374 141.548 335.387C154.644 342.948 172.464 346.107 189.52 344.884C177.217 344.002 165.314 340.843 155.867 335.387C133.325 322.374 133.325 301.277 155.867 288.261Z" fill="url(#paint30_linear)"/>
<path d="M222.968 288.32C200.316 275.244 163.587 275.244 140.935 288.32C118.283 301.4 118.283 322.603 140.935 335.682C163.587 348.762 200.316 348.762 222.964 335.682C245.62 322.603 245.623 301.4 222.968 288.32ZM216.199 331.774C197.283 342.696 166.62 342.696 147.704 331.774C128.787 320.856 128.787 303.15 147.7 292.228C166.617 281.31 197.283 281.31 216.199 292.228C235.116 303.15 235.116 320.856 216.199 331.774Z" fill="#A399A3"/>
<path d="M147.704 278.904C166.62 267.982 197.286 267.982 216.203 278.904C228.619 286.073 232.885 296.163 229 305.341C226.968 300.535 222.702 295.984 216.203 292.228C197.286 281.31 166.62 281.31 147.704 292.228C141.204 295.98 136.938 300.535 134.906 305.341C131.021 296.163 135.287 286.073 147.704 278.904Z" fill="#FF5C37"/>
<path d="M216.302 283.06C197.392 272.142 166.729 272.142 147.816 283.06C128.903 293.978 128.903 311.681 147.816 322.6C166.729 333.518 197.389 333.518 216.302 322.6C235.215 311.681 235.215 293.978 216.302 283.06Z" fill="#F3F3F3"/>
<path d="M152.682 285.012C156.802 282.391 163.657 282.092 167.989 284.35C172.321 286.607 172.49 290.564 168.37 293.186C164.25 295.808 157.395 296.106 153.063 293.849C148.731 291.592 148.562 287.634 152.682 285.012Z" fill="#ECECEC"/>
<path d="M173.451 280.203C175.158 279.119 177.992 278.996 179.788 279.931C181.582 280.866 181.651 282.503 179.948 283.587C178.241 284.674 175.403 284.797 173.61 283.862C171.814 282.931 171.744 281.29 173.451 280.203Z" fill="#ECECEC"/>
<path d="M216.302 285.039C197.392 274.121 166.729 274.121 147.816 285.039C138.794 290.246 134.087 296.998 133.673 303.819C133.219 296.338 137.925 288.771 147.816 283.06C166.729 272.142 197.392 272.142 216.302 283.06C226.196 288.771 230.903 296.338 230.445 303.819C230.031 296.998 225.321 290.246 216.302 285.039Z" fill="#F5F5FA"/>
<path d="M222.968 274.996C200.316 261.916 163.587 261.916 140.935 274.996C118.283 288.075 118.283 309.278 140.935 322.358C163.587 335.437 200.316 335.437 222.964 322.358C245.62 309.282 245.623 288.075 222.968 274.996ZM216.199 318.453C197.283 329.375 166.62 329.375 147.704 318.453C128.787 307.532 128.787 289.829 147.7 278.907C166.617 267.985 197.283 267.985 216.199 278.907C235.116 289.825 235.116 307.532 216.199 318.453Z" fill="#CED2F4"/>
<path d="M140.935 322.358C163.587 335.437 200.316 335.437 222.964 322.358C234.144 315.901 239.796 307.469 239.942 299.01V311.672H239.938C240.087 320.353 234.436 329.06 222.964 335.683C200.312 348.762 163.587 348.762 140.935 335.683C129.463 329.06 123.812 320.353 123.961 311.672V299.07C124.13 307.509 129.782 315.918 140.935 322.358Z" fill="url(#paint31_linear)"/>
<path d="M222.968 324.141C224.396 323.316 225.732 322.461 226.982 321.576L236.737 327.21L228.281 332.093L218.523 326.458C220.058 325.735 221.539 324.963 222.968 324.141Z" fill="#F5F5FA"/>
<path d="M228.281 341.851L218.523 336.216V326.455L228.281 332.089V341.851Z" fill="#CED2F4"/>
<path d="M224.608 339.09C224.608 334.052 228.145 327.923 232.507 325.407C234.778 324.098 236.816 324.032 238.255 324.966L238.258 324.956L294.496 357.426L283.747 376.949L227.509 344.479C225.739 343.826 224.608 341.94 224.608 339.09Z" fill="url(#paint32_linear)"/>
<path d="M231.861 346.982L234.612 348.57C233.419 347.661 232.689 346.011 232.689 343.737C232.689 338.699 236.226 332.573 240.588 330.054C242.858 328.745 244.897 328.679 246.335 329.613L242.61 327.462L242.607 327.469C241.168 326.534 239.126 326.6 236.859 327.91C232.497 330.429 228.96 336.554 228.96 341.592C228.96 344.443 230.091 346.329 231.861 346.982Z" fill="url(#paint33_linear)"/>
<path d="M282.445 376.197C284.238 377.426 286.405 378.152 288.746 378.152C294.904 378.152 299.896 373.16 299.896 366.999C299.896 362.782 297.556 359.113 294.102 357.217C292.693 356.525 290.817 356.677 288.746 357.874C284.384 360.393 280.847 366.518 280.847 371.559C280.847 373.75 281.516 375.375 282.633 376.303L282.445 376.197Z" fill="url(#paint34_linear)"/>
<defs>
<linearGradient id="paint0_linear" x1="480.357" y1="2.06617" x2="588.866" y2="190.005" gradientUnits="userSpaceOnUse">
<stop offset="0.552083" stop-color="#FF8037"/>
<stop offset="0.651042" stop-color="#FF5B36"/>
</linearGradient>
<linearGradient id="paint1_linear" x1="193.547" y1="190.493" x2="229.28" y2="190.493" gradientUnits="userSpaceOnUse">
<stop stop-color="#C2C7E3"/>
<stop offset="0.2529" stop-color="#DDE0EF"/>
<stop offset="0.543" stop-color="#F6F7FB"/>
<stop offset="0.7195" stop-color="white"/>
</linearGradient>
<linearGradient id="paint2_linear" x1="247.483" y1="159.354" x2="326.219" y2="159.354" gradientUnits="userSpaceOnUse">
<stop stop-color="#C2C7E3"/>
<stop offset="0.2529" stop-color="#DDE0EF"/>
<stop offset="0.543" stop-color="#F6F7FB"/>
<stop offset="0.7195" stop-color="white"/>
</linearGradient>
<linearGradient id="paint3_linear" x1="220.515" y1="174.924" x2="274.383" y2="174.924" gradientUnits="userSpaceOnUse">
<stop stop-color="#C2C7E3"/>
<stop offset="0.2529" stop-color="#DDE0EF"/>
<stop offset="0.543" stop-color="#F6F7FB"/>
<stop offset="0.7195" stop-color="white"/>
</linearGradient>
<linearGradient id="paint4_linear" x1="514.187" y1="280.772" x2="600.235" y2="280.772" gradientUnits="userSpaceOnUse">
<stop stop-color="#D1D6F0"/>
<stop offset="0.2899" stop-color="#D5DAF1"/>
<stop offset="0.5923" stop-color="#E2E5F5"/>
<stop offset="0.8994" stop-color="#F6F7FC"/>
<stop offset="1" stop-color="white"/>
</linearGradient>
<linearGradient id="paint5_linear" x1="578.307" y1="285.434" x2="586.864" y2="285.434" gradientUnits="userSpaceOnUse">
<stop stop-color="#A5ACD4"/>
<stop offset="0.6348" stop-color="#BEC3E7"/>
<stop offset="1" stop-color="#CED2F4"/>
</linearGradient>
<linearGradient id="paint6_linear" x1="514.187" y1="285.445" x2="522.784" y2="285.445" gradientUnits="userSpaceOnUse">
<stop stop-color="#BBBFE2"/>
<stop offset="1" stop-color="#CED2F4"/>
</linearGradient>
<linearGradient id="paint7_linear" x1="564.015" y1="293.371" x2="575.001" y2="293.371" gradientUnits="userSpaceOnUse">
<stop stop-color="#A5ACD4"/>
<stop offset="0.5164" stop-color="#BCC2E6"/>
<stop offset="1" stop-color="#CED2F4"/>
</linearGradient>
<linearGradient id="paint8_linear" x1="526.156" y1="293.383" x2="537.162" y2="293.383" gradientUnits="userSpaceOnUse">
<stop stop-color="#BBBFE2"/>
<stop offset="1" stop-color="#CED2F4"/>
</linearGradient>
<linearGradient id="paint9_linear" x1="544.641" y1="296.59" x2="556.568" y2="296.59" gradientUnits="userSpaceOnUse">
<stop stop-color="#BBBFE2"/>
<stop offset="1" stop-color="#CED2F4"/>
</linearGradient>
<linearGradient id="paint10_linear" x1="550.36" y1="270.354" x2="579.482" y2="270.354" gradientUnits="userSpaceOnUse">
<stop stop-color="#D1D6F0"/>
<stop offset="0.5867" stop-color="#EFF1FA"/>
<stop offset="1" stop-color="white"/>
</linearGradient>
<linearGradient id="paint11_linear" x1="528.749" y1="276.568" x2="572.087" y2="276.568" gradientUnits="userSpaceOnUse">
<stop stop-color="#CED2F4"/>
<stop offset="1" stop-color="#BBBFE2"/>
</linearGradient>
<linearGradient id="paint12_linear" x1="550.361" y1="269.264" x2="572.091" y2="269.264" gradientUnits="userSpaceOnUse">
<stop stop-color="#D1D6F0"/>
<stop offset="0.5867" stop-color="#EFF1FA"/>
<stop offset="1" stop-color="white"/>
</linearGradient>
<linearGradient id="paint13_linear" x1="535.135" y1="264.251" x2="565.705" y2="264.251" gradientUnits="userSpaceOnUse">
<stop stop-color="#5655C4"/>
<stop offset="0.0117" stop-color="#5F5ED0"/>
<stop offset="0.0314" stop-color="#6B6AE0"/>
<stop offset="1" stop-color="#5655C4"/>
</linearGradient>
<linearGradient id="paint14_linear" x1="535.134" y1="269.925" x2="565.705" y2="269.925" gradientUnits="userSpaceOnUse">
<stop stop-color="#5655C4"/>
<stop offset="0.6445" stop-color="#3E3C9D"/>
<stop offset="1" stop-color="#34318D"/>
</linearGradient>
<linearGradient id="paint15_linear" x1="494.515" y1="229.859" x2="494.515" y2="160.2" gradientUnits="userSpaceOnUse">
<stop stop-color="#BBBFE2"/>
<stop offset="1" stop-color="#A5ACD4"/>
</linearGradient>
<linearGradient id="paint16_linear" x1="345.744" y1="-19.3764" x2="501.857" y2="251.019" gradientUnits="userSpaceOnUse">
<stop offset="0.5757" stop-color="#FF7F36"/>
<stop offset="0.6122" stop-color="#FF5A35"/>
</linearGradient>
<linearGradient id="paint17_linear" x1="375.129" y1="179.597" x2="413.213" y2="113.633" gradientUnits="userSpaceOnUse">
<stop stop-color="#FF7F36"/>
<stop offset="1" stop-color="#FF5A35"/>
</linearGradient>
<linearGradient id="paint18_linear" x1="361.354" y1="172.054" x2="361.354" y2="117.236" gradientUnits="userSpaceOnUse">
<stop stop-color="#FFAD02"/>
<stop offset="1" stop-color="#EF4E16"/>
</linearGradient>
<linearGradient id="paint19_linear" x1="441.408" y1="218.072" x2="441.408" y2="167.436" gradientUnits="userSpaceOnUse">
<stop stop-color="#FFAD02"/>
<stop offset="1" stop-color="#EF4E16"/>
</linearGradient>
<linearGradient id="paint20_linear" x1="295.258" y1="110.872" x2="352.646" y2="110.872" gradientUnits="userSpaceOnUse">
<stop stop-color="#D1D7F3"/>
<stop offset="0.0479" stop-color="#D5DAF3"/>
<stop offset="0.3057" stop-color="#E5E7F5"/>
<stop offset="0.5987" stop-color="#EEEFF6"/>
<stop offset="1" stop-color="#F1F1F6"/>
</linearGradient>
<linearGradient id="paint21_linear" x1="242.384" y1="-16.701" x2="350.893" y2="171.241" gradientUnits="userSpaceOnUse">
<stop offset="0.552083" stop-color="#FF8037"/>
<stop offset="0.651042" stop-color="#FF5B36"/>
</linearGradient>
<linearGradient id="paint22_linear" x1="235.995" y1="139.24" x2="257.71" y2="139.24" gradientUnits="userSpaceOnUse">
<stop stop-color="#FD9009"/>
<stop offset="1" stop-color="#EF4E16"/>
</linearGradient>
<linearGradient id="paint23_linear" x1="209.027" y1="163.518" x2="230.742" y2="163.518" gradientUnits="userSpaceOnUse">
<stop stop-color="#CCD1F6"/>
<stop offset="1" stop-color="#A1A7CE"/>
</linearGradient>
<linearGradient id="paint24_linear" x1="182.059" y1="186.096" x2="203.774" y2="186.096" gradientUnits="userSpaceOnUse">
<stop stop-color="#5652CC"/>
<stop offset="1" stop-color="#423EAF"/>
</linearGradient>
<linearGradient id="paint25_linear" x1="461.172" y1="341.353" x2="527.728" y2="341.353" gradientUnits="userSpaceOnUse">
<stop stop-color="#C2C7E3"/>
<stop offset="0.2529" stop-color="#DDE0EF"/>
<stop offset="0.543" stop-color="#F6F7FB"/>
<stop offset="0.7195" stop-color="white"/>
</linearGradient>
<linearGradient id="paint26_linear" x1="439.27" y1="353.936" x2="502.973" y2="353.936" gradientUnits="userSpaceOnUse">
<stop stop-color="#C2C7E3"/>
<stop offset="0.2529" stop-color="#DDE0EF"/>
<stop offset="0.543" stop-color="#F6F7FB"/>
<stop offset="0.7195" stop-color="white"/>
</linearGradient>
<linearGradient id="paint27_linear" x1="417.368" y1="366.52" x2="475.999" y2="366.52" gradientUnits="userSpaceOnUse">
<stop stop-color="#C2C7E3"/>
<stop offset="0.2529" stop-color="#DDE0EF"/>
<stop offset="0.543" stop-color="#F6F7FB"/>
<stop offset="0.7195" stop-color="white"/>
</linearGradient>
<linearGradient id="paint28_linear" x1="483.074" y1="328.769" x2="549.63" y2="328.769" gradientUnits="userSpaceOnUse">
<stop stop-color="#C2C7E3"/>
<stop offset="0.2529" stop-color="#DDE0EF"/>
<stop offset="0.543" stop-color="#F6F7FB"/>
<stop offset="0.7195" stop-color="white"/>
</linearGradient>
<linearGradient id="paint29_linear" x1="185.939" y1="311.826" x2="250.821" y2="311.826" gradientUnits="userSpaceOnUse">
<stop stop-color="#C4C9E5"/>
<stop offset="0.2515" stop-color="#CDD1E9"/>
<stop offset="0.6648" stop-color="#E6E8F4"/>
<stop offset="1" stop-color="white"/>
</linearGradient>
<linearGradient id="paint30_linear" x1="124.64" y1="311.826" x2="189.523" y2="311.826" gradientUnits="userSpaceOnUse">
<stop stop-color="#C4C9E5"/>
<stop offset="0.2515" stop-color="#CDD1E9"/>
<stop offset="0.6648" stop-color="#E6E8F4"/>
<stop offset="1" stop-color="white"/>
</linearGradient>
<linearGradient id="paint31_linear" x1="170.294" y1="329.623" x2="176.692" y2="308.804" gradientUnits="userSpaceOnUse">
<stop stop-color="#FF5B36"/>
<stop offset="0.2147" stop-color="#FF7050"/>
<stop offset="0.5688" stop-color="#FF8D51"/>
<stop offset="1" stop-color="#FFAD02"/>
</linearGradient>
<linearGradient id="paint32_linear" x1="252.529" y1="358.987" x2="263.697" y2="339.643" gradientUnits="userSpaceOnUse">
<stop stop-color="#FF5B36"/>
<stop offset="0.2147" stop-color="#FF7050"/>
<stop offset="0.5688" stop-color="#FF8D51"/>
<stop offset="1" stop-color="#FFAD02"/>
</linearGradient>
<linearGradient id="paint33_linear" x1="230.428" y1="346.218" x2="241.599" y2="326.87" gradientUnits="userSpaceOnUse">
<stop stop-color="#C4C9E5"/>
<stop offset="0.2515" stop-color="#CDD1E9"/>
<stop offset="0.6648" stop-color="#E6E8F4"/>
<stop offset="1" stop-color="white"/>
</linearGradient>
<linearGradient id="paint34_linear" x1="288.457" y1="370.864" x2="293.63" y2="364.845" gradientUnits="userSpaceOnUse">
<stop stop-color="#FF5B36"/>
<stop offset="0.2147" stop-color="#FF7050"/>
<stop offset="0.5688" stop-color="#FF8D51"/>
<stop offset="1" stop-color="#FFAD02"/>
</linearGradient>
</defs>
</svg>
