<svg width="138" height="34" version="1.1" viewBox="0 0 138 34" xmlns="http://www.w3.org/2000/svg">
 <defs>
  <style>.cls-1{fill:#3564af;}.cls-2{fill:#253d83;}</style>
 </defs>
 <g transform="matrix(.25098 0 0 .25907 .99751 1)" data-name="Слой 2">
  <g id="UPbit">
   <g fill="#3564af">
    <path class="cls-1" d="m68.39 101.08s0.01-0.01 0 0z"/>
    <path class="cls-1" d="m68.38 101.12"/>
    <path class="cls-1" d="m68.37 101.15"/>
    <path class="cls-1" d="m68.36 101.18"/>
    <path class="cls-1" d="m68.36 101.17"/>
    <path class="cls-1" d="m68.36 101.17"/>
    <path class="cls-1" d="m101.73 0.23-33.34 100.85h-19.22a6.79 6.79 0 0 1-6.44-8.92 1.3 1.3 0 0 0 0.05-0.14c0.38-1.16 4.15-12.48 30.59-92h-41.12l-31.1 93.98a22.46 22.46 0 0 0 20.85 29.52h80.12l30.76-93.23-16.57 4.32 32.69-34.38z"/>
    <path class="cls-1" d="m68.39 101.08"/>
    <path class="cls-1" d="m42.81 92.06"/>
    <path class="cls-1" d="m42.78 92.15v-0.07z"/>
    <path class="cls-1" d="m42.8 92.08"/>
    <path class="cls-1" d="m246.52 0.32-88 0.17 10.48 34.14-14.17-4.32-30.71 92.69h40.88l13.19-38.66h41a45.76 45.76 0 0 0 43.5-31.55l4.31-13.05c12.34-37.34-13.87-39.42-20.48-39.42zm-24.52 21.79a6.78 6.78 0 0 1 6.41 8.89l-7.41 22.23a13.63 13.63 0 0 1-12.92 9.32h-22.88l13.48-40.44z"/>
   </g>
   <g fill="#253d83">
    <path class="cls-2" d="m371.07 39.9h-42.46l13.13-39.61h-41.63l-40.63 123.05h81.44a47.13 47.13 0 0 0 44.73-32.34l6.18-18.65c3.07-9.11 4.61-32.45-20.76-32.45zm-19.77 30.63-7.3 21.9a13.46 13.46 0 0 1-12.74 9.18h-23l13.18-40.27h24.34c3.53-0.03 8.08 1.42 5.52 9.19z"/>
    <polygon class="cls-2" points="474.54 0.37 464.12 31.88 422.73 31.98 433.15 0.37"/>
    <polygon class="cls-2" points="458.44 49.15 434.02 123.31 392.57 123.31 416.99 49.15"/>
    <path class="cls-2" d="m506.5 89.87 9.35-28.26h18.79l7.24-21.44-18.88-0.07 13.45-40.1-41.82 0.35-30.5 93.32a22.77 22.77 0 0 0 21.87 29.83l38.56-0.33 7.18-21.81h-16.94a8.75 8.75 0 0 1-8.3-11.49z"/>
   </g>
  </g>
 </g>
</svg>
