<svg width="30" height="30" viewBox="0 0 30 30" fill="none" xmlns="http://www.w3.org/2000/svg">
<path d="M15 30C23.3125 30 30 23.3125 30 15C30 6.68745 23.3125 0 15 0C6.68745 0 0 6.68745 0 15C0 23.3125 6.68745 30 15 30Z" fill="#2775CA"/>
<path d="M19.1249 17.375C19.1249 15.1876 17.8124 14.4376 15.1874 14.1251C13.3124 13.8751 12.9374 13.3751 12.9374 12.5C12.9374 11.6249 13.5625 11.0626 14.8124 11.0626C15.9374 11.0626 16.5625 11.4376 16.8749 12.3751C16.9375 12.5626 17.125 12.6875 17.3125 12.6875H18.3123C18.5624 12.6875 18.7499 12.5 18.7499 12.2501V12.1876C18.4998 10.8125 17.3749 9.75005 15.9374 9.6251V8.1251C15.9374 7.87505 15.7499 7.68755 15.4375 7.625H14.5C14.2499 7.625 14.0624 7.8125 13.9999 8.1251V9.56255C12.1249 9.8126 10.9375 11.0626 10.9375 12.6251C10.9375 14.6876 12.1874 15.5 14.8124 15.8126C16.5625 16.1251 17.125 16.5001 17.125 17.5001C17.125 18.5002 16.2499 19.1876 15.0625 19.1876C13.4374 19.1876 12.8749 18.5 12.6874 17.5625C12.625 17.3126 12.4375 17.1875 12.25 17.1875H11.1874C10.9375 17.1875 10.75 17.375 10.75 17.6251V17.6876C10.9999 19.25 11.9999 20.375 14.0624 20.6876V22.1876C14.0624 22.4375 14.2499 22.625 14.5624 22.6876H15.4999C15.7499 22.6876 15.9374 22.5001 16 22.1876V20.6876C17.8749 20.375 19.1249 19.0625 19.1249 17.375Z" fill="white"/>
<path d="M11.8123 23.9374C6.93725 22.1875 4.4372 16.75 6.2498 11.9374C7.1873 9.3124 9.2498 7.31245 11.8123 6.37495C12.0623 6.25 12.1873 6.0625 12.1873 5.7499V4.87495C12.1873 4.6249 12.0623 4.4374 11.8123 4.375C11.7497 4.375 11.6248 4.375 11.5622 4.4374C5.62475 6.3124 2.3747 12.625 4.2497 18.5624C5.3747 22.0624 8.06225 24.75 11.5622 25.875C11.8123 25.9999 12.0623 25.875 12.1247 25.6249C12.1873 25.5625 12.1873 25.5 12.1873 25.375V24.4999C12.1873 24.3124 11.9998 24.0625 11.8123 23.9374ZM18.4373 4.4374C18.1873 4.31245 17.9372 4.4374 17.8748 4.68745C17.8123 4.75 17.8123 4.8124 17.8123 4.9375V5.81245C17.8123 6.0625 17.9998 6.3124 18.1873 6.4375C23.0623 8.1874 25.5623 13.6249 23.7497 18.4375C22.8122 21.0625 20.7497 23.0625 18.1873 24C17.9372 24.1249 17.8123 24.3124 17.8123 24.625V25.5C17.8123 25.75 17.9372 25.9375 18.1873 25.9999C18.2498 25.9999 18.3748 25.9999 18.4373 25.9375C24.3748 24.0625 27.6248 17.7499 25.7498 11.8124C24.6248 8.24995 21.8747 5.5624 18.4373 4.4374Z" fill="white"/>
</svg>
