<svg width="30" height="30" viewBox="0 0 30 30" fill="none" xmlns="http://www.w3.org/2000/svg">
<path d="M24.4619 6.29608L23.6382 7.1198C25.6037 9.26925 26.6937 12.0765 26.6937 14.9891C26.6937 17.9017 25.6037 20.7089 23.6382 22.8584L24.4619 23.6821C26.6478 21.3111 27.8614 18.2044 27.8614 14.9795C27.8614 11.7546 26.6478 8.64786 24.4619 6.27686V6.29608Z" fill="#5A5564"/>
<path d="M7.13884 6.36724C9.2883 4.4017 12.0955 3.3117 15.0081 3.3117C17.9208 3.3117 20.728 4.4017 22.8774 6.36724L23.7012 5.54351C21.3302 3.35763 18.2234 2.14404 14.9985 2.14404C11.7737 2.14404 8.6669 3.35763 6.2959 5.54351L7.13884 6.36724Z" fill="#5A5564"/>
<path d="M6.36724 22.8666C4.40403 20.7176 3.31547 17.9121 3.31547 15.0014C3.31547 12.0907 4.40403 9.2852 6.36724 7.13622L5.54351 6.3125C3.35763 8.6835 2.14404 11.7903 2.14404 15.0151C2.14404 18.24 3.35763 21.3468 5.54351 23.7178L6.36724 22.8666Z" fill="#5A5564"/>
<path d="M22.8665 23.6274C20.7171 25.593 17.9099 26.683 14.9972 26.683C12.0846 26.683 9.27738 25.593 7.12792 23.6274L6.3042 24.4512C8.6752 26.6371 11.782 27.8506 15.0068 27.8506C18.2317 27.8506 21.3385 26.6371 23.7095 24.4512L22.8665 23.6274Z" fill="#5A5564"/>
<path d="M20.2007 12.2516C20.0359 10.5327 18.5532 9.95613 16.6779 9.78041V7.41357H15.2281V9.73647C14.8464 9.73647 14.4566 9.73647 14.0694 9.73647V7.41357H12.6306V9.79688H9.68994V11.3482C9.68994 11.3482 10.7608 11.329 10.7443 11.3482C10.9374 11.327 11.1312 11.3815 11.2848 11.5004C11.4385 11.6192 11.54 11.793 11.568 11.9852V18.5091C11.5639 18.5769 11.5462 18.6432 11.516 18.704C11.4859 18.7649 11.4438 18.819 11.3923 18.8633C11.3418 18.9085 11.2827 18.9429 11.2185 18.9646C11.1543 18.9863 11.0864 18.9948 11.0189 18.9896C11.0381 19.0061 9.96452 18.9896 9.96452 18.9896L9.68994 20.7222H12.6032V23.1439H14.0529V20.7579H15.2116V23.133H16.6641V20.7387C19.1133 20.5904 20.8212 19.9863 21.0354 17.6936C21.2083 15.8485 20.3407 15.0248 18.9541 14.6925C19.797 14.2779 20.3187 13.5091 20.2007 12.2516ZM18.1688 17.4081C18.1688 19.2093 15.0826 19.0034 14.0996 19.0034V15.8073C15.0826 15.8101 18.1688 15.5272 18.1688 17.4081ZM17.4961 12.9051C17.4961 14.5525 14.9206 14.3521 14.1024 14.3521V11.4471C14.9206 11.4471 17.4961 11.189 17.4961 12.9051Z" fill="#F09242"/>
<path d="M14.9973 30C12.0308 29.9995 9.13106 29.1193 6.66474 27.4709C4.19842 25.8225 2.27626 23.4798 1.14129 20.739C0.00631423 17.9982 -0.290504 14.9824 0.288362 12.073C0.867227 9.16352 2.29578 6.49103 4.3934 4.3934C6.49103 2.29578 9.16352 0.867227 12.073 0.288362C14.9824 -0.290504 17.9982 0.00631423 20.739 1.14129C23.4798 2.27626 25.8225 4.19842 27.4709 6.66474C29.1193 9.13106 29.9995 12.0308 30 14.9973C30.0004 16.9676 29.6126 18.9186 28.8587 20.739C28.1049 22.5594 26.9998 24.2134 25.6066 25.6066C24.2134 26.9998 22.5594 28.1049 20.739 28.8587C18.9186 29.6126 16.9676 30.0004 14.9973 30ZM14.9973 1.16969C12.2642 1.17187 9.59316 1.98422 7.32169 3.50409C5.05023 5.02396 3.28032 7.1831 2.23569 9.70863C1.19105 12.2342 0.918572 15.0127 1.45269 17.693C1.98682 20.3734 3.30356 22.8352 5.2365 24.7674C7.16944 26.6996 9.63181 28.0153 12.3124 28.5484C14.9929 29.0814 17.7713 28.8079 20.2965 27.7622C22.8216 26.7166 24.98 24.9458 26.499 22.6738C28.0179 20.4017 28.8292 17.7303 28.8303 14.9973C28.831 13.1807 28.4737 11.3819 27.7787 9.70356C27.0837 8.02524 26.0647 6.50037 24.78 5.21614C23.4953 3.93192 21.97 2.91353 20.2914 2.21921C18.6128 1.52489 16.8138 1.16825 14.9973 1.16969Z" fill="#282138"/>
</svg>
