<svg width="30" height="30" viewBox="0 0 30 30" fill="none" xmlns="http://www.w3.org/2000/svg">
<circle cx="15" cy="15" r="15" fill="#EFEFEF"/>
<g clip-path="url(#clip0)">
<path d="M15.0239 6.90651V6.91457C15.0319 6.95487 15.0319 7.00324 15.0319 7.0516V12.8635C15.0239 12.8958 14.9997 12.9038 14.9755 12.9199C14.8062 13.0006 14.645 13.0731 14.4757 13.1456C14.242 13.2504 14.0001 13.3633 13.7664 13.4681L12.92 13.855C12.6862 13.9598 12.4524 14.0646 12.2267 14.1694C11.9527 14.2984 11.6705 14.4193 11.3965 14.5482C11.1627 14.653 10.9289 14.7659 10.6871 14.8707C10.4936 14.9594 10.3002 15.04 10.1148 15.1286C10.0987 15.1367 10.0825 15.1448 10.0664 15.1448C10.0584 15.1448 10.0584 15.1448 10.0503 15.1367L10.2679 14.774C10.6871 14.0807 11.0982 13.3955 11.5174 12.7023C11.9607 11.9607 12.4121 11.2191 12.8555 10.4775C13.2666 9.79231 13.6858 9.10713 14.0969 8.42196C14.3951 7.92218 14.7014 7.4224 14.9997 6.92263C15.0077 6.90651 15.0158 6.89845 15.0158 6.88232H15.0239C15.0158 6.89039 15.0239 6.89845 15.0239 6.90651Z" fill="#9D9D9D"/>
<path d="M19.9728 15.1366L19.9809 15.1446L18.7959 15.8459L15.0718 18.0466C15.0557 18.0546 15.0396 18.0627 15.0315 18.0707C15.0073 18.0707 15.0073 18.0466 15.0073 18.0385V17.966V12.9843C15.0073 12.9601 15.0073 12.9279 15.0154 12.9037C15.0234 12.8715 15.0476 12.8795 15.0718 12.8876C15.1766 12.9359 15.2895 12.9843 15.3942 13.0327C15.7086 13.1778 16.023 13.3229 16.3374 13.4599C16.6114 13.5808 16.8775 13.7098 17.1515 13.8307C17.4256 13.9516 17.6997 14.0806 17.9737 14.2015C18.2075 14.3063 18.4493 14.4192 18.6831 14.5239C18.9169 14.6287 19.1587 14.7416 19.3925 14.8464C19.5779 14.927 19.7633 15.0157 19.9487 15.0963C19.9487 15.1205 19.9567 15.1285 19.9728 15.1366Z" fill="#4B4B4B"/>
<path d="M15.0234 23.0767C15.0234 23.0847 15.0153 23.0928 15.0153 23.1009H15.0073C15.0073 23.0848 14.9911 23.0767 14.9831 23.0606C14.4833 22.3593 13.9835 21.6499 13.4838 20.9486C12.9759 20.2312 12.46 19.5057 11.9522 18.7883C11.4605 18.095 10.9607 17.3937 10.469 16.7005C10.34 16.5151 10.211 16.3378 10.082 16.1524C10.074 16.1362 10.0659 16.1282 10.0498 16.104C10.074 16.104 10.0901 16.1201 10.0982 16.1282C10.7995 16.5393 11.4927 16.9504 12.194 17.3615C13.0001 17.8371 13.7981 18.3127 14.6042 18.7883L15.0153 19.0301C15.0314 19.0462 15.0314 19.0624 15.0314 19.0785V22.9638C15.0314 23.0041 15.0314 23.0444 15.0234 23.0767Z" fill="#9D9D9D"/>
<path d="M10.042 15.1526V15.1445C10.2999 15.0317 10.5498 14.9107 10.8078 14.7979C11.1383 14.6447 11.4688 14.4996 11.7993 14.3465C12.0492 14.2336 12.3071 14.1127 12.557 13.9999C12.9278 13.8306 13.2905 13.6694 13.6613 13.5001C13.9112 13.3872 14.1611 13.2744 14.4191 13.1535C14.5964 13.0729 14.7818 12.9922 14.9591 12.9116C14.9753 12.9036 14.9994 12.8955 15.0075 12.8794C15.0156 12.8794 15.0156 12.8875 15.0075 12.8955V18.0142C15.0075 18.0384 14.9994 18.0626 15.0156 18.0787C14.9994 18.1029 14.9833 18.0787 14.9753 18.0706C14.9027 18.0303 14.8302 17.99 14.7576 17.9416C13.2019 17.0227 11.6381 16.0957 10.0823 15.1768C10.0742 15.1687 10.0581 15.1606 10.042 15.1526Z" fill="#494949"/>
<path d="M19.957 16.104H19.965C19.965 16.1201 19.9489 16.1362 19.9408 16.1524C18.4576 18.2401 16.9744 20.336 15.4912 22.4238C15.3381 22.6414 15.1768 22.859 15.0237 23.0767C15.0156 23.0686 15.0156 23.0606 15.0156 23.0525V23.0041V19.0946V19.0221C15.3542 18.8205 15.6847 18.6271 16.0232 18.4255C17.3291 17.6517 18.635 16.8859 19.9328 16.1121C19.9408 16.1201 19.9489 16.1121 19.957 16.104Z" fill="#494949"/>
<path d="M15.0156 12.8957V12.8796V12.8313V6.97904C15.0156 6.95486 15.0076 6.93873 15.0237 6.91455C16.6601 9.63108 18.2964 12.3395 19.9247 15.0561C19.9408 15.0802 19.965 15.1125 19.9731 15.1447C19.8602 15.1044 19.7554 15.048 19.6507 14.9996C19.5217 14.9432 19.3846 14.8787 19.2557 14.8223C19.1751 14.782 19.0864 14.7497 19.0058 14.7094C18.8687 14.645 18.7317 14.5885 18.5947 14.524C18.5141 14.4918 18.4335 14.4515 18.3528 14.4112L17.8208 14.1694C17.7322 14.1291 17.6435 14.0888 17.5468 14.0485L17.1598 13.8792C17.0792 13.8469 16.9986 13.8066 16.918 13.7663L16.386 13.5245C16.2973 13.4842 16.2086 13.4439 16.1119 13.4036L15.725 13.2343C15.6363 13.194 15.5557 13.1537 15.467 13.1134C15.3139 13.0408 15.1607 12.9683 14.9995 12.9038C15.0237 12.8957 15.0156 12.8957 15.0156 12.8957Z" fill="#494949"/>
</g>
<defs>
<clipPath id="clip0">
<rect width="16.3636" height="16.3636" fill="white" transform="translate(6.81787 6.81787)"/>
</clipPath>
</defs>
</svg>
