<svg width="41" height="30" viewBox="0 0 41 30" fill="none" xmlns="http://www.w3.org/2000/svg">
<path d="M34.9632 3.32651C31.4514 0.499458 25.8952 0.0203405 25.657 0.00357582C25.476 -0.0113251 25.2949 0.0304399 25.1387 0.123084C24.9825 0.215727 24.859 0.354661 24.7853 0.520634C24.6793 0.759064 24.5894 1.00432 24.5161 1.25475C26.8394 1.6474 29.6929 2.4371 32.2747 4.03945C32.3731 4.10057 32.4586 4.1805 32.5262 4.27466C32.5938 4.36882 32.6422 4.47537 32.6687 4.58824C32.6951 4.7011 32.699 4.81806 32.6802 4.93245C32.6615 5.04683 32.6203 5.1564 32.5592 5.25489C32.4981 5.35338 32.4182 5.43887 32.324 5.50647C32.2298 5.57408 32.1233 5.62247 32.0104 5.6489C31.8976 5.67532 31.7806 5.67925 31.6662 5.66047C31.5518 5.6417 31.4423 5.60057 31.3438 5.53945C26.9055 2.78387 21.3626 2.6471 20.2941 2.6471C19.2264 2.6471 13.68 2.78475 9.2444 5.53857C9.1459 5.59969 9.03634 5.64081 8.92195 5.65959C8.80757 5.67837 8.69061 5.67444 8.57774 5.64801C8.3498 5.59465 8.1524 5.45292 8.02896 5.25401C7.90551 5.0551 7.86614 4.81529 7.91951 4.58735C7.97287 4.35942 8.1146 4.16201 8.31351 4.03857C10.8953 2.44063 13.7488 1.6474 16.072 1.25828C15.9379 0.820633 15.8161 0.544457 15.8073 0.520634C15.7339 0.353489 15.6098 0.213644 15.4526 0.120862C15.2954 0.028079 15.113 -0.0129489 14.9312 0.00357582C14.6929 0.0212228 9.13675 0.499457 5.57646 3.36445C3.71911 5.08327 0 15.1341 0 23.8235C0 23.9788 0.0414704 24.1271 0.117353 24.2612C2.68147 28.77 9.68204 29.9479 11.2773 30H11.3047C11.4439 30.0004 11.5812 29.9678 11.7055 29.9049C11.8297 29.842 11.9372 29.7506 12.0194 29.6382L13.6314 27.4182C9.27881 26.295 7.05528 24.3856 6.92822 24.2718C6.75271 24.1169 6.64593 23.8986 6.63137 23.6649C6.61681 23.4313 6.69566 23.2014 6.85058 23.0259C7.00549 22.8504 7.22379 22.7436 7.45744 22.729C7.69108 22.7145 7.92095 22.7933 8.09646 22.9482C8.14763 22.9968 12.2426 26.4706 20.2941 26.4706C28.3588 26.4706 32.4538 22.9827 32.4952 22.9482C32.6713 22.7944 32.9012 22.7168 33.1345 22.7323C33.3677 22.7479 33.5853 22.8554 33.7394 23.0312C33.8156 23.1178 33.8741 23.2187 33.9114 23.3279C33.9486 23.4372 33.964 23.5527 33.9567 23.6679C33.9493 23.7831 33.9193 23.8958 33.8684 23.9994C33.8175 24.103 33.7466 24.1955 33.6599 24.2718C33.5329 24.3856 31.3094 26.295 26.9567 27.4182L28.5697 29.6382C28.6517 29.7505 28.7591 29.8418 28.8832 29.9047C29.0072 29.9676 29.1444 30.0002 29.2835 30H29.3099C30.907 29.9479 37.9067 28.7691 40.4717 24.2612C40.5467 24.1271 40.5882 23.9788 40.5882 23.8235C40.5882 15.1341 36.8691 5.08416 34.9632 3.32651ZM14.5588 20.2941C12.8523 20.2941 11.4706 18.7147 11.4706 16.7647C11.4706 14.8147 12.8523 13.2353 14.5588 13.2353C16.2653 13.2353 17.647 14.8147 17.647 16.7647C17.647 18.7147 16.2653 20.2941 14.5588 20.2941ZM26.0294 20.2941C24.3229 20.2941 22.9411 18.7147 22.9411 16.7647C22.9411 14.8147 24.3229 13.2353 26.0294 13.2353C27.7358 13.2353 29.1176 14.8147 29.1176 16.7647C29.1176 18.7147 27.7358 20.2941 26.0294 20.2941Z" fill="white"/>
</svg>
