<svg width="39" height="38" viewBox="0 0 39 38" fill="none" xmlns="http://www.w3.org/2000/svg">
<path d="M19.0863 1.78119C13.0595 1.78466 7.4792 4.95889 4.39514 10.136C1.31194 15.3131 1.18016 21.7309 4.04919 27.0303L0.953857 36.9848L12.0684 34.4747C18.4334 37.342 25.9012 36.0544 30.9387 31.2215C35.9753 26.3887 37.569 18.9807 34.9652 12.5047C32.3624 6.02882 26.0842 1.78466 19.1027 1.78119H19.0863Z" fill="#FFF9AE"/>
<path d="M32.4621 29.4675C27.6032 35.5949 19.2051 37.6463 12.0684 34.4478L0.953857 36.9908L12.2687 35.6538C19.7695 40.0471 29.3737 38.1145 34.5898 31.1617C39.8068 24.2089 38.9753 14.4495 32.6581 8.47906C37.4016 14.6966 37.3201 23.3393 32.4621 29.4675Z" fill="#00AEEF"/>
<path d="M31.5049 26.2187C27.3128 32.8195 19.1756 35.7362 11.7433 33.3007L0.953857 36.9908L12.0684 34.4747C19.9845 38.0495 29.3234 35.1232 33.7817 27.671C38.2409 20.2179 36.4028 10.6076 29.509 5.32477C34.8751 11.0134 35.697 19.6171 31.5049 26.2187Z" fill="#00A94F"/>
<path d="M5.07143 27.4092C1.9735 19.9439 4.52693 11.329 11.1919 6.75539C17.8577 2.18261 26.8159 2.89879 32.6685 8.47386C27.2477 1.36066 17.2612 -0.375154 9.75692 4.49068C2.25268 9.35651 -0.235721 19.1809 4.04919 27.0303L0.953857 36.9847L5.07143 27.4092Z" fill="#F15D22"/>
<path d="M4.04918 27.0303C0.204727 19.9318 1.84864 11.1131 7.99248 5.87621C14.1355 0.638416 23.105 0.40865 29.509 5.32477C23.366 -1.14162 13.2849 -1.80317 6.34944 3.80485C-0.586014 9.41286 -2.04698 19.4081 2.994 26.7658L0.959052 36.9908L4.04918 27.0303Z" fill="#D0232B"/>
</svg>
