<svg width="39" height="32" viewBox="0 0 39 32" fill="none" xmlns="http://www.w3.org/2000/svg">
<path d="M14.3528 30.076C13.2122 30.076 13.4169 29.6373 13.0074 28.5551L9.67322 17.558L30.3805 4.63062L32.808 5.27406L30.7899 10.7726L14.3528 30.076Z" fill="#E6F1F8"/>
<path d="M14.3528 30.0759C15.2302 30.0759 15.6104 29.6665 16.1076 29.1985C16.8681 28.4673 26.6367 18.9619 26.6367 18.9619L20.641 17.4995L15.084 21.0092L14.3528 29.7835V30.0759Z" fill="#E6F1F8"/>
<path d="M14.9378 21.1262L29.0936 31.5676C30.7022 32.445 31.8721 32.0063 32.2815 30.076L38.0433 2.93425C38.6283 0.565199 37.1366 -0.48771 35.5865 0.214231L1.77638 13.2586C-0.534177 14.1945 -0.50493 15.4814 1.36691 16.0371L10.0534 18.7572L30.1465 6.09298C31.0824 5.50803 31.9598 5.82976 31.2579 6.4732L14.9378 21.1262Z" fill="url(#paint0_linear)"/>
<defs>
<linearGradient id="paint0_linear" x1="23.4169" y1="15.0881" x2="30.7288" y2="26.7871" gradientUnits="userSpaceOnUse">
<stop stop-color="white"/>
<stop offset="1" stop-color="white"/>
</linearGradient>
</defs>
</svg>
