<svg width="37" height="30" viewBox="0 0 37 30" fill="none" xmlns="http://www.w3.org/2000/svg">
<path d="M36.9155 3.55158C35.5573 4.15453 34.0976 4.5606 32.5656 4.74364C34.1299 3.80691 35.3312 2.3226 35.8957 0.553733C34.4329 1.42125 32.8117 2.05189 31.0859 2.39182C29.7062 0.919811 27.7358 0 25.5578 0C20.6681 0 17.075 4.56214 18.1793 9.29809C11.8868 8.98277 6.3064 5.96801 2.57024 1.38587C0.586034 4.78979 1.54122 9.24272 4.91284 11.4976C3.67309 11.4576 2.5041 11.1177 1.48431 10.5501C1.40125 14.0587 3.91612 17.3411 7.55845 18.0717C6.49251 18.3608 5.32506 18.4285 4.13761 18.2009C5.10049 21.2095 7.89684 23.3983 11.2131 23.4598C8.02912 25.9562 4.01764 27.0714 0 26.5976C3.35162 28.7464 7.33388 30 11.6099 30C25.6717 30 33.6162 18.124 33.1363 7.47231C34.616 6.4033 35.9003 5.06973 36.9155 3.55158Z" fill="white"/>
</svg>
