<?xml version="1.0" encoding="utf-8"?><svg viewBox="0 0 43 40" xmlns="http://www.w3.org/2000/svg" xmlns:xlink="http://www.w3.org/1999/xlink"><style>:root>svg{display:none}:root>svg:target{display:block}</style><svg fill="none" viewBox="-1 -1 43 32" id="image-discord" xmlns="http://www.w3.org/2000/svg"><path d="M34.963 3.327C31.451.499 25.895.02 25.657.004a.875.875 0 00-.872.517 5.857 5.857 0 00-.269.734c2.323.392 5.177 1.182 7.759 2.784a.884.884 0 01-.931 1.5c-4.439-2.755-9.981-2.892-11.05-2.892-1.068 0-6.614.138-11.05 2.892a.883.883 0 01-.93-1.5c2.581-1.598 5.435-2.392 7.758-2.78-.134-.438-.256-.715-.265-.738a.87.87 0 00-.876-.517c-.238.017-5.794.495-9.355 3.36C3.72 5.084 0 15.134 0 23.824c0 .155.041.303.117.437C2.681 28.77 9.682 29.948 11.277 30h.028a.882.882 0 00.714-.362l1.612-2.22c-4.352-1.123-6.576-3.032-6.703-3.146a.883.883 0 011.168-1.324c.052.049 4.147 3.523 12.198 3.523 8.065 0 12.16-3.488 12.201-3.523A.883.883 0 0133.868 24a.88.88 0 01-.208.273c-.127.114-2.35 2.023-6.703 3.146l1.613 2.22a.882.882 0 00.713.362h.027c1.597-.052 8.597-1.23 11.162-5.739a.892.892 0 00.116-.438c0-8.689-3.719-18.739-5.625-20.496zM14.56 20.294c-1.707 0-3.088-1.58-3.088-3.53 0-1.95 1.381-3.529 3.088-3.529 1.706 0 3.088 1.58 3.088 3.53 0 1.95-1.382 3.53-3.088 3.53zm11.47 0c-1.706 0-3.088-1.58-3.088-3.53 0-1.95 1.382-3.529 3.088-3.529 1.707 0 3.089 1.58 3.089 3.53 0 1.95-1.382 3.53-3.089 3.53z" fill="#fff"/></svg><svg fill="none" viewBox="-1 -1 41 40" id="image-discourse" xmlns="http://www.w3.org/2000/svg"><path d="M19.086 1.781a17.112 17.112 0 00-14.69 8.355 17.103 17.103 0 00-.347 16.894L.954 36.985l11.114-2.51a17.107 17.107 0 0018.87-3.254 17.099 17.099 0 004.027-18.716A17.104 17.104 0 0019.103 1.78h-.017z" fill="#FFF9AE"/><path d="M32.462 29.468a17.102 17.102 0 01-20.394 4.98L.954 36.99l11.315-1.337c7.5 4.393 17.105 2.46 22.32-4.492 5.218-6.953 4.386-16.712-1.93-22.683a17.094 17.094 0 01-.197 20.989z" fill="#00AEEF"/><path d="M31.505 26.219A17.102 17.102 0 0111.743 33.3L.953 36.99l11.115-2.516c7.917 3.575 17.255.648 21.714-6.804 4.459-7.453 2.62-17.063-4.273-22.346a17.094 17.094 0 011.996 20.894z" fill="#00A94F"/><path d="M5.071 27.41a17.1 17.1 0 016.12-20.655 17.108 17.108 0 0121.477 1.719C27.248 1.36 17.262-.376 9.758 4.49 2.253 9.357-.236 19.18 4.049 27.03L.954 36.984l4.117-9.576z" fill="#F15D22"/><path d="M4.05 27.03A17.096 17.096 0 017.991 5.876a17.108 17.108 0 0121.517-.551c-6.143-6.467-16.224-7.128-23.16-1.52-6.935 5.608-8.396 15.603-3.355 22.96L.959 36.992l3.09-9.96z" fill="#D0232B"/></svg><svg fill="none" viewBox="-1 -1 22 36" id="image-facebook" xmlns="http://www.w3.org/2000/svg"><path d="M4.983 13.287H0v6.644h4.983V34h8.304V19.931h6.05l.594-6.644h-6.644V10.52c0-1.587.32-2.214 1.852-2.214h4.792V0h-6.325C7.634 0 4.983 2.63 4.983 7.665v5.622z" fill="#fff"/></svg><svg fill="none" viewBox="-1 -1 24 24" id="image-plus-round" xmlns="http://www.w3.org/2000/svg"><circle cx="11" cy="11" r="11" fill="#F5F5F5"/><path d="M11 7v8m-4-4h8" stroke="#828282" stroke-width="1.6" stroke-linecap="round"/></svg><svg fill="none" viewBox="-1 -1 41 34" id="image-telegram" xmlns="http://www.w3.org/2000/svg"><path d="M14.353 30.076c-1.14 0-.936-.439-1.346-1.52L9.673 17.557 30.381 4.631l2.427.643-2.018 5.499-16.437 19.303z" fill="#E6F1F8"/><path d="M14.353 30.076c.877 0 1.257-.41 1.755-.878.76-.73 10.529-10.236 10.529-10.236L20.64 17.5l-5.557 3.51-.731 8.773v.293z" fill="#E6F1F8"/><path d="M14.938 21.126l14.156 10.442c1.608.877 2.778.438 3.188-1.492l5.761-27.142c.585-2.369-.906-3.422-2.456-2.72L1.776 13.26c-2.311.935-2.282 2.222-.41 2.778l8.686 2.72L30.146 6.093c.936-.585 1.814-.263 1.112.38l-16.32 14.653z" fill="url(#epaint0_linear)"/><defs><linearGradient id="epaint0_linear" x1="23.417" y1="15.088" x2="30.729" y2="26.787" gradientUnits="userSpaceOnUse"><stop stop-color="#fff"/><stop offset="1" stop-color="#fff"/></linearGradient></defs></svg><svg fill="none" viewBox="-1 -1 39 32" id="image-twitter" xmlns="http://www.w3.org/2000/svg"><path d="M36.916 3.552a15.121 15.121 0 01-4.35 1.192 7.586 7.586 0 003.33-4.19 15.172 15.172 0 01-4.81 1.838A7.56 7.56 0 0025.558 0c-4.89 0-8.483 4.562-7.379 9.298-6.292-.315-11.873-3.33-15.609-7.912C.586 4.79 1.541 9.243 4.913 11.498a7.541 7.541 0 01-3.429-.948c-.083 3.509 2.432 6.791 6.074 7.522a7.593 7.593 0 01-3.42.129 7.58 7.58 0 007.075 5.259A15.228 15.228 0 010 26.598 21.44 21.44 0 0011.61 30c14.062 0 22.006-11.876 21.526-22.528a15.42 15.42 0 003.78-3.92z" fill="#fff"/></svg></svg>